<ttFont>
    <TTGlyph name=".notdef" xMin="60" yMin="0" xMax="1041" yMax="1024">
      <contour>
        <pt x="113" y="1024" on="1"/>
        <pt x="1041" y="1024" on="1"/>
        <pt x="988" y="0" on="1"/>
        <pt x="60" y="0" on="1"/>
      </contour>
      <contour>
        <pt x="337" y="147" on="1"/>
        <pt x="725" y="147" on="1"/>
        <pt x="764" y="877" on="1"/>
        <pt x="376" y="877" on="1"/>
      </contour>
    </TTGlyph>
    <TTGlyph name="A" xMin="-24" yMin="0" xMax="1330" yMax="1470">
      <contour>
        <pt x="833" y="428" on="1"/>
        <pt x="384" y="420" on="1"/>
        <pt x="346" y="324" on="1"/>
        <pt x="340" y="310" on="0"/>
        <pt x="323" y="268" on="0"/>
        <pt x="303" y="221" on="0"/>
        <pt x="282" y="176" on="0"/>
        <pt x="273" y="158" on="1"/>
        <pt x="423" y="164" on="1"/>
        <pt x="414" y="0" on="1"/>
        <pt x="-24" y="0" on="1"/>
        <pt x="-17" y="141" on="1"/>
        <pt x="25" y="141" on="0"/>
        <pt x="87" y="180" on="0"/>
        <pt x="134" y="244" on="0"/>
        <pt x="172" y="329" on="0"/>
        <pt x="192" y="375" on="1"/>
        <pt x="649" y="1470" on="1"/>
        <pt x="786" y="1470" on="1"/>
        <pt x="1165" y="354" on="1"/>
        <pt x="1170" y="339" on="0"/>
        <pt x="1185" y="289" on="0"/>
        <pt x="1199" y="232" on="0"/>
        <pt x="1210" y="175" on="0"/>
        <pt x="1212" y="152" on="1"/>
        <pt x="1330" y="158" on="1"/>
        <pt x="1322" y="0" on="1"/>
        <pt x="775" y="0" on="1"/>
        <pt x="782" y="135" on="1"/>
        <pt x="825" y="135" on="0"/>
        <pt x="872" y="162" on="0"/>
        <pt x="889" y="211" on="0"/>
        <pt x="881" y="277" on="0"/>
        <pt x="869" y="316" on="1"/>
      </contour>
      <contour>
        <pt x="444" y="573" on="1"/>
        <pt x="789" y="573" on="1"/>
        <pt x="709" y="830" on="1"/>
        <pt x="686" y="904" on="0"/>
        <pt x="652" y="1052" on="0"/>
        <pt x="645" y="1109" on="1"/>
        <pt x="643" y="1109" on="1"/>
        <pt x="635" y="1074" on="0"/>
        <pt x="587" y="936" on="0"/>
        <pt x="549" y="839" on="1"/>
      </contour>
    </TTGlyph>
    <TTGlyph name="AE" xMin="-49" yMin="0" xMax="1814" yMax="1434">
      <contour>
        <pt x="1174" y="672" on="1"/>
        <pt x="1157" y="336" on="1"/>
        <pt x="1155" y="308" on="0"/>
        <pt x="1151" y="255" on="0"/>
        <pt x="1147" y="207" on="0"/>
        <pt x="1142" y="168" on="0"/>
        <pt x="1139" y="155" on="1"/>
        <pt x="1414" y="156" on="1"/>
        <pt x="1459" y="156" on="0"/>
        <pt x="1550" y="186" on="0"/>
        <pt x="1625" y="255" on="0"/>
        <pt x="1674" y="368" on="0"/>
        <pt x="1679" y="451" on="1"/>
        <pt x="1814" y="451" on="1"/>
        <pt x="1778" y="0" on="1"/>
        <pt x="702" y="0" on="1"/>
        <pt x="709" y="135" on="1"/>
        <pt x="743" y="137" on="0"/>
        <pt x="798" y="147" on="0"/>
        <pt x="838" y="181" on="0"/>
        <pt x="861" y="251" on="0"/>
        <pt x="864" y="313" on="1"/>
        <pt x="869" y="424" on="1"/>
        <pt x="774" y="422" on="0"/>
        <pt x="566" y="416" on="0"/>
        <pt x="469" y="414" on="1"/>
        <pt x="391" y="309" on="1"/>
        <pt x="356" y="261" on="0"/>
        <pt x="288" y="178" on="0"/>
        <pt x="253" y="153" on="1"/>
        <pt x="253" y="151" on="1"/>
        <pt x="417" y="158" on="1"/>
        <pt x="409" y="0" on="1"/>
        <pt x="-49" y="0" on="1"/>
        <pt x="-42" y="135" on="1"/>
        <pt x="-6" y="135" on="0"/>
        <pt x="62" y="175" on="0"/>
        <pt x="126" y="237" on="0"/>
        <pt x="185" y="314" on="0"/>
        <pt x="213" y="350" on="1"/>
        <pt x="923" y="1280" on="1"/>
        <pt x="923" y="1282" on="1"/>
        <pt x="769" y="1276" on="1"/>
        <pt x="777" y="1434" on="1"/>
        <pt x="1797" y="1434" on="1"/>
        <pt x="1788" y="1037" on="1"/>
        <pt x="1653" y="1037" on="1"/>
        <pt x="1657" y="1120" on="0"/>
        <pt x="1616" y="1224" on="0"/>
        <pt x="1547" y="1282" on="0"/>
        <pt x="1460" y="1302" on="0"/>
        <pt x="1418" y="1301" on="1"/>
        <pt x="1344" y="1299" on="1"/>
        <pt x="1312" y="1298" on="0"/>
        <pt x="1260" y="1287" on="0"/>
        <pt x="1223" y="1251" on="0"/>
        <pt x="1201" y="1181" on="0"/>
        <pt x="1198" y="1121" on="1"/>
        <pt x="1182" y="814" on="1"/>
        <pt x="1423" y="814" on="1"/>
        <pt x="1423" y="991" on="1"/>
        <pt x="1581" y="991" on="1"/>
        <pt x="1555" y="493" on="1"/>
        <pt x="1420" y="493" on="1"/>
        <pt x="1423" y="557" on="0"/>
        <pt x="1395" y="631" on="0"/>
        <pt x="1343" y="667" on="0"/>
        <pt x="1270" y="674" on="0"/>
        <pt x="1228" y="673" on="1"/>
      </contour>
      <contour>
        <pt x="576" y="565" on="1"/>
        <pt x="877" y="565" on="1"/>
        <pt x="912" y="1026" on="1"/>
        <pt x="910" y="1026" on="1"/>
        <pt x="890" y="994" on="0"/>
        <pt x="861" y="950" on="0"/>
        <pt x="829" y="904" on="0"/>
        <pt x="787" y="847" on="0"/>
        <pt x="754" y="803" on="1"/>
      </contour>
    </TTGlyph>
    <TTGlyph name="Aacute" xMin="-24" yMin="0" xMax="1330" yMax="1975">
      <component glyphName="A" x="0" y="0" flags="0x204"/>
      <component glyphName="Acute" x="539" y="0" flags="0x4"/>
    </TTGlyph>
    <TTGlyph name="Abreve" xMin="-24" yMin="0" xMax="1330" yMax="1912">
      <component glyphName="A" x="0" y="0" flags="0x0"/>
      <component glyphName="Breve" x="267" y="0" flags="0x0"/>
    </TTGlyph>
    <TTGlyph name="Acircumflex" xMin="-24" yMin="0" xMax="1330" yMax="1988">
      <component glyphName="A" x="0" y="0" flags="0x204"/>
      <component glyphName="Circumflex" x="206" y="0" flags="0x4"/>
    </TTGlyph>
    <TTGlyph name="Acute" xMin="92" yMin="1576" xMax="559" yMax="1975">
      <contour>
        <pt x="161" y="1576" on="1"/>
        <pt x="92" y="1675" on="1"/>
        <pt x="341" y="1917" on="1"/>
        <pt x="363" y="1939" on="0"/>
        <pt x="419" y="1968" on="0"/>
        <pt x="474" y="1975" on="0"/>
        <pt x="524" y="1957" on="0"/>
        <pt x="541" y="1932" on="1"/>
        <pt x="559" y="1906" on="0"/>
        <pt x="559" y="1853" on="0"/>
        <pt x="536" y="1804" on="0"/>
        <pt x="494" y="1763" on="0"/>
        <pt x="469" y="1748" on="1"/>
      </contour>
    </TTGlyph>
    <TTGlyph name="Adieresis" xMin="-24" yMin="0" xMax="1330" yMax="1943">
      <component glyphName="A" x="0" y="0" flags="0x204"/>
      <component glyphName="Dieresis" x="321" y="0" flags="0x4"/>
    </TTGlyph>
    <TTGlyph name="Agrave" xMin="-24" yMin="0" xMax="1330" yMax="1975">
      <component glyphName="A" x="0" y="0" flags="0x204"/>
      <component glyphName="Grave" x="345" y="0" flags="0x4"/>
    </TTGlyph>
    <TTGlyph name="Amacron" xMin="-24" yMin="0" xMax="1330" yMax="1888">
      <component glyphName="A" x="0" y="0" flags="0x0"/>
      <component glyphName="macron" x="317" y="410" flags="0x0"/>
    </TTGlyph>
    <TTGlyph name="Aogonek" xMin="-24" yMin="-532" xMax="1330" yMax="1470">
      <contour>
        <pt x="1205" y="0" on="1"/>
        <pt x="1158" y="-21" on="0"/>
        <pt x="1069" y="-79" on="0"/>
        <pt x="1000" y="-147" on="0"/>
        <pt x="957" y="-224" on="0"/>
        <pt x="956" y="-264" on="1"/>
        <pt x="955" y="-301" on="0"/>
        <pt x="999" y="-346" on="0"/>
        <pt x="1041" y="-346" on="1"/>
        <pt x="1071" y="-346" on="0"/>
        <pt x="1138" y="-316" on="0"/>
        <pt x="1172" y="-287" on="1"/>
        <pt x="1239" y="-375" on="1"/>
        <pt x="1210" y="-411" on="0"/>
        <pt x="1143" y="-469" on="0"/>
        <pt x="1072" y="-510" on="0"/>
        <pt x="997" y="-532" on="0"/>
        <pt x="961" y="-532" on="1"/>
        <pt x="914" y="-532" on="0"/>
        <pt x="837" y="-505" on="0"/>
        <pt x="782" y="-453" on="0"/>
        <pt x="753" y="-374" on="0"/>
        <pt x="756" y="-321" on="1"/>
        <pt x="759" y="-275" on="0"/>
        <pt x="791" y="-188" on="0"/>
        <pt x="846" y="-107" on="0"/>
        <pt x="921" y="-33" on="0"/>
        <pt x="965" y="0" on="1"/>
        <pt x="775" y="0" on="1"/>
        <pt x="782" y="135" on="1"/>
        <pt x="825" y="135" on="0"/>
        <pt x="872" y="162" on="0"/>
        <pt x="889" y="211" on="0"/>
        <pt x="881" y="277" on="0"/>
        <pt x="869" y="316" on="1"/>
        <pt x="833" y="428" on="1"/>
        <pt x="384" y="420" on="1"/>
        <pt x="346" y="324" on="1"/>
        <pt x="340" y="310" on="0"/>
        <pt x="323" y="268" on="0"/>
        <pt x="303" y="221" on="0"/>
        <pt x="282" y="176" on="0"/>
        <pt x="273" y="158" on="1"/>
        <pt x="289" y="159" on="0"/>
        <pt x="332" y="161" on="0"/>
        <pt x="375" y="162" on="0"/>
        <pt x="412" y="164" on="0"/>
        <pt x="423" y="164" on="1"/>
        <pt x="414" y="0" on="1"/>
        <pt x="-24" y="0" on="1"/>
        <pt x="-17" y="141" on="1"/>
        <pt x="25" y="141" on="0"/>
        <pt x="87" y="180" on="0"/>
        <pt x="134" y="244" on="0"/>
        <pt x="172" y="329" on="0"/>
        <pt x="192" y="375" on="1"/>
        <pt x="649" y="1470" on="1"/>
        <pt x="786" y="1470" on="1"/>
        <pt x="1165" y="354" on="1"/>
        <pt x="1170" y="339" on="0"/>
        <pt x="1185" y="289" on="0"/>
        <pt x="1199" y="232" on="0"/>
        <pt x="1210" y="175" on="0"/>
        <pt x="1212" y="152" on="1"/>
        <pt x="1245" y="154" on="0"/>
        <pt x="1308" y="157" on="0"/>
        <pt x="1330" y="158" on="1"/>
        <pt x="1322" y="0" on="1"/>
      </contour>
      <contour>
        <pt x="709" y="830" on="1"/>
        <pt x="686" y="904" on="0"/>
        <pt x="652" y="1052" on="0"/>
        <pt x="645" y="1109" on="1"/>
        <pt x="643" y="1109" on="1"/>
        <pt x="635" y="1074" on="0"/>
        <pt x="587" y="936" on="0"/>
        <pt x="549" y="839" on="1"/>
        <pt x="444" y="573" on="1"/>
        <pt x="789" y="573" on="1"/>
      </contour>
    </TTGlyph>
    <TTGlyph name="Aring" xMin="-24" yMin="0" xMax="1330" yMax="2116">
      <component glyphName="A" x="0" y="0" flags="0x204"/>
      <component glyphName="Ring" x="364" y="55" flags="0x4"/>
    </TTGlyph>
    <TTGlyph name="Atilde" xMin="-24" yMin="0" xMax="1330" yMax="1943">
      <component glyphName="A" x="0" y="0" flags="0x204"/>
      <component glyphName="Tilde" x="206" y="0" flags="0x4"/>
    </TTGlyph>
    <TTGlyph name="B" xMin="72" yMin="0" xMax="1281" yMax="1439">
      <contour>
        <pt x="79" y="135" on="1"/>
        <pt x="113" y="137" on="0"/>
        <pt x="168" y="147" on="0"/>
        <pt x="208" y="181" on="0"/>
        <pt x="231" y="251" on="0"/>
        <pt x="234" y="313" on="1"/>
        <pt x="275" y="1098" on="1"/>
        <pt x="276" y="1126" on="0"/>
        <pt x="281" y="1180" on="0"/>
        <pt x="285" y="1229" on="0"/>
        <pt x="290" y="1269" on="0"/>
        <pt x="293" y="1282" on="1"/>
        <pt x="276" y="1281" on="0"/>
        <pt x="232" y="1279" on="0"/>
        <pt x="188" y="1277" on="0"/>
        <pt x="150" y="1276" on="0"/>
        <pt x="139" y="1276" on="1"/>
        <pt x="147" y="1434" on="1"/>
        <pt x="710" y="1438" on="1"/>
        <pt x="833" y="1439" on="0"/>
        <pt x="1027" y="1393" on="0"/>
        <pt x="1158" y="1299" on="0"/>
        <pt x="1219" y="1158" on="0"/>
        <pt x="1209" y="1064" on="1"/>
        <pt x="1204" y="1020" on="0"/>
        <pt x="1162" y="933" on="0"/>
        <pt x="1087" y="857" on="0"/>
        <pt x="978" y="795" on="0"/>
        <pt x="905" y="776" on="1"/>
        <pt x="905" y="774" on="1"/>
        <pt x="1006" y="758" on="0"/>
        <pt x="1150" y="687" on="0"/>
        <pt x="1241" y="590" on="0"/>
        <pt x="1281" y="471" on="0"/>
        <pt x="1278" y="407" on="1"/>
        <pt x="1273" y="307" on="0"/>
        <pt x="1192" y="155" on="0"/>
        <pt x="1055" y="52" on="0"/>
        <pt x="872" y="0" on="0"/>
        <pt x="764" y="0" on="1"/>
        <pt x="72" y="0" on="1"/>
      </contour>
      <contour>
        <pt x="508" y="145" on="1"/>
        <pt x="562" y="145" on="0"/>
        <pt x="660" y="146" on="0"/>
        <pt x="709" y="148" on="1"/>
        <pt x="771" y="151" on="0"/>
        <pt x="863" y="192" on="0"/>
        <pt x="924" y="262" on="0"/>
        <pt x="957" y="357" on="0"/>
        <pt x="960" y="414" on="1"/>
        <pt x="964" y="484" on="0"/>
        <pt x="923" y="579" on="0"/>
        <pt x="852" y="637" on="0"/>
        <pt x="758" y="661" on="0"/>
        <pt x="709" y="661" on="1"/>
        <pt x="658" y="661" on="0"/>
        <pt x="583" y="661" on="0"/>
        <pt x="543" y="659" on="1"/>
        <pt x="526" y="326" on="1"/>
        <pt x="524" y="298" on="0"/>
        <pt x="520" y="245" on="0"/>
        <pt x="516" y="197" on="0"/>
        <pt x="511" y="158" on="0"/>
      </contour>
      <contour>
        <pt x="658" y="807" on="1"/>
        <pt x="723" y="808" on="0"/>
        <pt x="813" y="852" on="0"/>
        <pt x="871" y="927" on="0"/>
        <pt x="899" y="1026" on="0"/>
        <pt x="902" y="1082" on="1"/>
        <pt x="905" y="1143" on="0"/>
        <pt x="871" y="1225" on="0"/>
        <pt x="812" y="1275" on="0"/>
        <pt x="736" y="1295" on="0"/>
        <pt x="697" y="1294" on="1"/>
        <pt x="671" y="1293" on="0"/>
        <pt x="627" y="1283" on="0"/>
        <pt x="593" y="1249" on="0"/>
        <pt x="571" y="1181" on="0"/>
        <pt x="568" y="1122" on="1"/>
        <pt x="551" y="804" on="1"/>
      </contour>
    </TTGlyph>
    <TTGlyph name="Breve" xMin="94" yMin="1611" xMax="812" yMax="1912">
      <contour>
        <pt x="812" y="1830" on="1"/>
        <pt x="782" y="1769" on="0"/>
        <pt x="695" y="1686" on="0"/>
        <pt x="594" y="1634" on="0"/>
        <pt x="488" y="1611" on="0"/>
        <pt x="438" y="1611" on="1"/>
        <pt x="387" y="1611" on="0"/>
        <pt x="283" y="1634" on="0"/>
        <pt x="190" y="1686" on="0"/>
        <pt x="115" y="1769" on="0"/>
        <pt x="94" y="1830" on="1"/>
        <pt x="217" y="1912" on="1"/>
        <pt x="235" y="1890" on="0"/>
        <pt x="279" y="1850" on="0"/>
        <pt x="336" y="1819" on="0"/>
        <pt x="406" y="1800" on="0"/>
        <pt x="451" y="1800" on="1"/>
        <pt x="496" y="1800" on="0"/>
        <pt x="569" y="1819" on="0"/>
        <pt x="629" y="1850" on="0"/>
        <pt x="679" y="1890" on="0"/>
        <pt x="701" y="1912" on="1"/>
      </contour>
    </TTGlyph>
    <TTGlyph name="C" xMin="70" yMin="-33" xMax="1375" yMax="1467">
      <contour>
        <pt x="398" y="738" on="1"/>
        <pt x="391" y="605" on="0"/>
        <pt x="437" y="380" on="0"/>
        <pt x="540" y="216" on="0"/>
        <pt x="697" y="123" on="0"/>
        <pt x="801" y="122" on="1"/>
        <pt x="862" y="122" on="0"/>
        <pt x="992" y="150" on="0"/>
        <pt x="1121" y="212" on="0"/>
        <pt x="1242" y="308" on="0"/>
        <pt x="1294" y="376" on="1"/>
        <pt x="1375" y="295" on="1"/>
        <pt x="1295" y="191" on="0"/>
        <pt x="1124" y="63" on="0"/>
        <pt x="959" y="-8" on="0"/>
        <pt x="805" y="-33" on="0"/>
        <pt x="742" y="-33" on="1"/>
        <pt x="584" y="-33" on="0"/>
        <pt x="331" y="80" on="0"/>
        <pt x="157" y="277" on="0"/>
        <pt x="70" y="543" on="0"/>
        <pt x="78" y="696" on="1"/>
        <pt x="83" y="789" on="0"/>
        <pt x="133" y="976" on="0"/>
        <pt x="222" y="1147" on="0"/>
        <pt x="349" y="1295" on="0"/>
        <pt x="514" y="1405" on="0"/>
        <pt x="716" y="1467" on="0"/>
        <pt x="835" y="1467" on="1"/>
        <pt x="875" y="1467" on="0"/>
        <pt x="964" y="1454" on="0"/>
        <pt x="1054" y="1428" on="0"/>
        <pt x="1142" y="1391" on="0"/>
        <pt x="1182" y="1366" on="1"/>
        <pt x="1184" y="1366" on="1"/>
        <pt x="1181" y="1453" on="1"/>
        <pt x="1339" y="1453" on="1"/>
        <pt x="1314" y="974" on="1"/>
        <pt x="1180" y="974" on="1"/>
        <pt x="1161" y="1147" on="0"/>
        <pt x="998" y="1327" on="0"/>
        <pt x="854" y="1328" on="1"/>
        <pt x="747" y="1328" on="0"/>
        <pt x="582" y="1227" on="0"/>
        <pt x="467" y="1061" on="0"/>
        <pt x="404" y="849" on="0"/>
      </contour>
    </TTGlyph>
    <TTGlyph name="Cacute" xMin="70" yMin="-33" xMax="1375" yMax="1975">
      <component glyphName="C" x="0" y="0" flags="0x0"/>
      <component glyphName="Acute" x="600" y="0" flags="0x0"/>
    </TTGlyph>
    <TTGlyph name="Caron" xMin="92" yMin="1576" xMax="951" yMax="1971">
      <contour>
        <pt x="516" y="1576" on="1"/>
        <pt x="476" y="1576" on="1"/>
        <pt x="92" y="1886" on="1"/>
        <pt x="149" y="1970" on="1"/>
        <pt x="519" y="1792" on="1"/>
        <pt x="910" y="1971" on="1"/>
        <pt x="951" y="1889" on="1"/>
      </contour>
    </TTGlyph>
    <TTGlyph name="Ccaron" xMin="71" yMin="-33" xMax="1376" yMax="1971">
      <component glyphName="C" x="1" y="0" flags="0x0"/>
      <component glyphName="Caron" x="340" y="0" flags="0x0"/>
    </TTGlyph>
    <TTGlyph name="Ccedilla" xMin="72" yMin="-563" xMax="1376" yMax="1467">
      <contour>
        <pt x="815" y="-106" on="1"/>
        <pt x="847" y="-107" on="0"/>
        <pt x="902" y="-127" on="0"/>
        <pt x="942" y="-164" on="0"/>
        <pt x="964" y="-220" on="0"/>
        <pt x="962" y="-257" on="1"/>
        <pt x="959" y="-305" on="0"/>
        <pt x="907" y="-384" on="0"/>
        <pt x="826" y="-449" on="0"/>
        <pt x="723" y="-498" on="0"/>
        <pt x="616" y="-534" on="0"/>
        <pt x="515" y="-558" on="0"/>
        <pt x="475" y="-563" on="1"/>
        <pt x="465" y="-451" on="1"/>
        <pt x="481" y="-448" on="0"/>
        <pt x="532" y="-435" on="0"/>
        <pt x="588" y="-415" on="0"/>
        <pt x="645" y="-389" on="0"/>
        <pt x="691" y="-357" on="0"/>
        <pt x="721" y="-320" on="0"/>
        <pt x="722" y="-299" on="1"/>
        <pt x="723" y="-271" on="0"/>
        <pt x="692" y="-248" on="0"/>
        <pt x="646" y="-248" on="0"/>
        <pt x="597" y="-267" on="0"/>
        <pt x="581" y="-279" on="1"/>
        <pt x="498" y="-247" on="1"/>
        <pt x="565" y="-12" on="1"/>
        <pt x="446" y="16" on="0"/>
        <pt x="260" y="147" on="0"/>
        <pt x="134" y="333" on="0"/>
        <pt x="72" y="566" on="0"/>
        <pt x="79" y="696" on="1"/>
        <pt x="84" y="789" on="0"/>
        <pt x="134" y="976" on="0"/>
        <pt x="223" y="1147" on="0"/>
        <pt x="350" y="1295" on="0"/>
        <pt x="515" y="1405" on="0"/>
        <pt x="717" y="1467" on="0"/>
        <pt x="836" y="1467" on="1"/>
        <pt x="876" y="1467" on="0"/>
        <pt x="965" y="1454" on="0"/>
        <pt x="1055" y="1428" on="0"/>
        <pt x="1143" y="1391" on="0"/>
        <pt x="1183" y="1366" on="1"/>
        <pt x="1185" y="1366" on="1"/>
        <pt x="1182" y="1453" on="1"/>
        <pt x="1340" y="1453" on="1"/>
        <pt x="1315" y="974" on="1"/>
        <pt x="1181" y="974" on="1"/>
        <pt x="1162" y="1147" on="0"/>
        <pt x="999" y="1327" on="0"/>
        <pt x="855" y="1328" on="1"/>
        <pt x="748" y="1328" on="0"/>
        <pt x="583" y="1227" on="0"/>
        <pt x="468" y="1061" on="0"/>
        <pt x="405" y="849" on="0"/>
        <pt x="399" y="738" on="1"/>
        <pt x="392" y="605" on="0"/>
        <pt x="438" y="380" on="0"/>
        <pt x="541" y="216" on="0"/>
        <pt x="698" y="123" on="0"/>
        <pt x="802" y="122" on="1"/>
        <pt x="863" y="122" on="0"/>
        <pt x="993" y="150" on="0"/>
        <pt x="1122" y="212" on="0"/>
        <pt x="1243" y="308" on="0"/>
        <pt x="1295" y="376" on="1"/>
        <pt x="1376" y="295" on="1"/>
        <pt x="1296" y="191" on="0"/>
        <pt x="1125" y="63" on="0"/>
        <pt x="960" y="-8" on="0"/>
        <pt x="806" y="-33" on="0"/>
        <pt x="743" y="-33" on="1"/>
        <pt x="736" y="-33" on="0"/>
        <pt x="723" y="-33" on="0"/>
        <pt x="717" y="-32" on="1"/>
        <pt x="671" y="-138" on="1"/>
        <pt x="673" y="-138" on="1"/>
        <pt x="686" y="-131" on="0"/>
        <pt x="723" y="-119" on="0"/>
        <pt x="763" y="-110" on="0"/>
        <pt x="801" y="-106" on="0"/>
      </contour>
    </TTGlyph>
    <TTGlyph name="Cedilla" xMin="92" yMin="-563" xMax="591" yMax="20">
      <contour>
        <pt x="442" y="-106" on="1"/>
        <pt x="474" y="-107" on="0"/>
        <pt x="529" y="-127" on="0"/>
        <pt x="569" y="-164" on="0"/>
        <pt x="591" y="-220" on="0"/>
        <pt x="589" y="-257" on="1"/>
        <pt x="586" y="-305" on="0"/>
        <pt x="534" y="-384" on="0"/>
        <pt x="453" y="-449" on="0"/>
        <pt x="350" y="-498" on="0"/>
        <pt x="243" y="-534" on="0"/>
        <pt x="142" y="-558" on="0"/>
        <pt x="102" y="-563" on="1"/>
        <pt x="92" y="-451" on="1"/>
        <pt x="108" y="-448" on="0"/>
        <pt x="159" y="-435" on="0"/>
        <pt x="215" y="-415" on="0"/>
        <pt x="272" y="-389" on="0"/>
        <pt x="318" y="-357" on="0"/>
        <pt x="348" y="-320" on="0"/>
        <pt x="349" y="-299" on="1"/>
        <pt x="350" y="-271" on="0"/>
        <pt x="319" y="-248" on="0"/>
        <pt x="273" y="-248" on="0"/>
        <pt x="224" y="-267" on="0"/>
        <pt x="208" y="-279" on="1"/>
        <pt x="125" y="-247" on="1"/>
        <pt x="202" y="20" on="1"/>
        <pt x="367" y="20" on="1"/>
        <pt x="298" y="-138" on="1"/>
        <pt x="300" y="-138" on="1"/>
        <pt x="313" y="-131" on="0"/>
        <pt x="350" y="-119" on="0"/>
        <pt x="390" y="-110" on="0"/>
        <pt x="428" y="-106" on="0"/>
      </contour>
    </TTGlyph>
    <TTGlyph name="Circumflex" xMin="92" yMin="1596" xMax="950" yMax="1988">
      <contour>
        <pt x="526" y="1988" on="1"/>
        <pt x="566" y="1988" on="1"/>
        <pt x="950" y="1681" on="1"/>
        <pt x="893" y="1596" on="1"/>
        <pt x="526" y="1775" on="1"/>
        <pt x="132" y="1599" on="1"/>
        <pt x="92" y="1681" on="1"/>
      </contour>
    </TTGlyph>
    <TTGlyph name="D" xMin="72" yMin="0" xMax="1484" yMax="1436">
      <contour>
        <pt x="147" y="1434" on="1"/>
        <pt x="739" y="1436" on="1"/>
        <pt x="874" y="1436" on="0"/>
        <pt x="1091" y="1380" on="0"/>
        <pt x="1259" y="1280" on="0"/>
        <pt x="1379" y="1144" on="0"/>
        <pt x="1453" y="987" on="0"/>
        <pt x="1484" y="816" on="0"/>
        <pt x="1480" y="731" on="1"/>
        <pt x="1476" y="648" on="0"/>
        <pt x="1430" y="475" on="0"/>
        <pt x="1342" y="312" on="0"/>
        <pt x="1209" y="169" on="0"/>
        <pt x="1029" y="62" on="0"/>
        <pt x="797" y="0" on="0"/>
        <pt x="654" y="0" on="1"/>
        <pt x="72" y="0" on="1"/>
        <pt x="79" y="135" on="1"/>
        <pt x="113" y="137" on="0"/>
        <pt x="168" y="147" on="0"/>
        <pt x="208" y="181" on="0"/>
        <pt x="231" y="251" on="0"/>
        <pt x="234" y="313" on="1"/>
        <pt x="275" y="1098" on="1"/>
        <pt x="276" y="1126" on="0"/>
        <pt x="281" y="1180" on="0"/>
        <pt x="285" y="1229" on="0"/>
        <pt x="290" y="1269" on="0"/>
        <pt x="293" y="1282" on="1"/>
        <pt x="276" y="1281" on="0"/>
        <pt x="232" y="1279" on="0"/>
        <pt x="188" y="1277" on="0"/>
        <pt x="150" y="1276" on="0"/>
        <pt x="139" y="1276" on="1"/>
      </contour>
      <contour>
        <pt x="728" y="1299" on="1"/>
        <pt x="690" y="1300" on="0"/>
        <pt x="633" y="1290" on="0"/>
        <pt x="593" y="1254" on="0"/>
        <pt x="571" y="1184" on="0"/>
        <pt x="568" y="1125" on="1"/>
        <pt x="526" y="336" on="1"/>
        <pt x="525" y="308" on="0"/>
        <pt x="521" y="254" on="0"/>
        <pt x="517" y="205" on="0"/>
        <pt x="512" y="165" on="0"/>
        <pt x="509" y="152" on="1"/>
        <pt x="524" y="153" on="0"/>
        <pt x="575" y="153" on="0"/>
        <pt x="632" y="151" on="0"/>
        <pt x="687" y="150" on="0"/>
        <pt x="705" y="150" on="1"/>
        <pt x="817" y="150" on="0"/>
        <pt x="983" y="241" on="0"/>
        <pt x="1095" y="392" on="0"/>
        <pt x="1155" y="586" on="0"/>
        <pt x="1160" y="688" on="1"/>
        <pt x="1168" y="845" on="0"/>
        <pt x="1115" y="1073" on="0"/>
        <pt x="1002" y="1222" on="0"/>
        <pt x="834" y="1296" on="0"/>
      </contour>
    </TTGlyph>
    <TTGlyph name="Dcaron" xMin="73" yMin="0" xMax="1485" yMax="1971">
      <component glyphName="D" x="1" y="0" flags="0x0"/>
      <component glyphName="Caron" x="270" y="0" flags="0x0"/>
    </TTGlyph>
    <TTGlyph name="Dcroat" xMin="50" yMin="0" xMax="1486" yMax="1436">
      <contour>
        <pt x="741" y="1436" on="1"/>
        <pt x="876" y="1436" on="0"/>
        <pt x="1093" y="1380" on="0"/>
        <pt x="1261" y="1280" on="0"/>
        <pt x="1381" y="1144" on="0"/>
        <pt x="1455" y="987" on="0"/>
        <pt x="1486" y="816" on="0"/>
        <pt x="1482" y="731" on="1"/>
        <pt x="1478" y="648" on="0"/>
        <pt x="1432" y="475" on="0"/>
        <pt x="1344" y="312" on="0"/>
        <pt x="1211" y="169" on="0"/>
        <pt x="1031" y="62" on="0"/>
        <pt x="799" y="0" on="0"/>
        <pt x="656" y="0" on="1"/>
        <pt x="74" y="0" on="1"/>
        <pt x="81" y="135" on="1"/>
        <pt x="115" y="137" on="0"/>
        <pt x="170" y="147" on="0"/>
        <pt x="210" y="181" on="0"/>
        <pt x="233" y="251" on="0"/>
        <pt x="236" y="313" on="1"/>
        <pt x="252" y="622" on="1"/>
        <pt x="50" y="618" on="1"/>
        <pt x="60" y="819" on="1"/>
        <pt x="262" y="819" on="1"/>
        <pt x="277" y="1098" on="1"/>
        <pt x="278" y="1126" on="0"/>
        <pt x="283" y="1180" on="0"/>
        <pt x="287" y="1229" on="0"/>
        <pt x="292" y="1269" on="0"/>
        <pt x="295" y="1282" on="1"/>
        <pt x="278" y="1281" on="0"/>
        <pt x="234" y="1279" on="0"/>
        <pt x="190" y="1277" on="0"/>
        <pt x="152" y="1276" on="0"/>
        <pt x="141" y="1276" on="1"/>
        <pt x="149" y="1436" on="1"/>
      </contour>
      <contour>
        <pt x="528" y="336" on="1"/>
        <pt x="527" y="308" on="0"/>
        <pt x="523" y="254" on="0"/>
        <pt x="519" y="205" on="0"/>
        <pt x="514" y="165" on="0"/>
        <pt x="511" y="152" on="1"/>
        <pt x="526" y="153" on="0"/>
        <pt x="577" y="153" on="0"/>
        <pt x="634" y="151" on="0"/>
        <pt x="689" y="150" on="0"/>
        <pt x="707" y="150" on="1"/>
        <pt x="819" y="150" on="0"/>
        <pt x="985" y="241" on="0"/>
        <pt x="1097" y="392" on="0"/>
        <pt x="1157" y="586" on="0"/>
        <pt x="1162" y="688" on="1"/>
        <pt x="1170" y="845" on="0"/>
        <pt x="1117" y="1073" on="0"/>
        <pt x="1004" y="1222" on="0"/>
        <pt x="836" y="1296" on="0"/>
        <pt x="730" y="1299" on="1"/>
        <pt x="692" y="1300" on="0"/>
        <pt x="635" y="1290" on="0"/>
        <pt x="595" y="1254" on="0"/>
        <pt x="573" y="1184" on="0"/>
        <pt x="570" y="1125" on="1"/>
        <pt x="553" y="819" on="1"/>
        <pt x="761" y="819" on="1"/>
        <pt x="751" y="632" on="1"/>
        <pt x="543" y="628" on="1"/>
      </contour>
    </TTGlyph>
    <TTGlyph name="Delta" xMin="10" yMin="0" xMax="1313" yMax="1467">
      <contour>
        <pt x="797" y="1467" on="1"/>
        <pt x="1313" y="0" on="1"/>
        <pt x="10" y="0" on="1"/>
        <pt x="646" y="1467" on="1"/>
      </contour>
      <contour>
        <pt x="242" y="146" on="1"/>
        <pt x="1005" y="143" on="1"/>
        <pt x="658" y="1149" on="1"/>
      </contour>
    </TTGlyph>
    <TTGlyph name="Dieresis" xMin="93" yMin="1632" xMax="713" yMax="1943">
      <contour>
        <pt x="216" y="1632" on="1"/>
        <pt x="189" y="1632" on="0"/>
        <pt x="144" y="1654" on="0"/>
        <pt x="111" y="1693" on="0"/>
        <pt x="93" y="1746" on="0"/>
        <pt x="93" y="1777" on="1"/>
        <pt x="93" y="1811" on="0"/>
        <pt x="116" y="1871" on="0"/>
        <pt x="155" y="1916" on="0"/>
        <pt x="207" y="1943" on="0"/>
        <pt x="235" y="1943" on="1"/>
        <pt x="262" y="1943" on="0"/>
        <pt x="307" y="1920" on="0"/>
        <pt x="339" y="1881" on="0"/>
        <pt x="356" y="1828" on="0"/>
        <pt x="356" y="1798" on="1"/>
        <pt x="356" y="1765" on="0"/>
        <pt x="334" y="1705" on="0"/>
        <pt x="296" y="1659" on="0"/>
        <pt x="245" y="1632" on="0"/>
      </contour>
      <contour>
        <pt x="573" y="1632" on="1"/>
        <pt x="546" y="1632" on="0"/>
        <pt x="501" y="1654" on="0"/>
        <pt x="468" y="1693" on="0"/>
        <pt x="450" y="1746" on="0"/>
        <pt x="450" y="1777" on="1"/>
        <pt x="450" y="1811" on="0"/>
        <pt x="473" y="1871" on="0"/>
        <pt x="512" y="1916" on="0"/>
        <pt x="564" y="1943" on="0"/>
        <pt x="592" y="1943" on="1"/>
        <pt x="619" y="1943" on="0"/>
        <pt x="664" y="1920" on="0"/>
        <pt x="696" y="1881" on="0"/>
        <pt x="713" y="1828" on="0"/>
        <pt x="713" y="1798" on="1"/>
        <pt x="713" y="1765" on="0"/>
        <pt x="691" y="1704" on="0"/>
        <pt x="653" y="1659" on="0"/>
        <pt x="602" y="1632" on="0"/>
      </contour>
    </TTGlyph>
    <TTGlyph name="E" xMin="72" yMin="0" xMax="1184" yMax="1434">
      <contour>
        <pt x="544" y="672" on="1"/>
        <pt x="527" y="336" on="1"/>
        <pt x="525" y="308" on="0"/>
        <pt x="521" y="255" on="0"/>
        <pt x="517" y="207" on="0"/>
        <pt x="512" y="168" on="0"/>
        <pt x="509" y="155" on="1"/>
        <pt x="784" y="156" on="1"/>
        <pt x="829" y="156" on="0"/>
        <pt x="920" y="186" on="0"/>
        <pt x="995" y="255" on="0"/>
        <pt x="1044" y="368" on="0"/>
        <pt x="1049" y="451" on="1"/>
        <pt x="1184" y="451" on="1"/>
        <pt x="1148" y="0" on="1"/>
        <pt x="72" y="0" on="1"/>
        <pt x="79" y="135" on="1"/>
        <pt x="113" y="137" on="0"/>
        <pt x="168" y="147" on="0"/>
        <pt x="208" y="181" on="0"/>
        <pt x="231" y="251" on="0"/>
        <pt x="234" y="313" on="1"/>
        <pt x="275" y="1098" on="1"/>
        <pt x="276" y="1126" on="0"/>
        <pt x="281" y="1180" on="0"/>
        <pt x="285" y="1229" on="0"/>
        <pt x="290" y="1269" on="0"/>
        <pt x="293" y="1282" on="1"/>
        <pt x="139" y="1276" on="1"/>
        <pt x="147" y="1434" on="1"/>
        <pt x="1167" y="1434" on="1"/>
        <pt x="1158" y="1037" on="1"/>
        <pt x="1023" y="1037" on="1"/>
        <pt x="1027" y="1120" on="0"/>
        <pt x="986" y="1224" on="0"/>
        <pt x="917" y="1282" on="0"/>
        <pt x="830" y="1302" on="0"/>
        <pt x="788" y="1301" on="1"/>
        <pt x="714" y="1299" on="1"/>
        <pt x="682" y="1298" on="0"/>
        <pt x="630" y="1287" on="0"/>
        <pt x="593" y="1251" on="0"/>
        <pt x="571" y="1181" on="0"/>
        <pt x="568" y="1121" on="1"/>
        <pt x="552" y="814" on="1"/>
        <pt x="793" y="814" on="1"/>
        <pt x="793" y="991" on="1"/>
        <pt x="951" y="991" on="1"/>
        <pt x="925" y="493" on="1"/>
        <pt x="790" y="493" on="1"/>
        <pt x="793" y="557" on="0"/>
        <pt x="765" y="631" on="0"/>
        <pt x="713" y="667" on="0"/>
        <pt x="640" y="674" on="0"/>
        <pt x="598" y="673" on="1"/>
      </contour>
    </TTGlyph>
    <TTGlyph name="Eacute" xMin="72" yMin="0" xMax="1184" yMax="1975">
      <component glyphName="E" x="0" y="0" flags="0x204"/>
      <component glyphName="Acute" x="486" y="0" flags="0x4"/>
    </TTGlyph>
    <TTGlyph name="Ecaron" xMin="73" yMin="0" xMax="1185" yMax="1971">
      <component glyphName="E" x="1" y="0" flags="0x0"/>
      <component glyphName="Caron" x="210" y="0" flags="0x0"/>
    </TTGlyph>
    <TTGlyph name="Ecircumflex" xMin="72" yMin="0" xMax="1184" yMax="1988">
      <component glyphName="E" x="0" y="0" flags="0x204"/>
      <component glyphName="Circumflex" x="214" y="0" flags="0x4"/>
    </TTGlyph>
    <TTGlyph name="Edieresis" xMin="72" yMin="0" xMax="1184" yMax="1943">
      <component glyphName="E" x="0" y="0" flags="0x204"/>
      <component glyphName="Dieresis" x="344" y="0" flags="0x4"/>
    </TTGlyph>
    <TTGlyph name="Edotaccent" xMin="72" yMin="0" xMax="1184" yMax="1952">
      <component glyphName="E" x="0" y="0" flags="0x0"/>
      <component glyphName="period" x="482" y="1688" scalex="0.923095703125" scaley="0.922485351562" flags="0x0"/>
    </TTGlyph>
    <TTGlyph name="Egrave" xMin="72" yMin="0" xMax="1184" yMax="1975">
      <component glyphName="E" x="0" y="0" flags="0x204"/>
      <component glyphName="Grave" x="404" y="0" flags="0x4"/>
    </TTGlyph>
    <TTGlyph name="Emacron" xMin="72" yMin="0" xMax="1184" yMax="1888">
      <component glyphName="E" x="0" y="0" flags="0x0"/>
      <component glyphName="macron" x="347" y="410" flags="0x0"/>
    </TTGlyph>
    <TTGlyph name="Eogonek" xMin="72" yMin="-532" xMax="1184" yMax="1434">
      <contour>
        <pt x="1125" y="0" on="1"/>
        <pt x="1078" y="-21" on="0"/>
        <pt x="989" y="-79" on="0"/>
        <pt x="920" y="-147" on="0"/>
        <pt x="877" y="-224" on="0"/>
        <pt x="876" y="-264" on="1"/>
        <pt x="875" y="-301" on="0"/>
        <pt x="919" y="-346" on="0"/>
        <pt x="961" y="-346" on="1"/>
        <pt x="991" y="-346" on="0"/>
        <pt x="1058" y="-316" on="0"/>
        <pt x="1092" y="-287" on="1"/>
        <pt x="1159" y="-375" on="1"/>
        <pt x="1130" y="-411" on="0"/>
        <pt x="1063" y="-469" on="0"/>
        <pt x="992" y="-510" on="0"/>
        <pt x="917" y="-532" on="0"/>
        <pt x="881" y="-532" on="1"/>
        <pt x="834" y="-532" on="0"/>
        <pt x="757" y="-505" on="0"/>
        <pt x="702" y="-453" on="0"/>
        <pt x="673" y="-374" on="0"/>
        <pt x="676" y="-321" on="1"/>
        <pt x="679" y="-275" on="0"/>
        <pt x="711" y="-188" on="0"/>
        <pt x="766" y="-107" on="0"/>
        <pt x="841" y="-33" on="0"/>
        <pt x="885" y="0" on="1"/>
        <pt x="72" y="0" on="1"/>
        <pt x="79" y="135" on="1"/>
        <pt x="113" y="137" on="0"/>
        <pt x="168" y="147" on="0"/>
        <pt x="208" y="181" on="0"/>
        <pt x="231" y="251" on="0"/>
        <pt x="234" y="313" on="1"/>
        <pt x="275" y="1098" on="1"/>
        <pt x="276" y="1126" on="0"/>
        <pt x="281" y="1180" on="0"/>
        <pt x="285" y="1229" on="0"/>
        <pt x="290" y="1269" on="0"/>
        <pt x="293" y="1282" on="1"/>
        <pt x="276" y="1281" on="0"/>
        <pt x="232" y="1279" on="0"/>
        <pt x="188" y="1277" on="0"/>
        <pt x="150" y="1276" on="0"/>
        <pt x="139" y="1276" on="1"/>
        <pt x="147" y="1434" on="1"/>
        <pt x="1167" y="1434" on="1"/>
        <pt x="1158" y="1037" on="1"/>
        <pt x="1023" y="1037" on="1"/>
        <pt x="1027" y="1120" on="0"/>
        <pt x="986" y="1224" on="0"/>
        <pt x="917" y="1282" on="0"/>
        <pt x="830" y="1302" on="0"/>
        <pt x="788" y="1301" on="1"/>
        <pt x="714" y="1299" on="1"/>
        <pt x="682" y="1298" on="0"/>
        <pt x="630" y="1287" on="0"/>
        <pt x="593" y="1251" on="0"/>
        <pt x="571" y="1181" on="0"/>
        <pt x="568" y="1121" on="1"/>
        <pt x="552" y="814" on="1"/>
        <pt x="793" y="814" on="1"/>
        <pt x="792" y="856" on="0"/>
        <pt x="793" y="953" on="0"/>
        <pt x="793" y="991" on="1"/>
        <pt x="951" y="991" on="1"/>
        <pt x="925" y="493" on="1"/>
        <pt x="790" y="493" on="1"/>
        <pt x="793" y="557" on="0"/>
        <pt x="765" y="631" on="0"/>
        <pt x="713" y="666" on="0"/>
        <pt x="640" y="673" on="0"/>
        <pt x="598" y="672" on="1"/>
        <pt x="544" y="672" on="1"/>
        <pt x="527" y="336" on="1"/>
        <pt x="524" y="280" on="0"/>
        <pt x="514" y="182" on="0"/>
        <pt x="509" y="156" on="1"/>
        <pt x="784" y="156" on="1"/>
        <pt x="829" y="156" on="0"/>
        <pt x="920" y="186" on="0"/>
        <pt x="995" y="255" on="0"/>
        <pt x="1044" y="368" on="0"/>
        <pt x="1049" y="451" on="1"/>
        <pt x="1184" y="451" on="1"/>
        <pt x="1153" y="58" on="1"/>
        <pt x="1150" y="11" on="1"/>
        <pt x="1149" y="11" on="1"/>
        <pt x="1148" y="0" on="1"/>
      </contour>
    </TTGlyph>
    <TTGlyph name="Eth" xMin="48" yMin="0" xMax="1484" yMax="1436">
      <contour>
        <pt x="147" y="1434" on="1"/>
        <pt x="739" y="1436" on="1"/>
        <pt x="874" y="1436" on="0"/>
        <pt x="1091" y="1380" on="0"/>
        <pt x="1259" y="1280" on="0"/>
        <pt x="1379" y="1144" on="0"/>
        <pt x="1453" y="987" on="0"/>
        <pt x="1484" y="816" on="0"/>
        <pt x="1480" y="731" on="1"/>
        <pt x="1476" y="648" on="0"/>
        <pt x="1430" y="475" on="0"/>
        <pt x="1342" y="312" on="0"/>
        <pt x="1209" y="169" on="0"/>
        <pt x="1029" y="62" on="0"/>
        <pt x="797" y="0" on="0"/>
        <pt x="654" y="0" on="1"/>
        <pt x="72" y="0" on="1"/>
        <pt x="79" y="135" on="1"/>
        <pt x="113" y="137" on="0"/>
        <pt x="168" y="147" on="0"/>
        <pt x="208" y="181" on="0"/>
        <pt x="231" y="251" on="0"/>
        <pt x="234" y="313" on="1"/>
        <pt x="250" y="622" on="1"/>
        <pt x="48" y="618" on="1"/>
        <pt x="58" y="819" on="1"/>
        <pt x="260" y="819" on="1"/>
        <pt x="275" y="1098" on="1"/>
        <pt x="276" y="1126" on="0"/>
        <pt x="281" y="1180" on="0"/>
        <pt x="285" y="1229" on="0"/>
        <pt x="290" y="1269" on="0"/>
        <pt x="293" y="1282" on="1"/>
        <pt x="276" y="1281" on="0"/>
        <pt x="232" y="1279" on="0"/>
        <pt x="188" y="1277" on="0"/>
        <pt x="150" y="1276" on="0"/>
        <pt x="139" y="1276" on="1"/>
      </contour>
      <contour>
        <pt x="728" y="1299" on="1"/>
        <pt x="690" y="1300" on="0"/>
        <pt x="633" y="1290" on="0"/>
        <pt x="593" y="1254" on="0"/>
        <pt x="571" y="1184" on="0"/>
        <pt x="568" y="1125" on="1"/>
        <pt x="551" y="819" on="1"/>
        <pt x="759" y="819" on="1"/>
        <pt x="749" y="632" on="1"/>
        <pt x="541" y="628" on="1"/>
        <pt x="526" y="336" on="1"/>
        <pt x="525" y="308" on="0"/>
        <pt x="521" y="254" on="0"/>
        <pt x="517" y="205" on="0"/>
        <pt x="512" y="165" on="0"/>
        <pt x="509" y="152" on="1"/>
        <pt x="524" y="153" on="0"/>
        <pt x="575" y="153" on="0"/>
        <pt x="632" y="151" on="0"/>
        <pt x="687" y="150" on="0"/>
        <pt x="705" y="150" on="1"/>
        <pt x="817" y="150" on="0"/>
        <pt x="983" y="241" on="0"/>
        <pt x="1095" y="392" on="0"/>
        <pt x="1155" y="586" on="0"/>
        <pt x="1160" y="688" on="1"/>
        <pt x="1168" y="845" on="0"/>
        <pt x="1115" y="1073" on="0"/>
        <pt x="1002" y="1222" on="0"/>
        <pt x="834" y="1296" on="0"/>
      </contour>
    </TTGlyph>
    <TTGlyph name="Euro" xMin="60" yMin="-33" xMax="1543" yMax="1467">
      <contour>
        <pt x="1131" y="631" on="1"/>
        <pt x="1022" y="478" on="1"/>
        <pt x="571" y="476" on="1"/>
        <pt x="607" y="306" on="0"/>
        <pt x="813" y="133" on="0"/>
        <pt x="969" y="133" on="1"/>
        <pt x="1033" y="133" on="0"/>
        <pt x="1166" y="166" on="0"/>
        <pt x="1293" y="229" on="0"/>
        <pt x="1408" y="321" on="0"/>
        <pt x="1454" y="380" on="1"/>
        <pt x="1543" y="295" on="1"/>
        <pt x="1463" y="191" on="0"/>
        <pt x="1292" y="63" on="0"/>
        <pt x="1127" y="-8" on="0"/>
        <pt x="973" y="-33" on="0"/>
        <pt x="910" y="-33" on="1"/>
        <pt x="782" y="-33" on="0"/>
        <pt x="570" y="42" on="0"/>
        <pt x="410" y="177" on="0"/>
        <pt x="303" y="364" on="0"/>
        <pt x="279" y="475" on="1"/>
        <pt x="60" y="474" on="1"/>
        <pt x="106" y="634" on="1"/>
        <pt x="261" y="633" on="1"/>
        <pt x="260" y="663" on="0"/>
        <pt x="264" y="724" on="0"/>
        <pt x="266" y="754" on="1"/>
        <pt x="74" y="754" on="1"/>
        <pt x="121" y="914" on="1"/>
        <pt x="300" y="913" on="1"/>
        <pt x="333" y="1024" on="0"/>
        <pt x="452" y="1225" on="0"/>
        <pt x="628" y="1377" on="0"/>
        <pt x="859" y="1467" on="0"/>
        <pt x="1003" y="1467" on="1"/>
        <pt x="1084" y="1467" on="0"/>
        <pt x="1260" y="1420" on="0"/>
        <pt x="1340" y="1366" on="1"/>
        <pt x="1342" y="1366" on="1"/>
        <pt x="1349" y="1453" on="1"/>
        <pt x="1507" y="1453" on="1"/>
        <pt x="1434" y="1004" on="1"/>
        <pt x="1300" y="1004" on="1"/>
        <pt x="1306" y="1155" on="0"/>
        <pt x="1166" y="1317" on="0"/>
        <pt x="1022" y="1318" on="1"/>
        <pt x="937" y="1318" on="0"/>
        <pt x="796" y="1254" on="0"/>
        <pt x="685" y="1144" on="0"/>
        <pt x="606" y="996" on="0"/>
        <pt x="583" y="913" on="1"/>
        <pt x="1270" y="911" on="1"/>
        <pt x="1165" y="758" on="1"/>
        <pt x="555" y="755" on="1"/>
        <pt x="551" y="724" on="0"/>
        <pt x="548" y="663" on="0"/>
        <pt x="553" y="632" on="1"/>
      </contour>
    </TTGlyph>
    <TTGlyph name="F" xMin="72" yMin="0" xMax="1167" yMax="1434">
      <contour>
        <pt x="542" y="622" on="1"/>
        <pt x="527" y="336" on="1"/>
        <pt x="525" y="308" on="0"/>
        <pt x="521" y="254" on="0"/>
        <pt x="517" y="205" on="0"/>
        <pt x="512" y="165" on="0"/>
        <pt x="509" y="152" on="1"/>
        <pt x="691" y="158" on="1"/>
        <pt x="683" y="0" on="1"/>
        <pt x="72" y="0" on="1"/>
        <pt x="79" y="135" on="1"/>
        <pt x="113" y="137" on="0"/>
        <pt x="168" y="147" on="0"/>
        <pt x="208" y="181" on="0"/>
        <pt x="231" y="251" on="0"/>
        <pt x="234" y="313" on="1"/>
        <pt x="275" y="1098" on="1"/>
        <pt x="276" y="1126" on="0"/>
        <pt x="281" y="1180" on="0"/>
        <pt x="285" y="1229" on="0"/>
        <pt x="290" y="1269" on="0"/>
        <pt x="293" y="1282" on="1"/>
        <pt x="139" y="1276" on="1"/>
        <pt x="147" y="1434" on="1"/>
        <pt x="1167" y="1434" on="1"/>
        <pt x="1158" y="1037" on="1"/>
        <pt x="1023" y="1037" on="1"/>
        <pt x="1027" y="1120" on="0"/>
        <pt x="986" y="1224" on="0"/>
        <pt x="917" y="1282" on="0"/>
        <pt x="830" y="1302" on="0"/>
        <pt x="788" y="1301" on="1"/>
        <pt x="714" y="1299" on="1"/>
        <pt x="682" y="1298" on="0"/>
        <pt x="630" y="1287" on="0"/>
        <pt x="593" y="1251" on="0"/>
        <pt x="571" y="1181" on="0"/>
        <pt x="568" y="1121" on="1"/>
        <pt x="549" y="764" on="1"/>
        <pt x="761" y="764" on="1"/>
        <pt x="761" y="941" on="1"/>
        <pt x="919" y="941" on="1"/>
        <pt x="893" y="443" on="1"/>
        <pt x="758" y="443" on="1"/>
        <pt x="761" y="507" on="0"/>
        <pt x="734" y="581" on="0"/>
        <pt x="681" y="617" on="0"/>
        <pt x="609" y="624" on="0"/>
        <pt x="567" y="623" on="1"/>
      </contour>
    </TTGlyph>
    <TTGlyph name="G" xMin="71" yMin="-33" xMax="1516" yMax="1467">
      <contour>
        <pt x="1347" y="69" on="1"/>
        <pt x="1297" y="69" on="1"/>
        <pt x="1238" y="69" on="0"/>
        <pt x="1119" y="37" on="0"/>
        <pt x="987" y="-1" on="0"/>
        <pt x="833" y="-33" on="0"/>
        <pt x="739" y="-33" on="1"/>
        <pt x="572" y="-33" on="0"/>
        <pt x="318" y="80" on="0"/>
        <pt x="150" y="277" on="0"/>
        <pt x="71" y="543" on="0"/>
        <pt x="79" y="696" on="1"/>
        <pt x="84" y="789" on="0"/>
        <pt x="133" y="976" on="0"/>
        <pt x="221" y="1147" on="0"/>
        <pt x="347" y="1295" on="0"/>
        <pt x="511" y="1405" on="0"/>
        <pt x="713" y="1467" on="0"/>
        <pt x="832" y="1467" on="1"/>
        <pt x="872" y="1467" on="0"/>
        <pt x="972" y="1454" on="0"/>
        <pt x="1076" y="1428" on="0"/>
        <pt x="1175" y="1391" on="0"/>
        <pt x="1215" y="1366" on="1"/>
        <pt x="1217" y="1366" on="1"/>
        <pt x="1214" y="1453" on="1"/>
        <pt x="1372" y="1453" on="1"/>
        <pt x="1347" y="974" on="1"/>
        <pt x="1213" y="974" on="1"/>
        <pt x="1204" y="1060" on="0"/>
        <pt x="1142" y="1189" on="0"/>
        <pt x="1047" y="1274" on="0"/>
        <pt x="923" y="1318" on="0"/>
        <pt x="851" y="1318" on="1"/>
        <pt x="744" y="1318" on="0"/>
        <pt x="580" y="1220" on="0"/>
        <pt x="466" y="1058" on="0"/>
        <pt x="404" y="849" on="0"/>
        <pt x="398" y="738" on="1"/>
        <pt x="391" y="605" on="0"/>
        <pt x="436" y="382" on="0"/>
        <pt x="537" y="220" on="0"/>
        <pt x="693" y="130" on="0"/>
        <pt x="798" y="130" on="1"/>
        <pt x="828" y="130" on="0"/>
        <pt x="906" y="137" on="0"/>
        <pt x="989" y="150" on="0"/>
        <pt x="1067" y="171" on="0"/>
        <pt x="1096" y="185" on="1"/>
        <pt x="1106" y="375" on="1"/>
        <pt x="1107" y="403" on="0"/>
        <pt x="1111" y="457" on="0"/>
        <pt x="1115" y="506" on="0"/>
        <pt x="1120" y="546" on="0"/>
        <pt x="1123" y="559" on="1"/>
        <pt x="969" y="553" on="1"/>
        <pt x="977" y="711" on="1"/>
        <pt x="1516" y="711" on="1"/>
        <pt x="1509" y="576" on="1"/>
        <pt x="1474" y="574" on="0"/>
        <pt x="1423" y="562" on="0"/>
        <pt x="1387" y="525" on="0"/>
        <pt x="1367" y="456" on="0"/>
        <pt x="1364" y="398" on="1"/>
      </contour>
    </TTGlyph>
    <TTGlyph name="Gamma" xMin="72" yMin="0" xMax="1167" yMax="1434">
      <contour>
        <pt x="1023" y="1037" on="1"/>
        <pt x="1027" y="1120" on="0"/>
        <pt x="986" y="1224" on="0"/>
        <pt x="917" y="1282" on="0"/>
        <pt x="830" y="1302" on="0"/>
        <pt x="788" y="1301" on="1"/>
        <pt x="714" y="1299" on="1"/>
        <pt x="682" y="1298" on="0"/>
        <pt x="630" y="1287" on="0"/>
        <pt x="593" y="1251" on="0"/>
        <pt x="571" y="1181" on="0"/>
        <pt x="568" y="1121" on="1"/>
        <pt x="527" y="336" on="1"/>
        <pt x="525" y="308" on="0"/>
        <pt x="521" y="254" on="0"/>
        <pt x="517" y="205" on="0"/>
        <pt x="512" y="165" on="0"/>
        <pt x="509" y="152" on="1"/>
        <pt x="525" y="153" on="0"/>
        <pt x="578" y="155" on="0"/>
        <pt x="633" y="156" on="0"/>
        <pt x="680" y="158" on="0"/>
        <pt x="691" y="158" on="1"/>
        <pt x="683" y="0" on="1"/>
        <pt x="72" y="0" on="1"/>
        <pt x="79" y="135" on="1"/>
        <pt x="113" y="137" on="0"/>
        <pt x="168" y="147" on="0"/>
        <pt x="208" y="181" on="0"/>
        <pt x="231" y="251" on="0"/>
        <pt x="234" y="313" on="1"/>
        <pt x="275" y="1098" on="1"/>
        <pt x="276" y="1126" on="0"/>
        <pt x="281" y="1180" on="0"/>
        <pt x="285" y="1229" on="0"/>
        <pt x="290" y="1269" on="0"/>
        <pt x="293" y="1282" on="1"/>
        <pt x="276" y="1281" on="0"/>
        <pt x="232" y="1279" on="0"/>
        <pt x="188" y="1277" on="0"/>
        <pt x="150" y="1276" on="0"/>
        <pt x="139" y="1276" on="1"/>
        <pt x="147" y="1434" on="1"/>
        <pt x="1167" y="1434" on="1"/>
        <pt x="1158" y="1037" on="1"/>
      </contour>
    </TTGlyph>
    <TTGlyph name="Gbreve" xMin="72" yMin="-33" xMax="1517" yMax="1912">
      <component glyphName="G" x="1" y="0" flags="0x0"/>
      <component glyphName="Breve" x="498" y="0" flags="0x0"/>
    </TTGlyph>
    <TTGlyph name="Gcommaaccent" xMin="72" yMin="-602" xMax="1517" yMax="1467">
      <component glyphName="G" x="1" y="0" flags="0x0"/>
      <component glyphName="commaaccentcomb" x="514" y="0" flags="0x0"/>
    </TTGlyph>
    <TTGlyph name="Grave" xMin="90" yMin="1576" xMax="538" yMax="1975">
      <contour>
        <pt x="171" y="1748" on="1"/>
        <pt x="147" y="1763" on="0"/>
        <pt x="109" y="1804" on="0"/>
        <pt x="90" y="1853" on="0"/>
        <pt x="96" y="1906" on="0"/>
        <pt x="117" y="1932" on="1"/>
        <pt x="137" y="1957" on="0"/>
        <pt x="189" y="1975" on="0"/>
        <pt x="243" y="1967" on="0"/>
        <pt x="295" y="1938" on="0"/>
        <pt x="315" y="1916" on="1"/>
        <pt x="538" y="1677" on="1"/>
        <pt x="459" y="1576" on="1"/>
      </contour>
    </TTGlyph>
    <TTGlyph name="H" xMin="72" yMin="0" xMax="1585" yMax="1434">
      <contour>
        <pt x="1382" y="336" on="1"/>
        <pt x="1380" y="308" on="0"/>
        <pt x="1376" y="254" on="0"/>
        <pt x="1372" y="205" on="0"/>
        <pt x="1367" y="165" on="0"/>
        <pt x="1364" y="152" on="1"/>
        <pt x="1518" y="158" on="1"/>
        <pt x="1510" y="0" on="1"/>
        <pt x="927" y="0" on="1"/>
        <pt x="934" y="135" on="1"/>
        <pt x="968" y="137" on="0"/>
        <pt x="1023" y="147" on="0"/>
        <pt x="1063" y="181" on="0"/>
        <pt x="1086" y="251" on="0"/>
        <pt x="1089" y="313" on="1"/>
        <pt x="1107" y="645" on="1"/>
        <pt x="542" y="638" on="1"/>
        <pt x="527" y="336" on="1"/>
        <pt x="525" y="308" on="0"/>
        <pt x="521" y="254" on="0"/>
        <pt x="517" y="205" on="0"/>
        <pt x="512" y="165" on="0"/>
        <pt x="509" y="152" on="1"/>
        <pt x="663" y="158" on="1"/>
        <pt x="655" y="0" on="1"/>
        <pt x="72" y="0" on="1"/>
        <pt x="79" y="135" on="1"/>
        <pt x="113" y="137" on="0"/>
        <pt x="168" y="147" on="0"/>
        <pt x="208" y="181" on="0"/>
        <pt x="231" y="251" on="0"/>
        <pt x="234" y="313" on="1"/>
        <pt x="275" y="1098" on="1"/>
        <pt x="276" y="1126" on="0"/>
        <pt x="281" y="1180" on="0"/>
        <pt x="285" y="1229" on="0"/>
        <pt x="290" y="1269" on="0"/>
        <pt x="293" y="1282" on="1"/>
        <pt x="139" y="1276" on="1"/>
        <pt x="147" y="1434" on="1"/>
        <pt x="730" y="1434" on="1"/>
        <pt x="723" y="1299" on="1"/>
        <pt x="688" y="1297" on="0"/>
        <pt x="634" y="1287" on="0"/>
        <pt x="594" y="1253" on="0"/>
        <pt x="571" y="1183" on="0"/>
        <pt x="568" y="1121" on="1"/>
        <pt x="551" y="800" on="1"/>
        <pt x="1115" y="800" on="1"/>
        <pt x="1130" y="1098" on="1"/>
        <pt x="1131" y="1126" on="0"/>
        <pt x="1136" y="1180" on="0"/>
        <pt x="1140" y="1229" on="0"/>
        <pt x="1145" y="1269" on="0"/>
        <pt x="1148" y="1282" on="1"/>
        <pt x="994" y="1276" on="1"/>
        <pt x="1002" y="1434" on="1"/>
        <pt x="1585" y="1434" on="1"/>
        <pt x="1578" y="1299" on="1"/>
        <pt x="1543" y="1297" on="0"/>
        <pt x="1489" y="1287" on="0"/>
        <pt x="1449" y="1253" on="0"/>
        <pt x="1426" y="1183" on="0"/>
        <pt x="1423" y="1121" on="1"/>
      </contour>
    </TTGlyph>
    <TTGlyph name="I" xMin="72" yMin="0" xMax="730" yMax="1434">
      <contour>
        <pt x="527" y="336" on="1"/>
        <pt x="525" y="308" on="0"/>
        <pt x="521" y="254" on="0"/>
        <pt x="517" y="205" on="0"/>
        <pt x="512" y="165" on="0"/>
        <pt x="509" y="152" on="1"/>
        <pt x="663" y="158" on="1"/>
        <pt x="655" y="0" on="1"/>
        <pt x="72" y="0" on="1"/>
        <pt x="79" y="135" on="1"/>
        <pt x="113" y="137" on="0"/>
        <pt x="168" y="147" on="0"/>
        <pt x="208" y="181" on="0"/>
        <pt x="231" y="251" on="0"/>
        <pt x="234" y="313" on="1"/>
        <pt x="275" y="1098" on="1"/>
        <pt x="276" y="1126" on="0"/>
        <pt x="281" y="1180" on="0"/>
        <pt x="285" y="1229" on="0"/>
        <pt x="290" y="1269" on="0"/>
        <pt x="293" y="1282" on="1"/>
        <pt x="139" y="1276" on="1"/>
        <pt x="147" y="1434" on="1"/>
        <pt x="730" y="1434" on="1"/>
        <pt x="723" y="1299" on="1"/>
        <pt x="688" y="1297" on="0"/>
        <pt x="634" y="1287" on="0"/>
        <pt x="594" y="1253" on="0"/>
        <pt x="571" y="1183" on="0"/>
        <pt x="568" y="1121" on="1"/>
      </contour>
    </TTGlyph>
    <TTGlyph name="Iacute" xMin="72" yMin="0" xMax="779" yMax="1975">
      <component glyphName="I" x="0" y="0" flags="0x4"/>
      <component glyphName="Acute" x="220" y="0" flags="0x4"/>
    </TTGlyph>
    <TTGlyph name="Icircumflex" xMin="30" yMin="0" xMax="868" yMax="1988">
      <contour>
        <pt x="454" y="1988" on="1"/>
        <pt x="494" y="1988" on="1"/>
        <pt x="868" y="1681" on="1"/>
        <pt x="811" y="1596" on="1"/>
        <pt x="454" y="1775" on="1"/>
        <pt x="70" y="1599" on="1"/>
        <pt x="30" y="1681" on="1"/>
      </contour>
      <contour>
        <pt x="527" y="336" on="1"/>
        <pt x="525" y="308" on="0"/>
        <pt x="521" y="254" on="0"/>
        <pt x="517" y="205" on="0"/>
        <pt x="512" y="165" on="0"/>
        <pt x="509" y="152" on="1"/>
        <pt x="663" y="158" on="1"/>
        <pt x="655" y="0" on="1"/>
        <pt x="72" y="0" on="1"/>
        <pt x="79" y="135" on="1"/>
        <pt x="113" y="137" on="0"/>
        <pt x="168" y="147" on="0"/>
        <pt x="208" y="181" on="0"/>
        <pt x="231" y="251" on="0"/>
        <pt x="234" y="313" on="1"/>
        <pt x="275" y="1098" on="1"/>
        <pt x="276" y="1126" on="0"/>
        <pt x="281" y="1180" on="0"/>
        <pt x="285" y="1229" on="0"/>
        <pt x="290" y="1269" on="0"/>
        <pt x="293" y="1282" on="1"/>
        <pt x="276" y="1281" on="0"/>
        <pt x="232" y="1279" on="0"/>
        <pt x="188" y="1277" on="0"/>
        <pt x="150" y="1276" on="0"/>
        <pt x="139" y="1276" on="1"/>
        <pt x="147" y="1434" on="1"/>
        <pt x="730" y="1434" on="1"/>
        <pt x="723" y="1299" on="1"/>
        <pt x="688" y="1297" on="0"/>
        <pt x="634" y="1287" on="0"/>
        <pt x="594" y="1253" on="0"/>
        <pt x="571" y="1183" on="0"/>
        <pt x="568" y="1121" on="1"/>
      </contour>
    </TTGlyph>
    <TTGlyph name="Idieresis" xMin="72" yMin="0" xMax="775" yMax="1943">
      <component glyphName="I" x="0" y="0" flags="0x4"/>
      <component glyphName="Dieresis" x="62" y="0" flags="0x4"/>
    </TTGlyph>
    <TTGlyph name="Idotaccent" xMin="72" yMin="0" xMax="730" yMax="1951">
      <component glyphName="I" x="0" y="0" flags="0x0"/>
      <component glyphName="period" x="238" y="1687" scalex="0.923095703125" scaley="0.922485351562" flags="0x0"/>
    </TTGlyph>
    <TTGlyph name="Igrave" xMin="72" yMin="0" xMax="730" yMax="1975">
      <component glyphName="I" x="0" y="0" flags="0x204"/>
      <component glyphName="Grave" x="-5" y="0" flags="0x4"/>
    </TTGlyph>
    <TTGlyph name="Imacron" xMin="72" yMin="0" xMax="749" yMax="1888">
      <component glyphName="I" x="0" y="0" flags="0x0"/>
      <component glyphName="macron" x="66" y="410" flags="0x0"/>
    </TTGlyph>
    <TTGlyph name="Iogonek" xMin="72" yMin="-542" xMax="730" yMax="1434">
      <contour>
        <pt x="527" y="336" on="1"/>
        <pt x="525" y="308" on="0"/>
        <pt x="521" y="254" on="0"/>
        <pt x="517" y="205" on="0"/>
        <pt x="512" y="165" on="0"/>
        <pt x="509" y="152" on="1"/>
        <pt x="525" y="153" on="0"/>
        <pt x="570" y="155" on="0"/>
        <pt x="614" y="156" on="0"/>
        <pt x="652" y="158" on="0"/>
        <pt x="663" y="158" on="1"/>
        <pt x="655" y="0" on="1"/>
        <pt x="652" y="0" on="1"/>
        <pt x="602" y="-21" on="0"/>
        <pt x="505" y="-79" on="0"/>
        <pt x="429" y="-150" on="0"/>
        <pt x="381" y="-231" on="0"/>
        <pt x="380" y="-274" on="1"/>
        <pt x="379" y="-311" on="0"/>
        <pt x="423" y="-356" on="0"/>
        <pt x="465" y="-356" on="1"/>
        <pt x="495" y="-356" on="0"/>
        <pt x="562" y="-326" on="0"/>
        <pt x="596" y="-297" on="1"/>
        <pt x="663" y="-385" on="1"/>
        <pt x="634" y="-421" on="0"/>
        <pt x="567" y="-479" on="0"/>
        <pt x="496" y="-520" on="0"/>
        <pt x="421" y="-542" on="0"/>
        <pt x="385" y="-542" on="1"/>
        <pt x="338" y="-542" on="0"/>
        <pt x="261" y="-515" on="0"/>
        <pt x="206" y="-463" on="0"/>
        <pt x="177" y="-384" on="0"/>
        <pt x="180" y="-331" on="1"/>
        <pt x="183" y="-283" on="0"/>
        <pt x="218" y="-193" on="0"/>
        <pt x="277" y="-109" on="0"/>
        <pt x="356" y="-33" on="0"/>
        <pt x="403" y="0" on="1"/>
        <pt x="72" y="0" on="1"/>
        <pt x="79" y="135" on="1"/>
        <pt x="113" y="137" on="0"/>
        <pt x="168" y="147" on="0"/>
        <pt x="208" y="181" on="0"/>
        <pt x="231" y="251" on="0"/>
        <pt x="234" y="313" on="1"/>
        <pt x="275" y="1098" on="1"/>
        <pt x="276" y="1126" on="0"/>
        <pt x="281" y="1180" on="0"/>
        <pt x="285" y="1229" on="0"/>
        <pt x="290" y="1269" on="0"/>
        <pt x="293" y="1282" on="1"/>
        <pt x="276" y="1281" on="0"/>
        <pt x="232" y="1279" on="0"/>
        <pt x="188" y="1277" on="0"/>
        <pt x="150" y="1276" on="0"/>
        <pt x="139" y="1276" on="1"/>
        <pt x="147" y="1434" on="1"/>
        <pt x="730" y="1434" on="1"/>
        <pt x="723" y="1299" on="1"/>
        <pt x="688" y="1297" on="0"/>
        <pt x="634" y="1287" on="0"/>
        <pt x="594" y="1253" on="0"/>
        <pt x="571" y="1183" on="0"/>
        <pt x="568" y="1121" on="1"/>
      </contour>
    </TTGlyph>
    <TTGlyph name="J" xMin="-26" yMin="-33" xMax="902" yMax="1434">
      <contour>
        <pt x="708" y="521" on="1"/>
        <pt x="700" y="373" on="0"/>
        <pt x="635" y="163" on="0"/>
        <pt x="521" y="29" on="0"/>
        <pt x="360" y="-33" on="0"/>
        <pt x="257" y="-33" on="1"/>
        <pt x="197" y="-33" on="0"/>
        <pt x="92" y="0" on="0"/>
        <pt x="16" y="58" on="0"/>
        <pt x="-26" y="138" on="0"/>
        <pt x="-23" y="186" on="1"/>
        <pt x="-22" y="219" on="0"/>
        <pt x="0" y="279" on="0"/>
        <pt x="37" y="326" on="0"/>
        <pt x="91" y="355" on="0"/>
        <pt x="126" y="357" on="1"/>
        <pt x="165" y="359" on="0"/>
        <pt x="218" y="337" on="0"/>
        <pt x="252" y="299" on="0"/>
        <pt x="267" y="250" on="0"/>
        <pt x="267" y="224" on="1"/>
        <pt x="265" y="186" on="0"/>
        <pt x="245" y="148" on="1"/>
        <pt x="253" y="128" on="0"/>
        <pt x="294" y="114" on="0"/>
        <pt x="305" y="114" on="1"/>
        <pt x="349" y="114" on="0"/>
        <pt x="399" y="190" on="0"/>
        <pt x="404" y="277" on="1"/>
        <pt x="447" y="1098" on="1"/>
        <pt x="448" y="1126" on="0"/>
        <pt x="453" y="1180" on="0"/>
        <pt x="457" y="1229" on="0"/>
        <pt x="462" y="1269" on="0"/>
        <pt x="465" y="1282" on="1"/>
        <pt x="301" y="1276" on="1"/>
        <pt x="309" y="1434" on="1"/>
        <pt x="902" y="1434" on="1"/>
        <pt x="895" y="1299" on="1"/>
        <pt x="860" y="1297" on="0"/>
        <pt x="806" y="1287" on="0"/>
        <pt x="766" y="1253" on="0"/>
        <pt x="743" y="1183" on="0"/>
        <pt x="740" y="1121" on="1"/>
      </contour>
    </TTGlyph>
    <TTGlyph name="K" xMin="72" yMin="0" xMax="1425" yMax="1434">
      <contour>
        <pt x="551" y="809" on="1"/>
        <pt x="700" y="809" on="1"/>
        <pt x="932" y="1172" on="0"/>
        <pt x="972" y="1228" on="0"/>
        <pt x="1008" y="1271" on="0"/>
        <pt x="1022" y="1282" on="1"/>
        <pt x="1022" y="1284" on="1"/>
        <pt x="892" y="1276" on="1"/>
        <pt x="900" y="1434" on="1"/>
        <pt x="1401" y="1434" on="1"/>
        <pt x="1394" y="1299" on="1"/>
        <pt x="1359" y="1297" on="0"/>
        <pt x="1283" y="1282" on="0"/>
        <pt x="1200" y="1239" on="0"/>
        <pt x="1112" y="1157" on="0"/>
        <pt x="1066" y="1089" on="1"/>
        <pt x="854" y="775" on="1"/>
        <pt x="853" y="772" on="1"/>
        <pt x="893" y="747" on="0"/>
        <pt x="953" y="688" on="0"/>
        <pt x="975" y="654" on="1"/>
        <pt x="1168" y="357" on="1"/>
        <pt x="1197" y="313" on="0"/>
        <pt x="1259" y="234" on="0"/>
        <pt x="1323" y="174" on="0"/>
        <pt x="1390" y="137" on="0"/>
        <pt x="1425" y="135" on="1"/>
        <pt x="1418" y="0" on="1"/>
        <pt x="1105" y="0" on="1"/>
        <pt x="1093" y="1" on="0"/>
        <pt x="1045" y="43" on="0"/>
        <pt x="990" y="106" on="0"/>
        <pt x="935" y="178" on="0"/>
        <pt x="916" y="208" on="1"/>
        <pt x="729" y="503" on="1"/>
        <pt x="716" y="522" on="0"/>
        <pt x="687" y="564" on="0"/>
        <pt x="659" y="603" on="0"/>
        <pt x="630" y="636" on="0"/>
        <pt x="617" y="646" on="1"/>
        <pt x="543" y="645" on="1"/>
        <pt x="527" y="336" on="1"/>
        <pt x="525" y="308" on="0"/>
        <pt x="521" y="254" on="0"/>
        <pt x="517" y="205" on="0"/>
        <pt x="512" y="165" on="0"/>
        <pt x="509" y="152" on="1"/>
        <pt x="663" y="158" on="1"/>
        <pt x="655" y="0" on="1"/>
        <pt x="72" y="0" on="1"/>
        <pt x="79" y="135" on="1"/>
        <pt x="113" y="137" on="0"/>
        <pt x="168" y="147" on="0"/>
        <pt x="208" y="181" on="0"/>
        <pt x="231" y="251" on="0"/>
        <pt x="234" y="313" on="1"/>
        <pt x="275" y="1098" on="1"/>
        <pt x="276" y="1126" on="0"/>
        <pt x="281" y="1180" on="0"/>
        <pt x="285" y="1229" on="0"/>
        <pt x="290" y="1269" on="0"/>
        <pt x="293" y="1282" on="1"/>
        <pt x="139" y="1276" on="1"/>
        <pt x="147" y="1434" on="1"/>
        <pt x="730" y="1434" on="1"/>
        <pt x="723" y="1299" on="1"/>
        <pt x="688" y="1297" on="0"/>
        <pt x="634" y="1287" on="0"/>
        <pt x="594" y="1253" on="0"/>
        <pt x="571" y="1183" on="0"/>
        <pt x="568" y="1121" on="1"/>
      </contour>
    </TTGlyph>
    <TTGlyph name="Kcommaaccent" xMin="73" yMin="-602" xMax="1426" yMax="1434">
      <component glyphName="K" x="1" y="0" flags="0x0"/>
      <component glyphName="commaaccentcomb" x="475" y="0" flags="0x0"/>
    </TTGlyph>
    <TTGlyph name="L" xMin="72" yMin="0" xMax="1197" yMax="1434">
      <contour>
        <pt x="72" y="0" on="1"/>
        <pt x="79" y="135" on="1"/>
        <pt x="113" y="137" on="0"/>
        <pt x="168" y="147" on="0"/>
        <pt x="208" y="181" on="0"/>
        <pt x="231" y="251" on="0"/>
        <pt x="234" y="313" on="1"/>
        <pt x="275" y="1098" on="1"/>
        <pt x="276" y="1126" on="0"/>
        <pt x="281" y="1180" on="0"/>
        <pt x="285" y="1229" on="0"/>
        <pt x="290" y="1269" on="0"/>
        <pt x="293" y="1282" on="1"/>
        <pt x="139" y="1276" on="1"/>
        <pt x="147" y="1434" on="1"/>
        <pt x="730" y="1434" on="1"/>
        <pt x="723" y="1299" on="1"/>
        <pt x="688" y="1297" on="0"/>
        <pt x="634" y="1287" on="0"/>
        <pt x="594" y="1253" on="0"/>
        <pt x="571" y="1183" on="0"/>
        <pt x="568" y="1121" on="1"/>
        <pt x="527" y="336" on="1"/>
        <pt x="525" y="308" on="0"/>
        <pt x="521" y="255" on="0"/>
        <pt x="517" y="207" on="0"/>
        <pt x="512" y="168" on="0"/>
        <pt x="509" y="155" on="1"/>
        <pt x="784" y="156" on="1"/>
        <pt x="905" y="157" on="0"/>
        <pt x="1052" y="324" on="0"/>
        <pt x="1061" y="491" on="1"/>
        <pt x="1197" y="491" on="1"/>
        <pt x="1159" y="0" on="1"/>
      </contour>
    </TTGlyph>
    <TTGlyph name="Lacute" xMin="72" yMin="0" xMax="1197" yMax="1975">
      <component glyphName="L" x="0" y="0" flags="0x0"/>
      <component glyphName="Acute" x="165" y="0" flags="0x0"/>
    </TTGlyph>
    <TTGlyph name="Lcaron" xMin="72" yMin="0" xMax="1197" yMax="1468">
      <contour>
        <pt x="1109" y="1434" on="1"/>
        <pt x="1129" y="1393" on="0"/>
        <pt x="1141" y="1335" on="0"/>
        <pt x="1137" y="1297" on="1"/>
        <pt x="1133" y="1253" on="0"/>
        <pt x="1100" y="1166" on="0"/>
        <pt x="1050" y="1083" on="0"/>
        <pt x="986" y="1006" on="0"/>
        <pt x="951" y="973" on="1"/>
        <pt x="872" y="1031" on="1"/>
        <pt x="909" y="1100" on="0"/>
        <pt x="946" y="1217" on="0"/>
        <pt x="955" y="1322" on="0"/>
        <pt x="940" y="1419" on="0"/>
        <pt x="927" y="1468" on="1"/>
      </contour>
      <contour>
        <pt x="723" y="1299" on="1"/>
        <pt x="688" y="1297" on="0"/>
        <pt x="634" y="1287" on="0"/>
        <pt x="594" y="1253" on="0"/>
        <pt x="571" y="1183" on="0"/>
        <pt x="568" y="1121" on="1"/>
        <pt x="527" y="336" on="1"/>
        <pt x="524" y="280" on="0"/>
        <pt x="514" y="182" on="0"/>
        <pt x="509" y="156" on="1"/>
        <pt x="784" y="156" on="1"/>
        <pt x="905" y="157" on="0"/>
        <pt x="1052" y="324" on="0"/>
        <pt x="1061" y="491" on="1"/>
        <pt x="1197" y="491" on="1"/>
        <pt x="1159" y="0" on="1"/>
        <pt x="72" y="0" on="1"/>
        <pt x="79" y="135" on="1"/>
        <pt x="113" y="137" on="0"/>
        <pt x="168" y="147" on="0"/>
        <pt x="208" y="181" on="0"/>
        <pt x="231" y="251" on="0"/>
        <pt x="234" y="313" on="1"/>
        <pt x="275" y="1098" on="1"/>
        <pt x="276" y="1126" on="0"/>
        <pt x="281" y="1180" on="0"/>
        <pt x="285" y="1229" on="0"/>
        <pt x="290" y="1269" on="0"/>
        <pt x="293" y="1282" on="1"/>
        <pt x="276" y="1281" on="0"/>
        <pt x="232" y="1279" on="0"/>
        <pt x="188" y="1277" on="0"/>
        <pt x="150" y="1276" on="0"/>
        <pt x="139" y="1276" on="1"/>
        <pt x="147" y="1434" on="1"/>
        <pt x="730" y="1434" on="1"/>
      </contour>
    </TTGlyph>
    <TTGlyph name="Lcommaaccent" xMin="73" yMin="-602" xMax="1198" yMax="1434">
      <component glyphName="L" x="1" y="0" flags="0x0"/>
      <component glyphName="commaaccentcomb" x="344" y="0" flags="0x0"/>
    </TTGlyph>
    <TTGlyph name="Lslash" xMin="74" yMin="0" xMax="1199" yMax="1434">
      <contour>
        <pt x="74" y="0" on="1"/>
        <pt x="81" y="135" on="1"/>
        <pt x="115" y="137" on="0"/>
        <pt x="170" y="147" on="0"/>
        <pt x="210" y="181" on="0"/>
        <pt x="233" y="251" on="0"/>
        <pt x="236" y="313" on="1"/>
        <pt x="245" y="485" on="1"/>
        <pt x="83" y="369" on="1"/>
        <pt x="95" y="598" on="1"/>
        <pt x="257" y="714" on="1"/>
        <pt x="277" y="1098" on="1"/>
        <pt x="278" y="1126" on="0"/>
        <pt x="283" y="1180" on="0"/>
        <pt x="287" y="1229" on="0"/>
        <pt x="292" y="1269" on="0"/>
        <pt x="295" y="1282" on="1"/>
        <pt x="278" y="1281" on="0"/>
        <pt x="141" y="1276" on="1"/>
        <pt x="149" y="1434" on="1"/>
        <pt x="732" y="1434" on="1"/>
        <pt x="725" y="1299" on="1"/>
        <pt x="690" y="1297" on="0"/>
        <pt x="636" y="1287" on="0"/>
        <pt x="596" y="1253" on="0"/>
        <pt x="573" y="1183" on="0"/>
        <pt x="570" y="1121" on="1"/>
        <pt x="560" y="930" on="1"/>
        <pt x="724" y="1048" on="1"/>
        <pt x="712" y="822" on="1"/>
        <pt x="548" y="704" on="1"/>
        <pt x="529" y="336" on="1"/>
        <pt x="527" y="308" on="0"/>
        <pt x="523" y="255" on="0"/>
        <pt x="519" y="207" on="0"/>
        <pt x="514" y="168" on="0"/>
        <pt x="511" y="155" on="1"/>
        <pt x="786" y="156" on="1"/>
        <pt x="907" y="157" on="0"/>
        <pt x="1054" y="324" on="0"/>
        <pt x="1063" y="491" on="1"/>
        <pt x="1199" y="491" on="1"/>
        <pt x="1161" y="0" on="1"/>
      </contour>
    </TTGlyph>
    <TTGlyph name="M" xMin="65" yMin="-20" xMax="1916" yMax="1434">
      <contour>
        <pt x="1467" y="1110" on="1"/>
        <pt x="998" y="-20" on="1"/>
        <pt x="813" y="-20" on="1"/>
        <pt x="563" y="654" on="1"/>
        <pt x="552" y="682" on="0"/>
        <pt x="521" y="782" on="0"/>
        <pt x="487" y="902" on="0"/>
        <pt x="454" y="1034" on="0"/>
        <pt x="443" y="1096" on="1"/>
        <pt x="441" y="1096" on="1"/>
        <pt x="437" y="991" on="0"/>
        <pt x="432" y="799" on="0"/>
        <pt x="426" y="706" on="1"/>
        <pt x="404" y="336" on="1"/>
        <pt x="402" y="308" on="0"/>
        <pt x="398" y="254" on="0"/>
        <pt x="393" y="205" on="0"/>
        <pt x="388" y="165" on="0"/>
        <pt x="385" y="152" on="1"/>
        <pt x="541" y="158" on="1"/>
        <pt x="532" y="0" on="1"/>
        <pt x="65" y="0" on="1"/>
        <pt x="73" y="135" on="1"/>
        <pt x="107" y="137" on="0"/>
        <pt x="161" y="147" on="0"/>
        <pt x="200" y="181" on="0"/>
        <pt x="223" y="251" on="0"/>
        <pt x="228" y="313" on="1"/>
        <pt x="281" y="1098" on="1"/>
        <pt x="283" y="1126" on="0"/>
        <pt x="287" y="1180" on="0"/>
        <pt x="292" y="1229" on="0"/>
        <pt x="297" y="1269" on="0"/>
        <pt x="300" y="1282" on="1"/>
        <pt x="144" y="1276" on="1"/>
        <pt x="153" y="1434" on="1"/>
        <pt x="592" y="1434" on="1"/>
        <pt x="873" y="638" on="1"/>
        <pt x="907" y="543" on="0"/>
        <pt x="950" y="382" on="0"/>
        <pt x="970" y="308" on="1"/>
        <pt x="972" y="308" on="1"/>
        <pt x="1002" y="379" on="0"/>
        <pt x="1058" y="521" on="0"/>
        <pt x="1086" y="587" on="1"/>
        <pt x="1439" y="1434" on="1"/>
        <pt x="1916" y="1434" on="1"/>
        <pt x="1909" y="1299" on="1"/>
        <pt x="1874" y="1297" on="0"/>
        <pt x="1817" y="1287" on="0"/>
        <pt x="1777" y="1253" on="0"/>
        <pt x="1754" y="1183" on="0"/>
        <pt x="1753" y="1121" on="1"/>
        <pt x="1743" y="336" on="1"/>
        <pt x="1743" y="308" on="0"/>
        <pt x="1739" y="254" on="0"/>
        <pt x="1734" y="205" on="0"/>
        <pt x="1728" y="165" on="0"/>
        <pt x="1725" y="152" on="1"/>
        <pt x="1880" y="158" on="1"/>
        <pt x="1871" y="0" on="1"/>
        <pt x="1298" y="0" on="1"/>
        <pt x="1306" y="135" on="1"/>
        <pt x="1340" y="137" on="0"/>
        <pt x="1397" y="147" on="0"/>
        <pt x="1437" y="181" on="0"/>
        <pt x="1460" y="251" on="0"/>
        <pt x="1461" y="313" on="1"/>
        <pt x="1467" y="747" on="1"/>
        <pt x="1467" y="765" on="0"/>
        <pt x="1468" y="848" on="0"/>
        <pt x="1468" y="952" on="0"/>
        <pt x="1469" y="1063" on="0"/>
        <pt x="1469" y="1110" on="1"/>
      </contour>
    </TTGlyph>
    <TTGlyph name="N" xMin="74" yMin="-20" xMax="1557" yMax="1434">
      <contour>
        <pt x="1334" y="-20" on="1"/>
        <pt x="1160" y="-20" on="1"/>
        <pt x="549" y="822" on="1"/>
        <pt x="525" y="856" on="0"/>
        <pt x="471" y="933" on="0"/>
        <pt x="445" y="975" on="1"/>
        <pt x="443" y="975" on="1"/>
        <pt x="413" y="336" on="1"/>
        <pt x="411" y="308" on="0"/>
        <pt x="407" y="254" on="0"/>
        <pt x="403" y="205" on="0"/>
        <pt x="398" y="165" on="0"/>
        <pt x="395" y="152" on="1"/>
        <pt x="550" y="158" on="1"/>
        <pt x="541" y="0" on="1"/>
        <pt x="74" y="0" on="1"/>
        <pt x="82" y="135" on="1"/>
        <pt x="116" y="137" on="0"/>
        <pt x="171" y="147" on="0"/>
        <pt x="210" y="181" on="0"/>
        <pt x="234" y="251" on="0"/>
        <pt x="237" y="313" on="1"/>
        <pt x="273" y="1098" on="1"/>
        <pt x="274" y="1126" on="0"/>
        <pt x="279" y="1180" on="0"/>
        <pt x="283" y="1229" on="0"/>
        <pt x="288" y="1269" on="0"/>
        <pt x="291" y="1282" on="1"/>
        <pt x="136" y="1276" on="1"/>
        <pt x="145" y="1434" on="1"/>
        <pt x="466" y="1434" on="1"/>
        <pt x="1099" y="574" on="0"/>
        <pt x="1160" y="479" on="0"/>
        <pt x="1183" y="444" on="1"/>
        <pt x="1185" y="444" on="1"/>
        <pt x="1219" y="1098" on="1"/>
        <pt x="1220" y="1126" on="0"/>
        <pt x="1225" y="1180" on="0"/>
        <pt x="1229" y="1229" on="0"/>
        <pt x="1234" y="1269" on="0"/>
        <pt x="1237" y="1282" on="1"/>
        <pt x="1082" y="1276" on="1"/>
        <pt x="1091" y="1434" on="1"/>
        <pt x="1557" y="1434" on="1"/>
        <pt x="1550" y="1299" on="1"/>
        <pt x="1515" y="1297" on="0"/>
        <pt x="1460" y="1287" on="0"/>
        <pt x="1421" y="1253" on="0"/>
        <pt x="1397" y="1183" on="0"/>
        <pt x="1394" y="1121" on="1"/>
      </contour>
    </TTGlyph>
    <TTGlyph name="Nacute" xMin="74" yMin="-20" xMax="1557" yMax="1975">
      <component glyphName="N" x="0" y="0" flags="0x0"/>
      <component glyphName="Acute" x="605" y="0" flags="0x0"/>
    </TTGlyph>
    <TTGlyph name="Ncaron" xMin="75" yMin="-20" xMax="1558" yMax="1971">
      <component glyphName="N" x="1" y="0" flags="0x0"/>
      <component glyphName="Caron" x="420" y="0" flags="0x0"/>
    </TTGlyph>
    <TTGlyph name="Ncommaaccent" xMin="75" yMin="-602" xMax="1558" yMax="1434">
      <component glyphName="N" x="1" y="0" flags="0x0"/>
      <component glyphName="commaaccentcomb" x="501" y="0" flags="0x0"/>
    </TTGlyph>
    <TTGlyph name="Ntilde" xMin="74" yMin="-20" xMax="1557" yMax="1943">
      <component glyphName="N" x="0" y="0" flags="0x204"/>
      <component glyphName="Tilde" x="330" y="0" flags="0x4"/>
    </TTGlyph>
    <TTGlyph name="O" xMin="76" yMin="-33" xMax="1499" yMax="1467">
      <contour>
        <pt x="397" y="741" on="1"/>
        <pt x="393" y="677" on="0"/>
        <pt x="404" y="533" on="0"/>
        <pt x="436" y="392" on="0"/>
        <pt x="494" y="263" on="0"/>
        <pt x="580" y="164" on="0"/>
        <pt x="698" y="106" on="0"/>
        <pt x="776" y="107" on="1"/>
        <pt x="847" y="107" on="0"/>
        <pt x="960" y="158" on="0"/>
        <pt x="1047" y="244" on="0"/>
        <pt x="1111" y="358" on="0"/>
        <pt x="1154" y="486" on="0"/>
        <pt x="1177" y="619" on="0"/>
        <pt x="1180" y="682" on="1"/>
        <pt x="1187" y="823" on="0"/>
        <pt x="1149" y="1061" on="0"/>
        <pt x="1056" y="1234" on="0"/>
        <pt x="904" y="1330" on="0"/>
        <pt x="797" y="1327" on="1"/>
        <pt x="727" y="1325" on="0"/>
        <pt x="615" y="1272" on="0"/>
        <pt x="528" y="1184" on="0"/>
        <pt x="465" y="1068" on="0"/>
        <pt x="423" y="939" on="0"/>
        <pt x="400" y="804" on="0"/>
      </contour>
      <contour>
        <pt x="81" y="717" on="1"/>
        <pt x="85" y="803" on="0"/>
        <pt x="132" y="981" on="0"/>
        <pt x="219" y="1147" on="0"/>
        <pt x="343" y="1294" on="0"/>
        <pt x="508" y="1404" on="0"/>
        <pt x="711" y="1467" on="0"/>
        <pt x="832" y="1467" on="1"/>
        <pt x="956" y="1467" on="0"/>
        <pt x="1154" y="1403" on="0"/>
        <pt x="1304" y="1293" on="0"/>
        <pt x="1409" y="1146" on="0"/>
        <pt x="1474" y="980" on="0"/>
        <pt x="1499" y="802" on="0"/>
        <pt x="1495" y="717" on="1"/>
        <pt x="1491" y="632" on="0"/>
        <pt x="1443" y="455" on="0"/>
        <pt x="1358" y="289" on="0"/>
        <pt x="1234" y="141" on="0"/>
        <pt x="1070" y="31" on="0"/>
        <pt x="868" y="-33" on="0"/>
        <pt x="747" y="-33" on="1"/>
        <pt x="617" y="-33" on="0"/>
        <pt x="415" y="29" on="0"/>
        <pt x="264" y="136" on="0"/>
        <pt x="161" y="281" on="0"/>
        <pt x="99" y="448" on="0"/>
        <pt x="76" y="628" on="0"/>
      </contour>
    </TTGlyph>
    <TTGlyph name="OE" xMin="71" yMin="-34" xMax="1986" yMax="1467">
      <contour>
        <pt x="1346" y="672" on="1"/>
        <pt x="1329" y="336" on="1"/>
        <pt x="1327" y="308" on="0"/>
        <pt x="1323" y="255" on="0"/>
        <pt x="1319" y="207" on="0"/>
        <pt x="1314" y="168" on="0"/>
        <pt x="1311" y="155" on="1"/>
        <pt x="1586" y="156" on="1"/>
        <pt x="1631" y="156" on="0"/>
        <pt x="1722" y="186" on="0"/>
        <pt x="1797" y="255" on="0"/>
        <pt x="1846" y="368" on="0"/>
        <pt x="1851" y="451" on="1"/>
        <pt x="1986" y="451" on="1"/>
        <pt x="1950" y="0" on="1"/>
        <pt x="1038" y="0" on="1"/>
        <pt x="963" y="-21" on="0"/>
        <pt x="809" y="-34" on="0"/>
        <pt x="742" y="-33" on="1"/>
        <pt x="584" y="-31" on="0"/>
        <pt x="332" y="82" on="0"/>
        <pt x="158" y="276" on="0"/>
        <pt x="71" y="538" on="0"/>
        <pt x="79" y="691" on="1"/>
        <pt x="84" y="784" on="0"/>
        <pt x="130" y="972" on="0"/>
        <pt x="214" y="1144" on="0"/>
        <pt x="339" y="1294" on="0"/>
        <pt x="507" y="1404" on="0"/>
        <pt x="720" y="1467" on="0"/>
        <pt x="851" y="1467" on="1"/>
        <pt x="876" y="1467" on="0"/>
        <pt x="940" y="1463" on="0"/>
        <pt x="1010" y="1455" on="0"/>
        <pt x="1081" y="1443" on="0"/>
        <pt x="1113" y="1434" on="1"/>
        <pt x="1969" y="1434" on="1"/>
        <pt x="1960" y="1037" on="1"/>
        <pt x="1825" y="1037" on="1"/>
        <pt x="1829" y="1120" on="0"/>
        <pt x="1788" y="1224" on="0"/>
        <pt x="1719" y="1282" on="0"/>
        <pt x="1632" y="1302" on="0"/>
        <pt x="1590" y="1301" on="1"/>
        <pt x="1516" y="1299" on="1"/>
        <pt x="1484" y="1298" on="0"/>
        <pt x="1432" y="1287" on="0"/>
        <pt x="1395" y="1251" on="0"/>
        <pt x="1373" y="1181" on="0"/>
        <pt x="1370" y="1121" on="1"/>
        <pt x="1354" y="814" on="1"/>
        <pt x="1595" y="814" on="1"/>
        <pt x="1595" y="991" on="1"/>
        <pt x="1753" y="991" on="1"/>
        <pt x="1727" y="493" on="1"/>
        <pt x="1592" y="493" on="1"/>
        <pt x="1595" y="557" on="0"/>
        <pt x="1567" y="631" on="0"/>
        <pt x="1515" y="667" on="0"/>
        <pt x="1442" y="674" on="0"/>
        <pt x="1400" y="673" on="1"/>
      </contour>
      <contour>
        <pt x="801" y="132" on="1"/>
        <pt x="866" y="127" on="0"/>
        <pt x="975" y="141" on="0"/>
        <pt x="1028" y="160" on="1"/>
        <pt x="1077" y="1098" on="1"/>
        <pt x="1079" y="1144" on="0"/>
        <pt x="1087" y="1230" on="0"/>
        <pt x="1091" y="1259" on="1"/>
        <pt x="1040" y="1291" on="0"/>
        <pt x="913" y="1321" on="0"/>
        <pt x="841" y="1318" on="1"/>
        <pt x="730" y="1314" on="0"/>
        <pt x="568" y="1218" on="0"/>
        <pt x="460" y="1061" on="0"/>
        <pt x="403" y="859" on="0"/>
        <pt x="397" y="748" on="1"/>
        <pt x="390" y="615" on="0"/>
        <pt x="437" y="396" on="0"/>
        <pt x="540" y="235" on="0"/>
        <pt x="698" y="140" on="0"/>
      </contour>
    </TTGlyph>
    <TTGlyph name="Oacute" xMin="76" yMin="-33" xMax="1499" yMax="1975">
      <component glyphName="O" x="0" y="0" flags="0x204"/>
      <component glyphName="Acute" x="599" y="0" flags="0x4"/>
    </TTGlyph>
    <TTGlyph name="Ocircumflex" xMin="76" yMin="-33" xMax="1499" yMax="1988">
      <component glyphName="O" x="0" y="0" flags="0x204"/>
      <component glyphName="Circumflex" x="368" y="0" flags="0x4"/>
    </TTGlyph>
    <TTGlyph name="Odieresis" xMin="76" yMin="-33" xMax="1499" yMax="1943">
      <component glyphName="O" x="0" y="0" flags="0x204"/>
      <component glyphName="Dieresis" x="494" y="0" flags="0x4"/>
    </TTGlyph>
    <TTGlyph name="Ograve" xMin="76" yMin="-33" xMax="1499" yMax="1975">
      <component glyphName="O" x="0" y="0" flags="0x204"/>
      <component glyphName="Grave" x="497" y="0" flags="0x4"/>
    </TTGlyph>
    <TTGlyph name="Ohungarumlaut" xMin="77" yMin="-33" xMax="1500" yMax="2046">
      <component glyphName="O" x="1" y="0" flags="0x0"/>
      <component glyphName="hungarumlaut.case" x="464" y="0" flags="0x0"/>
    </TTGlyph>
    <TTGlyph name="Omacron" xMin="76" yMin="-33" xMax="1499" yMax="1888">
      <component glyphName="O" x="0" y="0" flags="0x0"/>
      <component glyphName="macron" x="527" y="410" flags="0x0"/>
    </TTGlyph>
    <TTGlyph name="Omega" xMin="74" yMin="0" xMax="1475" yMax="1467">
      <contour>
        <pt x="566" y="201" on="1"/>
        <pt x="462" y="226" on="0"/>
        <pt x="293" y="332" on="0"/>
        <pt x="173" y="479" on="0"/>
        <pt x="108" y="660" on="0"/>
        <pt x="108" y="760" on="1"/>
        <pt x="108" y="843" on="0"/>
        <pt x="152" y="1013" on="0"/>
        <pt x="237" y="1170" on="0"/>
        <pt x="360" y="1307" on="0"/>
        <pt x="519" y="1409" on="0"/>
        <pt x="712" y="1467" on="0"/>
        <pt x="824" y="1467" on="1"/>
        <pt x="933" y="1467" on="0"/>
        <pt x="1113" y="1418" on="0"/>
        <pt x="1256" y="1332" on="0"/>
        <pt x="1363" y="1214" on="0"/>
        <pt x="1433" y="1076" on="0"/>
        <pt x="1468" y="923" on="0"/>
        <pt x="1468" y="845" on="1"/>
        <pt x="1468" y="740" on="0"/>
        <pt x="1394" y="536" on="0"/>
        <pt x="1263" y="363" on="0"/>
        <pt x="1082" y="232" on="0"/>
        <pt x="974" y="201" on="1"/>
        <pt x="974" y="199" on="1"/>
        <pt x="1194" y="194" on="1"/>
        <pt x="1226" y="194" on="0"/>
        <pt x="1280" y="205" on="0"/>
        <pt x="1319" y="234" on="0"/>
        <pt x="1343" y="286" on="0"/>
        <pt x="1345" y="327" on="1"/>
        <pt x="1475" y="327" on="1"/>
        <pt x="1441" y="0" on="1"/>
        <pt x="799" y="0" on="1"/>
        <pt x="811" y="217" on="1"/>
        <pt x="884" y="232" on="0"/>
        <pt x="1018" y="332" on="0"/>
        <pt x="1120" y="488" on="0"/>
        <pt x="1181" y="694" on="0"/>
        <pt x="1181" y="816" on="1"/>
        <pt x="1181" y="912" on="0"/>
        <pt x="1145" y="1097" on="0"/>
        <pt x="1061" y="1241" on="0"/>
        <pt x="924" y="1329" on="0"/>
        <pt x="823" y="1329" on="1"/>
        <pt x="746" y="1329" on="0"/>
        <pt x="621" y="1278" on="0"/>
        <pt x="524" y="1190" on="0"/>
        <pt x="453" y="1072" on="0"/>
        <pt x="408" y="938" on="0"/>
        <pt x="386" y="795" on="0"/>
        <pt x="386" y="727" on="1"/>
        <pt x="386" y="614" on="0"/>
        <pt x="447" y="432" on="0"/>
        <pt x="544" y="301" on="0"/>
        <pt x="663" y="224" on="0"/>
        <pt x="722" y="217" on="1"/>
        <pt x="710" y="0" on="1"/>
        <pt x="74" y="0" on="1"/>
        <pt x="74" y="327" on="1"/>
        <pt x="204" y="327" on="1"/>
        <pt x="204" y="287" on="0"/>
        <pt x="219" y="236" on="0"/>
        <pt x="254" y="206" on="0"/>
        <pt x="311" y="194" on="0"/>
        <pt x="352" y="194" on="1"/>
        <pt x="566" y="199" on="1"/>
      </contour>
    </TTGlyph>
    <TTGlyph name="Oslash" xMin="76" yMin="-209" xMax="1499" yMax="1604">
      <contour>
        <pt x="81" y="717" on="1"/>
        <pt x="85" y="803" on="0"/>
        <pt x="132" y="981" on="0"/>
        <pt x="219" y="1147" on="0"/>
        <pt x="343" y="1294" on="0"/>
        <pt x="508" y="1404" on="0"/>
        <pt x="711" y="1467" on="0"/>
        <pt x="832" y="1467" on="1"/>
        <pt x="922" y="1467" on="0"/>
        <pt x="1073" y="1433" on="0"/>
        <pt x="1137" y="1403" on="1"/>
        <pt x="1265" y="1604" on="1"/>
        <pt x="1422" y="1503" on="1"/>
        <pt x="1290" y="1296" on="1"/>
        <pt x="1348" y="1240" on="0"/>
        <pt x="1430" y="1102" on="0"/>
        <pt x="1479" y="950" on="0"/>
        <pt x="1499" y="793" on="0"/>
        <pt x="1495" y="717" on="1"/>
        <pt x="1491" y="632" on="0"/>
        <pt x="1443" y="455" on="0"/>
        <pt x="1358" y="289" on="0"/>
        <pt x="1234" y="141" on="0"/>
        <pt x="1070" y="31" on="0"/>
        <pt x="868" y="-33" on="0"/>
        <pt x="747" y="-33" on="1"/>
        <pt x="666" y="-33" on="0"/>
        <pt x="528" y="-9" on="0"/>
        <pt x="469" y="14" on="1"/>
        <pt x="326" y="-209" on="1"/>
        <pt x="179" y="-107" on="1"/>
        <pt x="312" y="103" on="1"/>
        <pt x="244" y="158" on="0"/>
        <pt x="152" y="299" on="0"/>
        <pt x="97" y="460" on="0"/>
        <pt x="76" y="632" on="0"/>
      </contour>
      <contour>
        <pt x="397" y="741" on="1"/>
        <pt x="394" y="694" on="0"/>
        <pt x="398" y="591" on="0"/>
        <pt x="413" y="487" on="0"/>
        <pt x="440" y="384" on="0"/>
        <pt x="461" y="337" on="1"/>
        <pt x="1034" y="1240" on="1"/>
        <pt x="989" y="1284" on="0"/>
        <pt x="871" y="1329" on="0"/>
        <pt x="797" y="1327" on="1"/>
        <pt x="727" y="1325" on="0"/>
        <pt x="615" y="1272" on="0"/>
        <pt x="528" y="1184" on="0"/>
        <pt x="465" y="1068" on="0"/>
        <pt x="423" y="939" on="0"/>
        <pt x="400" y="804" on="0"/>
      </contour>
      <contour>
        <pt x="1180" y="682" on="1"/>
        <pt x="1185" y="791" on="0"/>
        <pt x="1165" y="982" on="0"/>
        <pt x="1139" y="1061" on="1"/>
        <pt x="573" y="177" on="1"/>
        <pt x="613" y="144" on="0"/>
        <pt x="713" y="106" on="0"/>
        <pt x="776" y="107" on="1"/>
        <pt x="847" y="107" on="0"/>
        <pt x="960" y="158" on="0"/>
        <pt x="1047" y="244" on="0"/>
        <pt x="1111" y="358" on="0"/>
        <pt x="1154" y="486" on="0"/>
        <pt x="1177" y="619" on="0"/>
      </contour>
    </TTGlyph>
    <TTGlyph name="Otilde" xMin="76" yMin="-33" xMax="1499" yMax="1943">
      <component glyphName="O" x="0" y="0" flags="0x204"/>
      <component glyphName="Tilde" x="366" y="0" flags="0x4"/>
    </TTGlyph>
    <TTGlyph name="P" xMin="72" yMin="0" xMax="1294" yMax="1439">
      <contour>
        <pt x="685" y="519" on="1"/>
        <pt x="638" y="517" on="0"/>
        <pt x="572" y="517" on="0"/>
        <pt x="536" y="518" on="1"/>
        <pt x="526" y="337" on="1"/>
        <pt x="525" y="309" on="0"/>
        <pt x="521" y="254" on="0"/>
        <pt x="517" y="205" on="0"/>
        <pt x="512" y="165" on="0"/>
        <pt x="509" y="152" on="1"/>
        <pt x="683" y="158" on="1"/>
        <pt x="675" y="0" on="1"/>
        <pt x="72" y="0" on="1"/>
        <pt x="79" y="135" on="1"/>
        <pt x="113" y="137" on="0"/>
        <pt x="168" y="147" on="0"/>
        <pt x="208" y="181" on="0"/>
        <pt x="231" y="251" on="0"/>
        <pt x="234" y="313" on="1"/>
        <pt x="275" y="1098" on="1"/>
        <pt x="276" y="1126" on="0"/>
        <pt x="281" y="1180" on="0"/>
        <pt x="285" y="1229" on="0"/>
        <pt x="290" y="1269" on="0"/>
        <pt x="293" y="1282" on="1"/>
        <pt x="139" y="1276" on="1"/>
        <pt x="147" y="1434" on="1"/>
        <pt x="725" y="1438" on="1"/>
        <pt x="860" y="1439" on="0"/>
        <pt x="1075" y="1385" on="0"/>
        <pt x="1222" y="1272" on="0"/>
        <pt x="1294" y="1095" on="0"/>
        <pt x="1284" y="973" on="1"/>
        <pt x="1277" y="891" on="0"/>
        <pt x="1197" y="732" on="0"/>
        <pt x="1049" y="604" on="0"/>
        <pt x="830" y="523" on="0"/>
      </contour>
      <contour>
        <pt x="636" y="665" on="1"/>
        <pt x="805" y="665" on="0"/>
        <pt x="966" y="835" on="0"/>
        <pt x="974" y="992" on="1"/>
        <pt x="979" y="1094" on="0"/>
        <pt x="929" y="1214" on="0"/>
        <pt x="848" y="1276" on="0"/>
        <pt x="754" y="1294" on="0"/>
        <pt x="715" y="1294" on="1"/>
        <pt x="682" y="1294" on="0"/>
        <pt x="631" y="1284" on="0"/>
        <pt x="593" y="1250" on="0"/>
        <pt x="571" y="1186" on="0"/>
        <pt x="568" y="1132" on="1"/>
        <pt x="544" y="671" on="1"/>
        <pt x="566" y="669" on="0"/>
        <pt x="612" y="665" on="0"/>
      </contour>
    </TTGlyph>
    <TTGlyph name="Pi" xMin="72" yMin="0" xMax="1560" yMax="1434">
      <contour>
        <pt x="1357" y="336" on="1"/>
        <pt x="1355" y="308" on="0"/>
        <pt x="1351" y="254" on="0"/>
        <pt x="1347" y="205" on="0"/>
        <pt x="1342" y="165" on="0"/>
        <pt x="1339" y="152" on="1"/>
        <pt x="1355" y="153" on="0"/>
        <pt x="1400" y="155" on="0"/>
        <pt x="1444" y="156" on="0"/>
        <pt x="1482" y="158" on="0"/>
        <pt x="1493" y="158" on="1"/>
        <pt x="1485" y="0" on="1"/>
        <pt x="902" y="0" on="1"/>
        <pt x="909" y="135" on="1"/>
        <pt x="943" y="137" on="0"/>
        <pt x="998" y="147" on="0"/>
        <pt x="1038" y="181" on="0"/>
        <pt x="1061" y="251" on="0"/>
        <pt x="1064" y="313" on="1"/>
        <pt x="1111" y="1279" on="1"/>
        <pt x="696" y="1274" on="1"/>
        <pt x="669" y="1274" on="0"/>
        <pt x="625" y="1261" on="0"/>
        <pt x="593" y="1227" on="0"/>
        <pt x="572" y="1167" on="0"/>
        <pt x="568" y="1119" on="1"/>
        <pt x="527" y="336" on="1"/>
        <pt x="525" y="308" on="0"/>
        <pt x="521" y="254" on="0"/>
        <pt x="517" y="205" on="0"/>
        <pt x="512" y="165" on="0"/>
        <pt x="509" y="152" on="1"/>
        <pt x="525" y="153" on="0"/>
        <pt x="570" y="155" on="0"/>
        <pt x="614" y="156" on="0"/>
        <pt x="652" y="158" on="0"/>
        <pt x="663" y="158" on="1"/>
        <pt x="655" y="0" on="1"/>
        <pt x="72" y="0" on="1"/>
        <pt x="79" y="135" on="1"/>
        <pt x="113" y="137" on="0"/>
        <pt x="168" y="147" on="0"/>
        <pt x="208" y="181" on="0"/>
        <pt x="231" y="251" on="0"/>
        <pt x="234" y="313" on="1"/>
        <pt x="275" y="1098" on="1"/>
        <pt x="276" y="1126" on="0"/>
        <pt x="281" y="1180" on="0"/>
        <pt x="285" y="1229" on="0"/>
        <pt x="290" y="1269" on="0"/>
        <pt x="293" y="1282" on="1"/>
        <pt x="276" y="1281" on="0"/>
        <pt x="232" y="1279" on="0"/>
        <pt x="188" y="1277" on="0"/>
        <pt x="150" y="1276" on="0"/>
        <pt x="139" y="1276" on="1"/>
        <pt x="147" y="1434" on="1"/>
        <pt x="1560" y="1434" on="1"/>
        <pt x="1553" y="1299" on="1"/>
        <pt x="1518" y="1297" on="0"/>
        <pt x="1464" y="1287" on="0"/>
        <pt x="1424" y="1253" on="0"/>
        <pt x="1401" y="1183" on="0"/>
        <pt x="1398" y="1121" on="1"/>
      </contour>
    </TTGlyph>
    <TTGlyph name="Q" xMin="75" yMin="-446" xMax="1571" yMax="1467">
      <contour>
        <pt x="80" y="717" on="1"/>
        <pt x="84" y="803" on="0"/>
        <pt x="132" y="981" on="0"/>
        <pt x="219" y="1147" on="0"/>
        <pt x="344" y="1294" on="0"/>
        <pt x="508" y="1404" on="0"/>
        <pt x="712" y="1467" on="0"/>
        <pt x="833" y="1467" on="1"/>
        <pt x="957" y="1467" on="0"/>
        <pt x="1155" y="1403" on="0"/>
        <pt x="1306" y="1293" on="0"/>
        <pt x="1412" y="1146" on="0"/>
        <pt x="1478" y="980" on="0"/>
        <pt x="1503" y="802" on="0"/>
        <pt x="1499" y="717" on="1"/>
        <pt x="1494" y="615" on="0"/>
        <pt x="1427" y="402" on="0"/>
        <pt x="1304" y="211" on="0"/>
        <pt x="1124" y="56" on="0"/>
        <pt x="1006" y="13" on="1"/>
        <pt x="1006" y="11" on="1"/>
        <pt x="1050" y="11" on="0"/>
        <pt x="1121" y="3" on="0"/>
        <pt x="1187" y="-22" on="0"/>
        <pt x="1253" y="-67" on="0"/>
        <pt x="1291" y="-104" on="1"/>
        <pt x="1336" y="-148" on="0"/>
        <pt x="1401" y="-213" on="0"/>
        <pt x="1448" y="-259" on="0"/>
        <pt x="1483" y="-287" on="0"/>
        <pt x="1515" y="-303" on="0"/>
        <pt x="1549" y="-309" on="0"/>
        <pt x="1571" y="-309" on="1"/>
        <pt x="1563" y="-446" on="1"/>
        <pt x="1478" y="-446" on="1"/>
        <pt x="1407" y="-446" on="0"/>
        <pt x="1312" y="-440" on="0"/>
        <pt x="1238" y="-418" on="0"/>
        <pt x="1173" y="-373" on="0"/>
        <pt x="1131" y="-335" on="1"/>
        <pt x="1069" y="-278" on="0"/>
        <pt x="975" y="-169" on="0"/>
        <pt x="886" y="-84" on="0"/>
        <pt x="791" y="-33" on="0"/>
        <pt x="728" y="-33" on="1"/>
        <pt x="602" y="-33" on="0"/>
        <pt x="405" y="29" on="0"/>
        <pt x="258" y="137" on="0"/>
        <pt x="158" y="283" on="0"/>
        <pt x="98" y="449" on="0"/>
        <pt x="75" y="629" on="0"/>
      </contour>
      <contour>
        <pt x="398" y="741" on="1"/>
        <pt x="394" y="677" on="0"/>
        <pt x="405" y="534" on="0"/>
        <pt x="437" y="395" on="0"/>
        <pt x="495" y="268" on="0"/>
        <pt x="581" y="172" on="0"/>
        <pt x="699" y="115" on="0"/>
        <pt x="777" y="116" on="1"/>
        <pt x="848" y="116" on="0"/>
        <pt x="961" y="166" on="0"/>
        <pt x="1048" y="250" on="0"/>
        <pt x="1111" y="361" on="0"/>
        <pt x="1154" y="487" on="0"/>
        <pt x="1177" y="619" on="0"/>
        <pt x="1180" y="682" on="1"/>
        <pt x="1187" y="823" on="0"/>
        <pt x="1150" y="1058" on="0"/>
        <pt x="1057" y="1227" on="0"/>
        <pt x="905" y="1320" on="0"/>
        <pt x="798" y="1317" on="1"/>
        <pt x="728" y="1315" on="0"/>
        <pt x="615" y="1264" on="0"/>
        <pt x="528" y="1178" on="0"/>
        <pt x="466" y="1065" on="0"/>
        <pt x="424" y="938" on="0"/>
        <pt x="401" y="804" on="0"/>
      </contour>
    </TTGlyph>
    <TTGlyph name="R" xMin="72" yMin="0" xMax="1343" yMax="1439">
      <contour>
        <pt x="1124" y="327" on="1"/>
        <pt x="1155" y="275" on="0"/>
        <pt x="1206" y="204" on="0"/>
        <pt x="1255" y="159" on="0"/>
        <pt x="1308" y="137" on="0"/>
        <pt x="1343" y="135" on="1"/>
        <pt x="1336" y="0" on="1"/>
        <pt x="1004" y="0" on="1"/>
        <pt x="969" y="26" on="0"/>
        <pt x="900" y="127" on="0"/>
        <pt x="863" y="193" on="1"/>
        <pt x="726" y="438" on="1"/>
        <pt x="702" y="480" on="0"/>
        <pt x="663" y="536" on="0"/>
        <pt x="646" y="558" on="1"/>
        <pt x="613" y="557" on="0"/>
        <pt x="568" y="557" on="0"/>
        <pt x="538" y="558" on="1"/>
        <pt x="526" y="337" on="1"/>
        <pt x="525" y="309" on="0"/>
        <pt x="521" y="254" on="0"/>
        <pt x="517" y="205" on="0"/>
        <pt x="512" y="165" on="0"/>
        <pt x="509" y="152" on="1"/>
        <pt x="683" y="158" on="1"/>
        <pt x="675" y="0" on="1"/>
        <pt x="72" y="0" on="1"/>
        <pt x="79" y="135" on="1"/>
        <pt x="113" y="137" on="0"/>
        <pt x="168" y="147" on="0"/>
        <pt x="208" y="181" on="0"/>
        <pt x="231" y="251" on="0"/>
        <pt x="234" y="313" on="1"/>
        <pt x="275" y="1098" on="1"/>
        <pt x="276" y="1126" on="0"/>
        <pt x="281" y="1180" on="0"/>
        <pt x="285" y="1229" on="0"/>
        <pt x="290" y="1269" on="0"/>
        <pt x="293" y="1282" on="1"/>
        <pt x="139" y="1276" on="1"/>
        <pt x="147" y="1434" on="1"/>
        <pt x="725" y="1438" on="1"/>
        <pt x="860" y="1439" on="0"/>
        <pt x="1074" y="1393" on="0"/>
        <pt x="1220" y="1288" on="0"/>
        <pt x="1291" y="1119" on="0"/>
        <pt x="1281" y="997" on="1"/>
        <pt x="1276" y="932" on="0"/>
        <pt x="1224" y="811" on="0"/>
        <pt x="1129" y="708" on="0"/>
        <pt x="992" y="627" on="0"/>
        <pt x="901" y="602" on="1"/>
        <pt x="901" y="600" on="1"/>
        <pt x="939" y="585" on="0"/>
        <pt x="1010" y="514" on="0"/>
        <pt x="1036" y="472" on="1"/>
      </contour>
      <contour>
        <pt x="646" y="705" on="1"/>
        <pt x="731" y="705" on="0"/>
        <pt x="853" y="742" on="0"/>
        <pt x="933" y="819" on="0"/>
        <pt x="975" y="935" on="0"/>
        <pt x="979" y="1013" on="1"/>
        <pt x="982" y="1079" on="0"/>
        <pt x="958" y="1172" on="0"/>
        <pt x="913" y="1234" on="0"/>
        <pt x="854" y="1270" on="0"/>
        <pt x="793" y="1289" on="0"/>
        <pt x="736" y="1294" on="0"/>
        <pt x="715" y="1294" on="1"/>
        <pt x="682" y="1294" on="0"/>
        <pt x="631" y="1284" on="0"/>
        <pt x="593" y="1250" on="0"/>
        <pt x="571" y="1186" on="0"/>
        <pt x="568" y="1132" on="1"/>
        <pt x="546" y="712" on="1"/>
        <pt x="570" y="709" on="0"/>
        <pt x="620" y="705" on="0"/>
      </contour>
    </TTGlyph>
    <TTGlyph name="Racute" xMin="72" yMin="0" xMax="1343" yMax="1975">
      <component glyphName="R" x="0" y="0" flags="0x0"/>
      <component glyphName="Acute" x="434" y="0" flags="0x0"/>
    </TTGlyph>
    <TTGlyph name="Rcaron" xMin="73" yMin="0" xMax="1344" yMax="1971">
      <component glyphName="R" x="1" y="0" flags="0x0"/>
      <component glyphName="Caron" x="190" y="0" flags="0x0"/>
    </TTGlyph>
    <TTGlyph name="Rcommaaccent" xMin="73" yMin="-602" xMax="1344" yMax="1439">
      <component glyphName="R" x="1" y="0" flags="0x0"/>
      <component glyphName="commaaccentcomb" x="344" y="0" flags="0x0"/>
    </TTGlyph>
    <TTGlyph name="Ring" xMin="93" yMin="1538" xMax="639" yMax="2061">
      <contour>
        <pt x="364" y="1957" on="1"/>
        <pt x="338" y="1957" on="0"/>
        <pt x="302" y="1930" on="0"/>
        <pt x="280" y="1888" on="0"/>
        <pt x="270" y="1837" on="0"/>
        <pt x="270" y="1813" on="1"/>
        <pt x="270" y="1733" on="0"/>
        <pt x="326" y="1643" on="0"/>
        <pt x="373" y="1643" on="1"/>
        <pt x="408" y="1643" on="0"/>
        <pt x="461" y="1709" on="0"/>
        <pt x="461" y="1775" on="1"/>
        <pt x="461" y="1863" on="0"/>
        <pt x="410" y="1957" on="0"/>
      </contour>
      <contour>
        <pt x="364" y="2061" on="1"/>
        <pt x="412" y="2061" on="0"/>
        <pt x="510" y="2029" on="0"/>
        <pt x="589" y="1965" on="0"/>
        <pt x="639" y="1867" on="0"/>
        <pt x="639" y="1800" on="1"/>
        <pt x="639" y="1738" on="0"/>
        <pt x="590" y="1641" on="0"/>
        <pt x="512" y="1573" on="0"/>
        <pt x="415" y="1538" on="0"/>
        <pt x="367" y="1538" on="1"/>
        <pt x="317" y="1538" on="0"/>
        <pt x="219" y="1568" on="0"/>
        <pt x="141" y="1631" on="0"/>
        <pt x="93" y="1729" on="0"/>
        <pt x="93" y="1796" on="1"/>
        <pt x="93" y="1855" on="0"/>
        <pt x="141" y="1952" on="0"/>
        <pt x="218" y="2022" on="0"/>
        <pt x="315" y="2061" on="0"/>
      </contour>
    </TTGlyph>
    <TTGlyph name="S" xMin="90" yMin="-33" xMax="1148" yMax="1467">
      <contour>
        <pt x="610" y="115" on="1"/>
        <pt x="665" y="115" on="0"/>
        <pt x="757" y="145" on="0"/>
        <pt x="825" y="198" on="0"/>
        <pt x="865" y="268" on="0"/>
        <pt x="867" y="308" on="1"/>
        <pt x="870" y="362" on="0"/>
        <pt x="815" y="440" on="0"/>
        <pt x="723" y="501" on="0"/>
        <pt x="609" y="550" on="0"/>
        <pt x="552" y="573" on="1"/>
        <pt x="455" y="613" on="0"/>
        <pt x="290" y="704" on="0"/>
        <pt x="172" y="823" on="0"/>
        <pt x="110" y="975" on="0"/>
        <pt x="115" y="1076" on="1"/>
        <pt x="117" y="1118" on="0"/>
        <pt x="143" y="1209" on="0"/>
        <pt x="193" y="1296" on="0"/>
        <pt x="271" y="1374" on="0"/>
        <pt x="381" y="1433" on="0"/>
        <pt x="524" y="1467" on="0"/>
        <pt x="615" y="1467" on="1"/>
        <pt x="655" y="1467" on="0"/>
        <pt x="746" y="1455" on="0"/>
        <pt x="837" y="1430" on="0"/>
        <pt x="920" y="1393" on="0"/>
        <pt x="953" y="1369" on="1"/>
        <pt x="955" y="1369" on="1"/>
        <pt x="952" y="1453" on="1"/>
        <pt x="1110" y="1453" on="1"/>
        <pt x="1085" y="974" on="1"/>
        <pt x="951" y="974" on="1"/>
        <pt x="932" y="1147" on="0"/>
        <pt x="758" y="1321" on="0"/>
        <pt x="614" y="1319" on="1"/>
        <pt x="570" y="1319" on="0"/>
        <pt x="489" y="1292" on="0"/>
        <pt x="426" y="1246" on="0"/>
        <pt x="387" y="1181" on="0"/>
        <pt x="385" y="1143" on="1"/>
        <pt x="382" y="1095" on="0"/>
        <pt x="418" y="1018" on="0"/>
        <pt x="497" y="951" on="0"/>
        <pt x="618" y="888" on="0"/>
        <pt x="701" y="854" on="1"/>
        <pt x="751" y="833" on="0"/>
        <pt x="858" y="784" on="0"/>
        <pt x="959" y="723" on="0"/>
        <pt x="1048" y="649" on="0"/>
        <pt x="1113" y="558" on="0"/>
        <pt x="1148" y="447" on="0"/>
        <pt x="1144" y="380" on="1"/>
        <pt x="1139" y="289" on="0"/>
        <pt x="1056" y="137" on="0"/>
        <pt x="912" y="28" on="0"/>
        <pt x="715" y="-33" on="0"/>
        <pt x="596" y="-33" on="1"/>
        <pt x="556" y="-33" on="0"/>
        <pt x="467" y="-20" on="0"/>
        <pt x="376" y="5" on="0"/>
        <pt x="287" y="43" on="0"/>
        <pt x="247" y="68" on="1"/>
        <pt x="245" y="68" on="1"/>
        <pt x="248" y="-19" on="1"/>
        <pt x="90" y="-19" on="1"/>
        <pt x="115" y="460" on="1"/>
        <pt x="249" y="460" on="1"/>
        <pt x="258" y="374" on="0"/>
        <pt x="320" y="245" on="0"/>
        <pt x="415" y="158" on="0"/>
        <pt x="538" y="115" on="0"/>
      </contour>
    </TTGlyph>
    <TTGlyph name="Sacute" xMin="90" yMin="-33" xMax="1148" yMax="1975">
      <component glyphName="S" x="0" y="0" flags="0x0"/>
      <component glyphName="Acute" x="391" y="0" flags="0x0"/>
    </TTGlyph>
    <TTGlyph name="Scaron" xMin="90" yMin="-33" xMax="1148" yMax="1971">
      <component glyphName="S" x="0" y="0" flags="0x204"/>
      <component glyphName="Caron" x="131" y="0" flags="0x4"/>
    </TTGlyph>
    <TTGlyph name="Scedilla" xMin="90" yMin="-530" xMax="1147" yMax="1467">
      <contour>
        <pt x="951" y="974" on="1"/>
        <pt x="932" y="1147" on="0"/>
        <pt x="758" y="1321" on="0"/>
        <pt x="614" y="1319" on="1"/>
        <pt x="570" y="1319" on="0"/>
        <pt x="489" y="1292" on="0"/>
        <pt x="426" y="1246" on="0"/>
        <pt x="387" y="1181" on="0"/>
        <pt x="385" y="1143" on="1"/>
        <pt x="382" y="1095" on="0"/>
        <pt x="418" y="1018" on="0"/>
        <pt x="497" y="951" on="0"/>
        <pt x="618" y="888" on="0"/>
        <pt x="701" y="854" on="1"/>
        <pt x="751" y="833" on="0"/>
        <pt x="858" y="784" on="0"/>
        <pt x="959" y="723" on="0"/>
        <pt x="1048" y="649" on="0"/>
        <pt x="1113" y="558" on="0"/>
        <pt x="1147" y="447" on="0"/>
        <pt x="1144" y="380" on="1"/>
        <pt x="1139" y="298" on="0"/>
        <pt x="1071" y="158" on="0"/>
        <pt x="951" y="52" on="0"/>
        <pt x="786" y="-17" on="0"/>
        <pt x="686" y="-28" on="1"/>
        <pt x="638" y="-141" on="1"/>
        <pt x="640" y="-141" on="1"/>
        <pt x="653" y="-134" on="0"/>
        <pt x="690" y="-122" on="0"/>
        <pt x="730" y="-113" on="0"/>
        <pt x="768" y="-109" on="0"/>
        <pt x="782" y="-109" on="1"/>
        <pt x="814" y="-110" on="0"/>
        <pt x="868" y="-127" on="0"/>
        <pt x="906" y="-162" on="0"/>
        <pt x="926" y="-215" on="0"/>
        <pt x="924" y="-252" on="1"/>
        <pt x="921" y="-300" on="0"/>
        <pt x="871" y="-375" on="0"/>
        <pt x="790" y="-433" on="0"/>
        <pt x="689" y="-476" on="0"/>
        <pt x="584" y="-506" on="0"/>
        <pt x="484" y="-525" on="0"/>
        <pt x="444" y="-530" on="1"/>
        <pt x="434" y="-424" on="1"/>
        <pt x="450" y="-421" on="0"/>
        <pt x="500" y="-411" on="0"/>
        <pt x="556" y="-396" on="0"/>
        <pt x="613" y="-376" on="0"/>
        <pt x="659" y="-349" on="0"/>
        <pt x="689" y="-315" on="0"/>
        <pt x="690" y="-294" on="1"/>
        <pt x="691" y="-268" on="0"/>
        <pt x="659" y="-245" on="0"/>
        <pt x="613" y="-244" on="0"/>
        <pt x="564" y="-260" on="0"/>
        <pt x="549" y="-272" on="1"/>
        <pt x="474" y="-240" on="1"/>
        <pt x="536" y="-30" on="1"/>
        <pt x="464" y="-22" on="0"/>
        <pt x="313" y="27" on="0"/>
        <pt x="247" y="68" on="1"/>
        <pt x="245" y="68" on="1"/>
        <pt x="248" y="-19" on="1"/>
        <pt x="90" y="-19" on="1"/>
        <pt x="115" y="460" on="1"/>
        <pt x="249" y="460" on="1"/>
        <pt x="258" y="374" on="0"/>
        <pt x="320" y="245" on="0"/>
        <pt x="415" y="158" on="0"/>
        <pt x="538" y="115" on="0"/>
        <pt x="610" y="115" on="1"/>
        <pt x="665" y="115" on="0"/>
        <pt x="757" y="145" on="0"/>
        <pt x="825" y="198" on="0"/>
        <pt x="865" y="268" on="0"/>
        <pt x="867" y="308" on="1"/>
        <pt x="870" y="362" on="0"/>
        <pt x="815" y="440" on="0"/>
        <pt x="723" y="501" on="0"/>
        <pt x="609" y="550" on="0"/>
        <pt x="552" y="573" on="1"/>
        <pt x="455" y="613" on="0"/>
        <pt x="290" y="704" on="0"/>
        <pt x="172" y="823" on="0"/>
        <pt x="110" y="975" on="0"/>
        <pt x="115" y="1076" on="1"/>
        <pt x="117" y="1118" on="0"/>
        <pt x="143" y="1209" on="0"/>
        <pt x="193" y="1296" on="0"/>
        <pt x="271" y="1374" on="0"/>
        <pt x="381" y="1433" on="0"/>
        <pt x="524" y="1467" on="0"/>
        <pt x="615" y="1467" on="1"/>
        <pt x="655" y="1467" on="0"/>
        <pt x="746" y="1455" on="0"/>
        <pt x="837" y="1430" on="0"/>
        <pt x="920" y="1393" on="0"/>
        <pt x="953" y="1369" on="1"/>
        <pt x="955" y="1369" on="1"/>
        <pt x="952" y="1453" on="1"/>
        <pt x="1110" y="1453" on="1"/>
        <pt x="1085" y="974" on="1"/>
      </contour>
    </TTGlyph>
    <TTGlyph name="Scommaaccent" xMin="91" yMin="-602" xMax="1149" yMax="1467">
      <component glyphName="S" x="1" y="0" flags="0x0"/>
      <component glyphName="commaaccentcomb" x="342" y="0" flags="0x0"/>
    </TTGlyph>
    <TTGlyph name="T" xMin="59" yMin="0" xMax="1331" yMax="1434">
      <contour>
        <pt x="1331" y="1434" on="1"/>
        <pt x="1319" y="970" on="1"/>
        <pt x="1184" y="970" on="1"/>
        <pt x="1188" y="1053" on="0"/>
        <pt x="1159" y="1177" on="0"/>
        <pt x="1097" y="1258" on="0"/>
        <pt x="1006" y="1297" on="0"/>
        <pt x="948" y="1297" on="1"/>
        <pt x="850" y="1296" on="1"/>
        <pt x="800" y="336" on="1"/>
        <pt x="798" y="308" on="0"/>
        <pt x="794" y="254" on="0"/>
        <pt x="790" y="205" on="0"/>
        <pt x="785" y="165" on="0"/>
        <pt x="782" y="152" on="1"/>
        <pt x="946" y="158" on="1"/>
        <pt x="938" y="0" on="1"/>
        <pt x="345" y="0" on="1"/>
        <pt x="352" y="135" on="1"/>
        <pt x="386" y="137" on="0"/>
        <pt x="441" y="147" on="0"/>
        <pt x="481" y="181" on="0"/>
        <pt x="504" y="251" on="0"/>
        <pt x="507" y="313" on="1"/>
        <pt x="559" y="1294" on="1"/>
        <pt x="464" y="1294" on="1"/>
        <pt x="406" y="1294" on="0"/>
        <pt x="310" y="1255" on="0"/>
        <pt x="240" y="1175" on="0"/>
        <pt x="198" y="1053" on="0"/>
        <pt x="194" y="970" on="1"/>
        <pt x="59" y="970" on="1"/>
        <pt x="95" y="1434" on="1"/>
      </contour>
    </TTGlyph>
    <TTGlyph name="Tcaron" xMin="60" yMin="0" xMax="1332" yMax="1971">
      <component glyphName="T" x="1" y="0" flags="0x0"/>
      <component glyphName="Caron" x="230" y="0" flags="0x0"/>
    </TTGlyph>
    <TTGlyph name="Thorn" xMin="72" yMin="0" xMax="1275" yMax="1434">
      <contour>
        <pt x="657" y="311" on="1"/>
        <pt x="615" y="309" on="0"/>
        <pt x="556" y="310" on="0"/>
        <pt x="525" y="311" on="1"/>
        <pt x="522" y="262" on="0"/>
        <pt x="514" y="175" on="0"/>
        <pt x="509" y="152" on="1"/>
        <pt x="663" y="158" on="1"/>
        <pt x="655" y="0" on="1"/>
        <pt x="72" y="0" on="1"/>
        <pt x="79" y="135" on="1"/>
        <pt x="113" y="137" on="0"/>
        <pt x="168" y="147" on="0"/>
        <pt x="208" y="181" on="0"/>
        <pt x="231" y="251" on="0"/>
        <pt x="234" y="313" on="1"/>
        <pt x="275" y="1098" on="1"/>
        <pt x="276" y="1126" on="0"/>
        <pt x="281" y="1180" on="0"/>
        <pt x="285" y="1229" on="0"/>
        <pt x="290" y="1269" on="0"/>
        <pt x="293" y="1282" on="1"/>
        <pt x="139" y="1276" on="1"/>
        <pt x="147" y="1434" on="1"/>
        <pt x="730" y="1434" on="1"/>
        <pt x="723" y="1299" on="1"/>
        <pt x="692" y="1297" on="0"/>
        <pt x="641" y="1289" on="0"/>
        <pt x="603" y="1263" on="0"/>
        <pt x="578" y="1213" on="0"/>
        <pt x="572" y="1168" on="1"/>
        <pt x="694" y="1170" on="1"/>
        <pt x="829" y="1171" on="0"/>
        <pt x="1048" y="1128" on="0"/>
        <pt x="1200" y="1025" on="0"/>
        <pt x="1275" y="857" on="0"/>
        <pt x="1265" y="735" on="1"/>
        <pt x="1259" y="653" on="0"/>
        <pt x="1176" y="503" on="0"/>
        <pt x="1024" y="387" on="0"/>
        <pt x="802" y="315" on="0"/>
      </contour>
      <contour>
        <pt x="683" y="1025" on="1"/>
        <pt x="646" y="1025" on="0"/>
        <pt x="587" y="1025" on="0"/>
        <pt x="563" y="1024" on="1"/>
        <pt x="533" y="461" on="1"/>
        <pt x="551" y="459" on="0"/>
        <pt x="588" y="457" on="0"/>
        <pt x="608" y="457" on="1"/>
        <pt x="777" y="457" on="0"/>
        <pt x="942" y="605" on="0"/>
        <pt x="950" y="754" on="1"/>
        <pt x="953" y="820" on="0"/>
        <pt x="928" y="911" on="0"/>
        <pt x="883" y="971" on="0"/>
        <pt x="824" y="1005" on="0"/>
        <pt x="762" y="1021" on="0"/>
        <pt x="704" y="1025" on="0"/>
      </contour>
    </TTGlyph>
    <TTGlyph name="Tilde" xMin="92" yMin="1635" xMax="954" yMax="1943">
      <contour>
        <pt x="379" y="1736" on="1"/>
        <pt x="359" y="1736" on="0"/>
        <pt x="313" y="1728" on="0"/>
        <pt x="264" y="1706" on="0"/>
        <pt x="217" y="1667" on="0"/>
        <pt x="196" y="1637" on="1"/>
        <pt x="92" y="1702" on="1"/>
        <pt x="115" y="1759" on="0"/>
        <pt x="180" y="1841" on="0"/>
        <pt x="255" y="1893" on="0"/>
        <pt x="334" y="1918" on="0"/>
        <pt x="371" y="1918" on="1"/>
        <pt x="422" y="1918" on="0"/>
        <pt x="499" y="1886" on="0"/>
        <pt x="566" y="1849" on="0"/>
        <pt x="632" y="1817" on="0"/>
        <pt x="671" y="1817" on="1"/>
        <pt x="692" y="1817" on="0"/>
        <pt x="741" y="1834" on="0"/>
        <pt x="789" y="1867" on="0"/>
        <pt x="833" y="1914" on="0"/>
        <pt x="848" y="1943" on="1"/>
        <pt x="954" y="1889" on="1"/>
        <pt x="927" y="1809" on="0"/>
        <pt x="858" y="1710" on="0"/>
        <pt x="786" y="1655" on="0"/>
        <pt x="713" y="1635" on="0"/>
        <pt x="681" y="1635" on="1"/>
        <pt x="633" y="1635" on="0"/>
        <pt x="559" y="1667" on="0"/>
        <pt x="491" y="1704" on="0"/>
        <pt x="421" y="1736" on="0"/>
      </contour>
    </TTGlyph>
    <TTGlyph name="U" xMin="89" yMin="-33" xMax="1548" yMax="1434">
      <contour>
        <pt x="1359" y="608" on="1"/>
        <pt x="1350" y="431" on="0"/>
        <pt x="1250" y="187" on="0"/>
        <pt x="1088" y="35" on="0"/>
        <pt x="875" y="-33" on="0"/>
        <pt x="752" y="-33" on="1"/>
        <pt x="637" y="-33" on="0"/>
        <pt x="462" y="12" on="0"/>
        <pt x="336" y="95" on="0"/>
        <pt x="255" y="211" on="0"/>
        <pt x="209" y="352" on="0"/>
        <pt x="194" y="514" on="0"/>
        <pt x="199" y="602" on="1"/>
        <pt x="225" y="1098" on="1"/>
        <pt x="226" y="1126" on="0"/>
        <pt x="231" y="1180" on="0"/>
        <pt x="235" y="1229" on="0"/>
        <pt x="240" y="1269" on="0"/>
        <pt x="243" y="1282" on="1"/>
        <pt x="89" y="1276" on="1"/>
        <pt x="97" y="1434" on="1"/>
        <pt x="681" y="1434" on="1"/>
        <pt x="674" y="1299" on="1"/>
        <pt x="639" y="1297" on="0"/>
        <pt x="585" y="1287" on="0"/>
        <pt x="545" y="1253" on="0"/>
        <pt x="522" y="1183" on="0"/>
        <pt x="519" y="1121" on="1"/>
        <pt x="489" y="558" on="1"/>
        <pt x="482" y="429" on="0"/>
        <pt x="529" y="263" on="0"/>
        <pt x="615" y="165" on="0"/>
        <pt x="730" y="125" on="0"/>
        <pt x="792" y="123" on="1"/>
        <pt x="876" y="120" on="0"/>
        <pt x="1012" y="171" on="0"/>
        <pt x="1110" y="280" on="0"/>
        <pt x="1168" y="448" on="0"/>
        <pt x="1174" y="561" on="1"/>
        <pt x="1202" y="1098" on="1"/>
        <pt x="1203" y="1126" on="0"/>
        <pt x="1208" y="1180" on="0"/>
        <pt x="1212" y="1229" on="0"/>
        <pt x="1217" y="1269" on="0"/>
        <pt x="1220" y="1282" on="1"/>
        <pt x="1066" y="1276" on="1"/>
        <pt x="1074" y="1434" on="1"/>
        <pt x="1548" y="1434" on="1"/>
        <pt x="1541" y="1299" on="1"/>
        <pt x="1506" y="1297" on="0"/>
        <pt x="1452" y="1287" on="0"/>
        <pt x="1412" y="1253" on="0"/>
        <pt x="1389" y="1183" on="0"/>
        <pt x="1386" y="1121" on="1"/>
      </contour>
    </TTGlyph>
    <TTGlyph name="Uacute" xMin="89" yMin="-33" xMax="1548" yMax="1975">
      <component glyphName="U" x="0" y="0" flags="0x204"/>
      <component glyphName="Acute" x="635" y="0" flags="0x4"/>
    </TTGlyph>
    <TTGlyph name="Ucircumflex" xMin="89" yMin="-33" xMax="1548" yMax="1988">
      <component glyphName="U" x="0" y="0" flags="0x204"/>
      <component glyphName="Circumflex" x="361" y="0" flags="0x4"/>
    </TTGlyph>
    <TTGlyph name="Udieresis" xMin="89" yMin="-33" xMax="1548" yMax="1943">
      <component glyphName="U" x="0" y="0" flags="0x204"/>
      <component glyphName="Dieresis" x="491" y="0" flags="0x4"/>
    </TTGlyph>
    <TTGlyph name="Ugrave" xMin="89" yMin="-33" xMax="1548" yMax="1975">
      <component glyphName="U" x="0" y="0" flags="0x204"/>
      <component glyphName="Grave" x="408" y="0" flags="0x4"/>
    </TTGlyph>
    <TTGlyph name="Uhungarumlaut" xMin="90" yMin="-33" xMax="1549" yMax="2046">
      <component glyphName="U" x="1" y="0" flags="0x0"/>
      <component glyphName="hungarumlaut.case" x="502" y="0" flags="0x0"/>
    </TTGlyph>
    <TTGlyph name="Umacron" xMin="89" yMin="-33" xMax="1548" yMax="1888">
      <component glyphName="U" x="0" y="0" flags="0x0"/>
      <component glyphName="macron" x="517" y="410" flags="0x0"/>
    </TTGlyph>
    <TTGlyph name="Uogonek" xMin="89" yMin="-532" xMax="1548" yMax="1434">
      <contour>
        <pt x="1541" y="1299" on="1"/>
        <pt x="1506" y="1297" on="0"/>
        <pt x="1452" y="1287" on="0"/>
        <pt x="1412" y="1253" on="0"/>
        <pt x="1389" y="1183" on="0"/>
        <pt x="1386" y="1121" on="1"/>
        <pt x="1359" y="608" on="1"/>
        <pt x="1352" y="482" on="0"/>
        <pt x="1296" y="285" on="0"/>
        <pt x="1205" y="139" on="0"/>
        <pt x="1083" y="40" on="0"/>
        <pt x="1010" y="11" on="1"/>
        <pt x="960" y="-10" on="0"/>
        <pt x="863" y="-68" on="0"/>
        <pt x="785" y="-140" on="0"/>
        <pt x="737" y="-221" on="0"/>
        <pt x="736" y="-264" on="1"/>
        <pt x="735" y="-301" on="0"/>
        <pt x="779" y="-346" on="0"/>
        <pt x="821" y="-346" on="1"/>
        <pt x="851" y="-346" on="0"/>
        <pt x="918" y="-316" on="0"/>
        <pt x="952" y="-287" on="1"/>
        <pt x="1019" y="-375" on="1"/>
        <pt x="990" y="-411" on="0"/>
        <pt x="923" y="-469" on="0"/>
        <pt x="852" y="-510" on="0"/>
        <pt x="777" y="-532" on="0"/>
        <pt x="741" y="-532" on="1"/>
        <pt x="694" y="-532" on="0"/>
        <pt x="617" y="-505" on="0"/>
        <pt x="562" y="-453" on="0"/>
        <pt x="533" y="-374" on="0"/>
        <pt x="536" y="-321" on="1"/>
        <pt x="541" y="-240" on="0"/>
        <pt x="632" y="-93" on="0"/>
        <pt x="705" y="-32" on="1"/>
        <pt x="599" y="-27" on="0"/>
        <pt x="440" y="23" on="0"/>
        <pt x="325" y="108" on="0"/>
        <pt x="250" y="222" on="0"/>
        <pt x="208" y="360" on="0"/>
        <pt x="195" y="517" on="0"/>
        <pt x="199" y="602" on="1"/>
        <pt x="225" y="1098" on="1"/>
        <pt x="226" y="1126" on="0"/>
        <pt x="231" y="1180" on="0"/>
        <pt x="235" y="1229" on="0"/>
        <pt x="240" y="1269" on="0"/>
        <pt x="243" y="1282" on="1"/>
        <pt x="226" y="1281" on="0"/>
        <pt x="182" y="1279" on="0"/>
        <pt x="138" y="1277" on="0"/>
        <pt x="100" y="1276" on="0"/>
        <pt x="89" y="1276" on="1"/>
        <pt x="97" y="1434" on="1"/>
        <pt x="681" y="1434" on="1"/>
        <pt x="674" y="1299" on="1"/>
        <pt x="639" y="1297" on="0"/>
        <pt x="585" y="1287" on="0"/>
        <pt x="545" y="1253" on="0"/>
        <pt x="522" y="1183" on="0"/>
        <pt x="519" y="1121" on="1"/>
        <pt x="489" y="558" on="1"/>
        <pt x="482" y="429" on="0"/>
        <pt x="529" y="263" on="0"/>
        <pt x="615" y="165" on="0"/>
        <pt x="730" y="125" on="0"/>
        <pt x="792" y="123" on="1"/>
        <pt x="876" y="120" on="0"/>
        <pt x="1012" y="171" on="0"/>
        <pt x="1110" y="280" on="0"/>
        <pt x="1168" y="448" on="0"/>
        <pt x="1174" y="561" on="1"/>
        <pt x="1202" y="1098" on="1"/>
        <pt x="1203" y="1126" on="0"/>
        <pt x="1208" y="1180" on="0"/>
        <pt x="1212" y="1229" on="0"/>
        <pt x="1217" y="1269" on="0"/>
        <pt x="1220" y="1282" on="1"/>
        <pt x="1203" y="1281" on="0"/>
        <pt x="1159" y="1279" on="0"/>
        <pt x="1115" y="1277" on="0"/>
        <pt x="1077" y="1276" on="0"/>
        <pt x="1066" y="1276" on="1"/>
        <pt x="1074" y="1434" on="1"/>
        <pt x="1548" y="1434" on="1"/>
      </contour>
    </TTGlyph>
    <TTGlyph name="Uring" xMin="90" yMin="-33" xMax="1549" yMax="2038">
      <component glyphName="U" x="1" y="0" flags="0x0"/>
      <component glyphName="ring" x="603" y="410" flags="0x0"/>
    </TTGlyph>
    <TTGlyph name="V" xMin="52" yMin="-12" xMax="1486" yMax="1434">
      <contour>
        <pt x="687" y="677" on="1"/>
        <pt x="727" y="561" on="0"/>
        <pt x="750" y="491" on="0"/>
        <pt x="772" y="421" on="0"/>
        <pt x="786" y="382" on="1"/>
        <pt x="788" y="382" on="1"/>
        <pt x="801" y="412" on="0"/>
        <pt x="830" y="483" on="0"/>
        <pt x="859" y="557" on="0"/>
        <pt x="889" y="632" on="0"/>
        <pt x="903" y="667" on="1"/>
        <pt x="1081" y="1096" on="1"/>
        <pt x="1088" y="1113" on="0"/>
        <pt x="1108" y="1163" on="0"/>
        <pt x="1133" y="1217" on="0"/>
        <pt x="1160" y="1266" on="0"/>
        <pt x="1174" y="1282" on="1"/>
        <pt x="1175" y="1284" on="1"/>
        <pt x="1017" y="1276" on="1"/>
        <pt x="1025" y="1434" on="1"/>
        <pt x="1486" y="1434" on="1"/>
        <pt x="1479" y="1299" on="1"/>
        <pt x="1444" y="1297" on="0"/>
        <pt x="1383" y="1272" on="0"/>
        <pt x="1328" y="1221" on="0"/>
        <pt x="1276" y="1139" on="0"/>
        <pt x="1251" y="1080" on="1"/>
        <pt x="785" y="-12" on="1"/>
        <pt x="625" y="-12" on="1"/>
        <pt x="209" y="1087" on="1"/>
        <pt x="200" y="1112" on="0"/>
        <pt x="182" y="1167" on="0"/>
        <pt x="168" y="1220" on="0"/>
        <pt x="160" y="1265" on="0"/>
        <pt x="161" y="1282" on="1"/>
        <pt x="52" y="1276" on="1"/>
        <pt x="60" y="1434" on="1"/>
        <pt x="656" y="1434" on="1"/>
        <pt x="649" y="1299" on="1"/>
        <pt x="611" y="1300" on="0"/>
        <pt x="550" y="1285" on="0"/>
        <pt x="513" y="1248" on="0"/>
        <pt x="506" y="1186" on="0"/>
        <pt x="522" y="1141" on="1"/>
        <pt x="687" y="677" on="1"/>
      </contour>
    </TTGlyph>
    <TTGlyph name="W" xMin="59" yMin="-12" xMax="2116" yMax="1434">
      <contour>
        <pt x="1228" y="1434" on="1"/>
        <pt x="1439" y="608" on="0"/>
        <pt x="1466" y="461" on="0"/>
        <pt x="1479" y="384" on="1"/>
        <pt x="1481" y="384" on="1"/>
        <pt x="1503" y="452" on="0"/>
        <pt x="1551" y="592" on="0"/>
        <pt x="1711" y="1096" on="1"/>
        <pt x="1719" y="1120" on="0"/>
        <pt x="1738" y="1172" on="0"/>
        <pt x="1761" y="1222" on="0"/>
        <pt x="1788" y="1265" on="0"/>
        <pt x="1804" y="1282" on="1"/>
        <pt x="1805" y="1284" on="1"/>
        <pt x="1647" y="1276" on="1"/>
        <pt x="1655" y="1434" on="1"/>
        <pt x="2116" y="1434" on="1"/>
        <pt x="2109" y="1299" on="1"/>
        <pt x="2074" y="1297" on="0"/>
        <pt x="2011" y="1273" on="0"/>
        <pt x="1954" y="1222" on="0"/>
        <pt x="1903" y="1140" on="0"/>
        <pt x="1881" y="1080" on="1"/>
        <pt x="1489" y="-12" on="1"/>
        <pt x="1310" y="-12" on="1"/>
        <pt x="1105" y="721" on="1"/>
        <pt x="1082" y="802" on="0"/>
        <pt x="1058" y="953" on="0"/>
        <pt x="1047" y="1023" on="1"/>
        <pt x="1045" y="1023" on="1"/>
        <pt x="1030" y="953" on="0"/>
        <pt x="995" y="825" on="0"/>
        <pt x="697" y="-12" on="1"/>
        <pt x="524" y="-12" on="1"/>
        <pt x="232" y="1034" on="1"/>
        <pt x="181" y="1191" on="0"/>
        <pt x="168" y="1282" on="1"/>
        <pt x="101" y="1277" on="0"/>
        <pt x="59" y="1276" on="1"/>
        <pt x="67" y="1434" on="1"/>
        <pt x="665" y="1434" on="1"/>
        <pt x="658" y="1299" on="1"/>
        <pt x="620" y="1300" on="0"/>
        <pt x="562" y="1287" on="0"/>
        <pt x="527" y="1252" on="0"/>
        <pt x="518" y="1192" on="0"/>
        <pt x="529" y="1145" on="1"/>
        <pt x="649" y="580" on="0"/>
        <pt x="662" y="513" on="0"/>
        <pt x="675" y="436" on="0"/>
        <pt x="682" y="387" on="1"/>
        <pt x="684" y="387" on="1"/>
        <pt x="689" y="406" on="0"/>
        <pt x="711" y="474" on="0"/>
        <pt x="738" y="557" on="0"/>
        <pt x="768" y="648" on="0"/>
        <pt x="795" y="728" on="0"/>
        <pt x="817" y="791" on="0"/>
        <pt x="1045" y="1434" on="1"/>
      </contour>
    </TTGlyph>
    <TTGlyph name="X" xMin="44" yMin="0" xMax="1398" yMax="1434">
      <contour>
        <pt x="687" y="1299" on="1"/>
        <pt x="631" y="1299" on="0"/>
        <pt x="571" y="1277" on="0"/>
        <pt x="552" y="1239" on="0"/>
        <pt x="570" y="1188" on="0"/>
        <pt x="591" y="1159" on="1"/>
        <pt x="759" y="927" on="1"/>
        <pt x="761" y="927" on="1"/>
        <pt x="951" y="1172" on="0"/>
        <pt x="986" y="1214" on="0"/>
        <pt x="1015" y="1245" on="0"/>
        <pt x="1041" y="1270" on="0"/>
        <pt x="1055" y="1282" on="1"/>
        <pt x="1055" y="1284" on="1"/>
        <pt x="902" y="1276" on="1"/>
        <pt x="910" y="1434" on="1"/>
        <pt x="1376" y="1434" on="1"/>
        <pt x="1369" y="1299" on="1"/>
        <pt x="1333" y="1294" on="0"/>
        <pt x="1263" y="1262" on="0"/>
        <pt x="1189" y="1206" on="0"/>
        <pt x="1111" y="1123" on="0"/>
        <pt x="1067" y="1067" on="1"/>
        <pt x="856" y="798" on="1"/>
        <pt x="1216" y="307" on="1"/>
        <pt x="1248" y="263" on="0"/>
        <pt x="1304" y="187" on="0"/>
        <pt x="1319" y="152" on="1"/>
        <pt x="1398" y="158" on="1"/>
        <pt x="1390" y="0" on="1"/>
        <pt x="783" y="0" on="1"/>
        <pt x="790" y="135" on="1"/>
        <pt x="846" y="135" on="0"/>
        <pt x="900" y="157" on="0"/>
        <pt x="911" y="195" on="0"/>
        <pt x="887" y="246" on="0"/>
        <pt x="865" y="275" on="1"/>
        <pt x="671" y="539" on="1"/>
        <pt x="669" y="539" on="1"/>
        <pt x="477" y="291" on="1"/>
        <pt x="454" y="262" on="0"/>
        <pt x="420" y="220" on="0"/>
        <pt x="393" y="189" on="0"/>
        <pt x="370" y="164" on="0"/>
        <pt x="357" y="152" on="1"/>
        <pt x="357" y="150" on="1"/>
        <pt x="503" y="158" on="1"/>
        <pt x="495" y="0" on="1"/>
        <pt x="44" y="0" on="1"/>
        <pt x="51" y="135" on="1"/>
        <pt x="109" y="148" on="0"/>
        <pt x="236" y="253" on="0"/>
        <pt x="316" y="354" on="1"/>
        <pt x="571" y="672" on="1"/>
        <pt x="263" y="1089" on="1"/>
        <pt x="231" y="1133" on="0"/>
        <pt x="170" y="1230" on="0"/>
        <pt x="150" y="1282" on="1"/>
        <pt x="67" y="1276" on="1"/>
        <pt x="75" y="1434" on="1"/>
        <pt x="694" y="1434" on="1"/>
        <pt x="687" y="1299" on="1"/>
      </contour>
    </TTGlyph>
    <TTGlyph name="Y" xMin="48" yMin="0" xMax="1401" yMax="1434">
      <contour>
        <pt x="857" y="568" on="1"/>
        <pt x="845" y="336" on="1"/>
        <pt x="843" y="308" on="0"/>
        <pt x="839" y="254" on="0"/>
        <pt x="835" y="205" on="0"/>
        <pt x="830" y="165" on="0"/>
        <pt x="827" y="152" on="1"/>
        <pt x="991" y="158" on="1"/>
        <pt x="983" y="0" on="1"/>
        <pt x="390" y="0" on="1"/>
        <pt x="397" y="135" on="1"/>
        <pt x="431" y="137" on="0"/>
        <pt x="486" y="147" on="0"/>
        <pt x="526" y="181" on="0"/>
        <pt x="549" y="251" on="0"/>
        <pt x="552" y="313" on="1"/>
        <pt x="562" y="492" on="1"/>
        <pt x="215" y="1087" on="1"/>
        <pt x="201" y="1111" on="0"/>
        <pt x="176" y="1165" on="0"/>
        <pt x="157" y="1218" on="0"/>
        <pt x="146" y="1265" on="0"/>
        <pt x="147" y="1282" on="1"/>
        <pt x="48" y="1276" on="1"/>
        <pt x="56" y="1434" on="1"/>
        <pt x="654" y="1434" on="1"/>
        <pt x="647" y="1299" on="1"/>
        <pt x="602" y="1302" on="0"/>
        <pt x="534" y="1285" on="0"/>
        <pt x="497" y="1245" on="0"/>
        <pt x="496" y="1183" on="0"/>
        <pt x="518" y="1141" on="1"/>
        <pt x="661" y="884" on="1"/>
        <pt x="670" y="868" on="0"/>
        <pt x="693" y="824" on="0"/>
        <pt x="721" y="767" on="0"/>
        <pt x="747" y="709" on="0"/>
        <pt x="754" y="687" on="1"/>
        <pt x="757" y="687" on="1"/>
        <pt x="768" y="710" on="0"/>
        <pt x="821" y="809" on="0"/>
        <pt x="863" y="887" on="1"/>
        <pt x="1018" y="1162" on="0"/>
        <pt x="1051" y="1216" on="0"/>
        <pt x="1084" y="1266" on="0"/>
        <pt x="1098" y="1282" on="1"/>
        <pt x="1098" y="1284" on="1"/>
        <pt x="941" y="1276" on="1"/>
        <pt x="949" y="1434" on="1"/>
        <pt x="1401" y="1434" on="1"/>
        <pt x="1394" y="1299" on="1"/>
        <pt x="1358" y="1293" on="0"/>
        <pt x="1298" y="1265" on="0"/>
        <pt x="1241" y="1214" on="0"/>
        <pt x="1184" y="1135" on="0"/>
        <pt x="1151" y="1080" on="1"/>
      </contour>
    </TTGlyph>
    <TTGlyph name="Yacute" xMin="48" yMin="0" xMax="1401" yMax="1975">
      <component glyphName="Y" x="0" y="0" flags="0x4"/>
      <component glyphName="Acute" x="580" y="0" flags="0x4"/>
    </TTGlyph>
    <TTGlyph name="Ydieresis" xMin="48" yMin="0" xMax="1401" yMax="1943">
      <component glyphName="Y" x="0" y="0" flags="0x4"/>
      <component glyphName="Dieresis" x="377" y="0" flags="0x4"/>
    </TTGlyph>
    <TTGlyph name="Z" xMin="52" yMin="0" xMax="1187" yMax="1434">
      <contour>
        <pt x="542" y="388" on="1"/>
        <pt x="496" y="323" on="0"/>
        <pt x="402" y="200" on="0"/>
        <pt x="354" y="146" on="1"/>
        <pt x="353" y="144" on="1"/>
        <pt x="727" y="136" on="1"/>
        <pt x="784" y="135" on="0"/>
        <pt x="881" y="167" on="0"/>
        <pt x="953" y="239" on="0"/>
        <pt x="997" y="355" on="0"/>
        <pt x="1002" y="438" on="1"/>
        <pt x="1137" y="438" on="1"/>
        <pt x="1102" y="0" on="1"/>
        <pt x="52" y="0" on="1"/>
        <pt x="60" y="154" on="1"/>
        <pt x="722" y="1088" on="1"/>
        <pt x="763" y="1146" on="0"/>
        <pt x="834" y="1241" on="0"/>
        <pt x="875" y="1289" on="1"/>
        <pt x="876" y="1291" on="1"/>
        <pt x="525" y="1300" on="1"/>
        <pt x="468" y="1301" on="0"/>
        <pt x="371" y="1270" on="0"/>
        <pt x="299" y="1197" on="0"/>
        <pt x="254" y="1080" on="0"/>
        <pt x="250" y="997" on="1"/>
        <pt x="115" y="997" on="1"/>
        <pt x="150" y="1434" on="1"/>
        <pt x="1187" y="1434" on="1"/>
        <pt x="1179" y="1280" on="1"/>
      </contour>
    </TTGlyph>
    <TTGlyph name="Zacute" xMin="52" yMin="0" xMax="1187" yMax="1975">
      <component glyphName="Z" x="0" y="0" flags="0x0"/>
      <component glyphName="Acute" x="459" y="0" flags="0x0"/>
    </TTGlyph>
    <TTGlyph name="Zcaron" xMin="52" yMin="0" xMax="1187" yMax="1971">
      <component glyphName="Z" x="0" y="0" flags="0x204"/>
      <component glyphName="Caron" x="177" y="0" flags="0x4"/>
    </TTGlyph>
    <TTGlyph name="Zdotaccent" xMin="52" yMin="0" xMax="1187" yMax="1951">
      <component glyphName="Z" x="0" y="0" flags="0x0"/>
      <component glyphName="period" x="482" y="1687" scalex="0.923095703125" scaley="0.922485351562" flags="0x0"/>
    </TTGlyph>
    <TTGlyph name="a" xMin="52" yMin="-23" xMax="1115" yMax="1047">
      <contour>
        <pt x="964" y="1003" on="1"/>
        <pt x="957" y="952" on="0"/>
        <pt x="937" y="816" on="0"/>
        <pt x="916" y="667" on="0"/>
        <pt x="896" y="514" on="0"/>
        <pt x="880" y="376" on="0"/>
        <pt x="870" y="262" on="0"/>
        <pt x="870" y="227" on="1"/>
        <pt x="870" y="190" on="0"/>
        <pt x="889" y="167" on="0"/>
        <pt x="900" y="167" on="1"/>
        <pt x="912" y="167" on="0"/>
        <pt x="937" y="183" on="0"/>
        <pt x="964" y="221" on="0"/>
        <pt x="991" y="284" on="0"/>
        <pt x="1004" y="330" on="1"/>
        <pt x="1115" y="297" on="1"/>
        <pt x="1106" y="253" on="0"/>
        <pt x="1065" y="142" on="0"/>
        <pt x="996" y="44" on="0"/>
        <pt x="897" y="-23" on="0"/>
        <pt x="830" y="-23" on="1"/>
        <pt x="797" y="-23" on="0"/>
        <pt x="737" y="-6" on="0"/>
        <pt x="692" y="37" on="0"/>
        <pt x="665" y="109" on="0"/>
        <pt x="665" y="163" on="1"/>
        <pt x="665" y="190" on="0"/>
        <pt x="669" y="257" on="0"/>
        <pt x="673" y="283" on="1"/>
        <pt x="671" y="283" on="1"/>
        <pt x="633" y="194" on="0"/>
        <pt x="551" y="76" on="0"/>
        <pt x="462" y="6" on="0"/>
        <pt x="370" y="-23" on="0"/>
        <pt x="323" y="-23" on="1"/>
        <pt x="267" y="-23" on="0"/>
        <pt x="168" y="22" on="0"/>
        <pt x="95" y="115" on="0"/>
        <pt x="52" y="256" on="0"/>
        <pt x="52" y="351" on="1"/>
        <pt x="52" y="491" on="0"/>
        <pt x="134" y="743" on="0"/>
        <pt x="292" y="934" on="0"/>
        <pt x="522" y="1047" on="0"/>
        <pt x="669" y="1047" on="1"/>
        <pt x="727" y="1047" on="0"/>
        <pt x="879" y="1024" on="0"/>
      </contour>
      <contour>
        <pt x="409" y="159" on="1"/>
        <pt x="447" y="159" on="0"/>
        <pt x="513" y="226" on="0"/>
        <pt x="570" y="339" on="0"/>
        <pt x="617" y="488" on="0"/>
        <pt x="651" y="653" on="0"/>
        <pt x="674" y="822" on="0"/>
        <pt x="678" y="899" on="1"/>
        <pt x="667" y="903" on="0"/>
        <pt x="617" y="911" on="0"/>
        <pt x="593" y="911" on="1"/>
        <pt x="535" y="911" on="0"/>
        <pt x="439" y="838" on="0"/>
        <pt x="370" y="694" on="0"/>
        <pt x="331" y="480" on="0"/>
        <pt x="331" y="339" on="1"/>
        <pt x="331" y="255" on="0"/>
        <pt x="373" y="159" on="0"/>
      </contour>
    </TTGlyph>
    <TTGlyph name="aacute" xMin="52" yMin="-23" xMax="1115" yMax="1606">
      <component glyphName="a" x="0" y="0" flags="0x204"/>
      <component glyphName="acute" x="486" y="0" flags="0x4"/>
    </TTGlyph>
    <TTGlyph name="abreve" xMin="53" yMin="-23" xMax="1116" yMax="1564">
      <component glyphName="a" x="1" y="0" flags="0x0"/>
      <component glyphName="breve" x="342" y="0" flags="0x0"/>
    </TTGlyph>
    <TTGlyph name="acircumflex" xMin="52" yMin="-23" xMax="1115" yMax="1603">
      <component glyphName="a" x="0" y="0" flags="0x204"/>
      <component glyphName="circumflex" x="200" y="0" flags="0x4"/>
    </TTGlyph>
    <TTGlyph name="acute" xMin="93" yMin="1158" xMax="507" yMax="1606">
      <contour>
        <pt x="182" y="1158" on="1"/>
        <pt x="93" y="1241" on="1"/>
        <pt x="275" y="1527" on="1"/>
        <pt x="292" y="1553" on="0"/>
        <pt x="340" y="1591" on="0"/>
        <pt x="394" y="1606" on="0"/>
        <pt x="447" y="1597" on="0"/>
        <pt x="470" y="1576" on="1"/>
        <pt x="494" y="1555" on="0"/>
        <pt x="507" y="1500" on="0"/>
        <pt x="496" y="1444" on="0"/>
        <pt x="464" y="1392" on="0"/>
        <pt x="442" y="1374" on="1"/>
      </contour>
    </TTGlyph>
    <TTGlyph name="adieresis" xMin="52" yMin="-23" xMax="1115" yMax="1538">
      <component glyphName="a" x="0" y="0" flags="0x204"/>
      <component glyphName="dieresis" x="298" y="0" flags="0x4"/>
    </TTGlyph>
    <TTGlyph name="ae" xMin="36" yMin="-23" xMax="1436" yMax="1047">
      <contour>
        <pt x="1414" y="789" on="1"/>
        <pt x="1414" y="733" on="0"/>
        <pt x="1366" y="647" on="0"/>
        <pt x="1283" y="581" on="0"/>
        <pt x="1173" y="533" on="0"/>
        <pt x="1050" y="498" on="0"/>
        <pt x="921" y="475" on="0"/>
        <pt x="861" y="466" on="1"/>
        <pt x="861" y="379" on="0"/>
        <pt x="895" y="263" on="0"/>
        <pt x="949" y="194" on="0"/>
        <pt x="1016" y="165" on="0"/>
        <pt x="1049" y="165" on="1"/>
        <pt x="1074" y="165" on="0"/>
        <pt x="1145" y="179" on="0"/>
        <pt x="1220" y="222" on="0"/>
        <pt x="1292" y="301" on="0"/>
        <pt x="1320" y="365" on="1"/>
        <pt x="1436" y="308" on="1"/>
        <pt x="1392" y="207" on="0"/>
        <pt x="1288" y="79" on="0"/>
        <pt x="1174" y="5" on="0"/>
        <pt x="1054" y="-23" on="0"/>
        <pt x="994" y="-23" on="1"/>
        <pt x="941" y="-23" on="0"/>
        <pt x="856" y="-4" on="0"/>
        <pt x="787" y="34" on="0"/>
        <pt x="730" y="90" on="0"/>
        <pt x="703" y="125" on="1"/>
        <pt x="657" y="81" on="0"/>
        <pt x="561" y="24" on="0"/>
        <pt x="465" y="-9" on="0"/>
        <pt x="370" y="-22" on="0"/>
        <pt x="325" y="-23" on="1"/>
        <pt x="251" y="-23" on="0"/>
        <pt x="141" y="18" on="0"/>
        <pt x="69" y="92" on="0"/>
        <pt x="36" y="191" on="0"/>
        <pt x="39" y="250" on="1"/>
        <pt x="42" y="315" on="0"/>
        <pt x="93" y="413" on="0"/>
        <pt x="176" y="485" on="0"/>
        <pt x="286" y="534" on="0"/>
        <pt x="413" y="565" on="0"/>
        <pt x="550" y="580" on="0"/>
        <pt x="619" y="583" on="1"/>
        <pt x="625" y="717" on="1"/>
        <pt x="627" y="757" on="0"/>
        <pt x="615" y="825" on="0"/>
        <pt x="583" y="875" on="0"/>
        <pt x="531" y="902" on="0"/>
        <pt x="492" y="901" on="1"/>
        <pt x="451" y="899" on="0"/>
        <pt x="380" y="874" on="0"/>
        <pt x="354" y="847" on="1"/>
        <pt x="368" y="830" on="0"/>
        <pt x="375" y="780" on="0"/>
        <pt x="374" y="765" on="1"/>
        <pt x="373" y="744" on="0"/>
        <pt x="354" y="698" on="0"/>
        <pt x="319" y="660" on="0"/>
        <pt x="266" y="636" on="0"/>
        <pt x="230" y="637" on="1"/>
        <pt x="169" y="639" on="0"/>
        <pt x="107" y="720" on="0"/>
        <pt x="110" y="777" on="1"/>
        <pt x="113" y="834" on="0"/>
        <pt x="178" y="932" on="0"/>
        <pt x="290" y="1005" on="0"/>
        <pt x="442" y="1047" on="0"/>
        <pt x="532" y="1047" on="1"/>
        <pt x="581" y="1047" on="0"/>
        <pt x="665" y="1033" on="0"/>
        <pt x="732" y="998" on="0"/>
        <pt x="781" y="940" on="0"/>
        <pt x="794" y="896" on="1"/>
        <pt x="851" y="968" on="0"/>
        <pt x="1011" y="1047" on="0"/>
        <pt x="1102" y="1047" on="1"/>
        <pt x="1170" y="1047" on="0"/>
        <pt x="1284" y="1017" on="0"/>
        <pt x="1367" y="954" on="0"/>
        <pt x="1414" y="856" on="0"/>
      </contour>
      <contour>
        <pt x="610" y="458" on="1"/>
        <pt x="553" y="452" on="0"/>
        <pt x="445" y="429" on="0"/>
        <pt x="361" y="389" on="0"/>
        <pt x="309" y="328" on="0"/>
        <pt x="308" y="284" on="1"/>
        <pt x="307" y="255" on="0"/>
        <pt x="328" y="213" on="0"/>
        <pt x="361" y="184" on="0"/>
        <pt x="404" y="170" on="0"/>
        <pt x="426" y="170" on="1"/>
        <pt x="450" y="170" on="0"/>
        <pt x="506" y="179" on="0"/>
        <pt x="561" y="197" on="0"/>
        <pt x="610" y="223" on="0"/>
        <pt x="627" y="240" on="1"/>
        <pt x="617" y="303" on="0"/>
        <pt x="608" y="403" on="0"/>
      </contour>
      <contour>
        <pt x="1175" y="818" on="1"/>
        <pt x="1174" y="843" on="0"/>
        <pt x="1156" y="878" on="0"/>
        <pt x="1128" y="901" on="0"/>
        <pt x="1094" y="912" on="0"/>
        <pt x="1079" y="912" on="1"/>
        <pt x="1027" y="912" on="0"/>
        <pt x="952" y="857" on="0"/>
        <pt x="902" y="768" on="0"/>
        <pt x="874" y="655" on="0"/>
        <pt x="868" y="598" on="1"/>
        <pt x="951" y="613" on="0"/>
        <pt x="1068" y="657" on="0"/>
        <pt x="1143" y="713" on="0"/>
        <pt x="1176" y="780" on="0"/>
      </contour>
    </TTGlyph>
    <TTGlyph name="agrave" xMin="52" yMin="-23" xMax="1115" yMax="1605">
      <component glyphName="a" x="0" y="0" flags="0x204"/>
      <component glyphName="grave" x="318" y="0" flags="0x4"/>
    </TTGlyph>
    <TTGlyph name="amacron" xMin="52" yMin="-23" xMax="1115" yMax="1478">
      <component glyphName="a" x="0" y="0" flags="0x0"/>
      <component glyphName="macron" x="330" y="0" flags="0x0"/>
    </TTGlyph>
    <TTGlyph name="ampersand" xMin="46" yMin="-33" xMax="1438" yMax="1468">
      <contour>
        <pt x="778" y="1185" on="1"/>
        <pt x="778" y="1194" on="0"/>
        <pt x="781" y="1219" on="0"/>
        <pt x="788" y="1246" on="0"/>
        <pt x="798" y="1270" on="0"/>
        <pt x="805" y="1278" on="1"/>
        <pt x="781" y="1302" on="0"/>
        <pt x="711" y="1328" on="0"/>
        <pt x="659" y="1327" on="1"/>
        <pt x="621" y="1326" on="0"/>
        <pt x="549" y="1293" on="0"/>
        <pt x="491" y="1232" on="0"/>
        <pt x="454" y="1143" on="0"/>
        <pt x="451" y="1086" on="1"/>
        <pt x="449" y="1046" on="0"/>
        <pt x="470" y="961" on="0"/>
        <pt x="526" y="891" on="0"/>
        <pt x="623" y="846" on="0"/>
        <pt x="697" y="846" on="1"/>
        <pt x="711" y="846" on="0"/>
        <pt x="765" y="848" on="1"/>
        <pt x="757" y="704" on="1"/>
        <pt x="686" y="706" on="1"/>
        <pt x="614" y="708" on="0"/>
        <pt x="497" y="667" on="0"/>
        <pt x="413" y="590" on="0"/>
        <pt x="363" y="482" on="0"/>
        <pt x="359" y="417" on="1"/>
        <pt x="354" y="342" on="0"/>
        <pt x="397" y="227" on="0"/>
        <pt x="476" y="149" on="0"/>
        <pt x="585" y="109" on="0"/>
        <pt x="645" y="109" on="1"/>
        <pt x="744" y="109" on="0"/>
        <pt x="885" y="170" on="0"/>
        <pt x="979" y="271" on="0"/>
        <pt x="1030" y="401" on="0"/>
        <pt x="1041" y="471" on="1"/>
        <pt x="1040" y="471" on="1"/>
        <pt x="1020" y="471" on="0"/>
        <pt x="967" y="463" on="0"/>
        <pt x="904" y="442" on="0"/>
        <pt x="834" y="407" on="0"/>
        <pt x="798" y="379" on="1"/>
        <pt x="730" y="452" on="1"/>
        <pt x="774" y="517" on="0"/>
        <pt x="850" y="599" on="0"/>
        <pt x="933" y="645" on="0"/>
        <pt x="1031" y="662" on="0"/>
        <pt x="1097" y="662" on="1"/>
        <pt x="1129" y="662" on="0"/>
        <pt x="1193" y="667" on="0"/>
        <pt x="1257" y="687" on="0"/>
        <pt x="1324" y="726" on="0"/>
        <pt x="1359" y="760" on="1"/>
        <pt x="1438" y="692" on="1"/>
        <pt x="1412" y="646" on="0"/>
        <pt x="1361" y="573" on="0"/>
        <pt x="1299" y="521" on="0"/>
        <pt x="1220" y="487" on="0"/>
        <pt x="1166" y="480" on="1"/>
        <pt x="1160" y="425" on="0"/>
        <pt x="1128" y="306" on="0"/>
        <pt x="1069" y="192" on="0"/>
        <pt x="980" y="89" on="0"/>
        <pt x="855" y="12" on="0"/>
        <pt x="691" y="-33" on="0"/>
        <pt x="587" y="-33" on="1"/>
        <pt x="473" y="-33" on="0"/>
        <pt x="276" y="16" on="0"/>
        <pt x="130" y="118" on="0"/>
        <pt x="46" y="273" on="0"/>
        <pt x="46" y="378" on="1"/>
        <pt x="46" y="453" on="0"/>
        <pt x="102" y="584" on="0"/>
        <pt x="202" y="691" on="0"/>
        <pt x="341" y="768" on="0"/>
        <pt x="424" y="788" on="1"/>
        <pt x="424" y="790" on="1"/>
        <pt x="361" y="802" on="0"/>
        <pt x="260" y="853" on="0"/>
        <pt x="189" y="923" on="0"/>
        <pt x="151" y="1011" on="0"/>
        <pt x="151" y="1061" on="1"/>
        <pt x="151" y="1159" on="0"/>
        <pt x="229" y="1311" on="0"/>
        <pt x="362" y="1415" on="0"/>
        <pt x="539" y="1468" on="0"/>
        <pt x="637" y="1467" on="1"/>
        <pt x="731" y="1466" on="0"/>
        <pt x="881" y="1425" on="0"/>
        <pt x="986" y="1355" on="0"/>
        <pt x="1042" y="1260" on="0"/>
        <pt x="1042" y="1206" on="1"/>
        <pt x="1042" y="1177" on="0"/>
        <pt x="1023" y="1126" on="0"/>
        <pt x="988" y="1086" on="0"/>
        <pt x="939" y="1063" on="0"/>
        <pt x="908" y="1063" on="1"/>
        <pt x="850" y="1063" on="0"/>
        <pt x="781" y="1129" on="0"/>
      </contour>
    </TTGlyph>
    <TTGlyph name="aogonek" xMin="52" yMin="-532" xMax="1115" yMax="1047">
      <contour>
        <pt x="945" y="9" on="1"/>
        <pt x="922" y="-5" on="0"/>
        <pt x="898" y="-12" on="1"/>
        <pt x="855" y="-34" on="0"/>
        <pt x="775" y="-90" on="0"/>
        <pt x="713" y="-155" on="0"/>
        <pt x="676" y="-227" on="0"/>
        <pt x="675" y="-264" on="1"/>
        <pt x="674" y="-301" on="0"/>
        <pt x="718" y="-346" on="0"/>
        <pt x="760" y="-346" on="1"/>
        <pt x="790" y="-346" on="0"/>
        <pt x="857" y="-316" on="0"/>
        <pt x="891" y="-287" on="1"/>
        <pt x="958" y="-375" on="1"/>
        <pt x="929" y="-411" on="0"/>
        <pt x="862" y="-469" on="0"/>
        <pt x="791" y="-510" on="0"/>
        <pt x="716" y="-532" on="0"/>
        <pt x="680" y="-532" on="1"/>
        <pt x="633" y="-532" on="0"/>
        <pt x="556" y="-505" on="0"/>
        <pt x="501" y="-453" on="0"/>
        <pt x="472" y="-374" on="0"/>
        <pt x="475" y="-321" on="1"/>
        <pt x="478" y="-272" on="0"/>
        <pt x="515" y="-178" on="0"/>
        <pt x="577" y="-92" on="0"/>
        <pt x="661" y="-14" on="0"/>
        <pt x="711" y="19" on="1"/>
        <pt x="690" y="40" on="0"/>
        <pt x="665" y="110" on="0"/>
        <pt x="665" y="163" on="1"/>
        <pt x="665" y="190" on="0"/>
        <pt x="669" y="257" on="0"/>
        <pt x="673" y="283" on="1"/>
        <pt x="671" y="283" on="1"/>
        <pt x="633" y="194" on="0"/>
        <pt x="551" y="76" on="0"/>
        <pt x="462" y="6" on="0"/>
        <pt x="370" y="-23" on="0"/>
        <pt x="323" y="-23" on="1"/>
        <pt x="267" y="-23" on="0"/>
        <pt x="168" y="22" on="0"/>
        <pt x="95" y="115" on="0"/>
        <pt x="52" y="256" on="0"/>
        <pt x="52" y="351" on="1"/>
        <pt x="52" y="491" on="0"/>
        <pt x="134" y="743" on="0"/>
        <pt x="292" y="934" on="0"/>
        <pt x="522" y="1047" on="0"/>
        <pt x="669" y="1047" on="1"/>
        <pt x="727" y="1047" on="0"/>
        <pt x="879" y="1024" on="0"/>
        <pt x="964" y="1003" on="1"/>
        <pt x="957" y="952" on="0"/>
        <pt x="937" y="816" on="0"/>
        <pt x="916" y="667" on="0"/>
        <pt x="896" y="514" on="0"/>
        <pt x="880" y="376" on="0"/>
        <pt x="870" y="262" on="0"/>
        <pt x="870" y="227" on="1"/>
        <pt x="870" y="190" on="0"/>
        <pt x="889" y="167" on="0"/>
        <pt x="900" y="167" on="1"/>
        <pt x="912" y="167" on="0"/>
        <pt x="937" y="183" on="0"/>
        <pt x="964" y="221" on="0"/>
        <pt x="991" y="284" on="0"/>
        <pt x="1004" y="330" on="1"/>
        <pt x="1115" y="297" on="1"/>
        <pt x="1109" y="264" on="0"/>
        <pt x="1083" y="185" on="0"/>
        <pt x="1042" y="106" on="0"/>
        <pt x="986" y="35" on="0"/>
        <pt x="949" y="11" on="1"/>
      </contour>
      <contour>
        <pt x="409" y="159" on="1"/>
        <pt x="446" y="159" on="0"/>
        <pt x="513" y="226" on="0"/>
        <pt x="570" y="339" on="0"/>
        <pt x="617" y="488" on="0"/>
        <pt x="651" y="653" on="0"/>
        <pt x="674" y="822" on="0"/>
        <pt x="678" y="899" on="1"/>
        <pt x="667" y="903" on="0"/>
        <pt x="617" y="911" on="0"/>
        <pt x="593" y="911" on="1"/>
        <pt x="535" y="911" on="0"/>
        <pt x="439" y="838" on="0"/>
        <pt x="370" y="694" on="0"/>
        <pt x="331" y="480" on="0"/>
        <pt x="331" y="339" on="1"/>
        <pt x="331" y="255" on="0"/>
        <pt x="373" y="159" on="0"/>
      </contour>
    </TTGlyph>
    <TTGlyph name="approxequal" xMin="124" yMin="253" xMax="1049" yMax="956">
      <contour>
        <pt x="381" y="735" on="1"/>
        <pt x="339" y="735" on="0"/>
        <pt x="270" y="720" on="0"/>
        <pt x="209" y="695" on="0"/>
        <pt x="153" y="661" on="0"/>
        <pt x="124" y="642" on="1"/>
        <pt x="136" y="854" on="1"/>
        <pt x="170" y="878" on="0"/>
        <pt x="231" y="916" on="0"/>
        <pt x="294" y="942" on="0"/>
        <pt x="361" y="956" on="0"/>
        <pt x="402" y="956" on="1"/>
        <pt x="457" y="956" on="0"/>
        <pt x="538" y="934" on="0"/>
        <pt x="600" y="902" on="0"/>
        <pt x="651" y="864" on="0"/>
        <pt x="704" y="832" on="0"/>
        <pt x="766" y="810" on="0"/>
        <pt x="807" y="810" on="1"/>
        <pt x="876" y="810" on="0"/>
        <pt x="998" y="860" on="0"/>
        <pt x="1049" y="902" on="1"/>
        <pt x="1036" y="691" on="1"/>
        <pt x="1014" y="669" on="0"/>
        <pt x="967" y="633" on="0"/>
        <pt x="912" y="606" on="0"/>
        <pt x="847" y="591" on="0"/>
        <pt x="807" y="591" on="1"/>
        <pt x="756" y="591" on="0"/>
        <pt x="676" y="612" on="0"/>
        <pt x="608" y="644" on="0"/>
        <pt x="549" y="682" on="0"/>
        <pt x="489" y="714" on="0"/>
        <pt x="422" y="735" on="0"/>
      </contour>
      <contour>
        <pt x="381" y="397" on="1"/>
        <pt x="339" y="397" on="0"/>
        <pt x="270" y="382" on="0"/>
        <pt x="209" y="357" on="0"/>
        <pt x="153" y="323" on="0"/>
        <pt x="124" y="304" on="1"/>
        <pt x="136" y="516" on="1"/>
        <pt x="170" y="540" on="0"/>
        <pt x="225" y="578" on="0"/>
        <pt x="280" y="604" on="0"/>
        <pt x="341" y="618" on="0"/>
        <pt x="382" y="618" on="1"/>
        <pt x="437" y="618" on="0"/>
        <pt x="521" y="596" on="0"/>
        <pt x="588" y="564" on="0"/>
        <pt x="645" y="526" on="0"/>
        <pt x="702" y="494" on="0"/>
        <pt x="766" y="472" on="0"/>
        <pt x="807" y="472" on="1"/>
        <pt x="876" y="472" on="0"/>
        <pt x="998" y="522" on="0"/>
        <pt x="1049" y="564" on="1"/>
        <pt x="1036" y="353" on="1"/>
        <pt x="991" y="308" on="0"/>
        <pt x="868" y="253" on="0"/>
        <pt x="787" y="253" on="1"/>
        <pt x="736" y="253" on="0"/>
        <pt x="659" y="274" on="0"/>
        <pt x="596" y="306" on="0"/>
        <pt x="542" y="344" on="0"/>
        <pt x="486" y="376" on="0"/>
        <pt x="422" y="397" on="0"/>
      </contour>
    </TTGlyph>
    <TTGlyph name="aring" xMin="52" yMin="-23" xMax="1115" yMax="1628">
      <component glyphName="a" x="0" y="0" flags="0x204"/>
      <component glyphName="ring" x="355" y="0" flags="0x4"/>
    </TTGlyph>
    <TTGlyph name="asciicircum" xMin="111" yMin="894" xMax="1551" yMax="1467">
      <contour>
        <pt x="924" y="1467" on="1"/>
        <pt x="1551" y="894" on="1"/>
        <pt x="1276" y="894" on="1"/>
        <pt x="825" y="1322" on="1"/>
        <pt x="823" y="1322" on="1"/>
        <pt x="373" y="904" on="1"/>
        <pt x="111" y="904" on="1"/>
        <pt x="742" y="1467" on="1"/>
      </contour>
    </TTGlyph>
    <TTGlyph name="asciitilde" xMin="91" yMin="414" xMax="1016" yMax="814">
      <contour>
        <pt x="348" y="568" on="1"/>
        <pt x="306" y="568" on="0"/>
        <pt x="237" y="552" on="0"/>
        <pt x="176" y="525" on="0"/>
        <pt x="120" y="489" on="0"/>
        <pt x="91" y="469" on="1"/>
        <pt x="103" y="705" on="1"/>
        <pt x="137" y="731" on="0"/>
        <pt x="198" y="772" on="0"/>
        <pt x="260" y="800" on="0"/>
        <pt x="328" y="814" on="0"/>
        <pt x="369" y="814" on="1"/>
        <pt x="424" y="814" on="0"/>
        <pt x="505" y="791" on="0"/>
        <pt x="567" y="757" on="0"/>
        <pt x="618" y="716" on="0"/>
        <pt x="672" y="682" on="0"/>
        <pt x="734" y="659" on="0"/>
        <pt x="776" y="659" on="1"/>
        <pt x="843" y="659" on="0"/>
        <pt x="965" y="712" on="0"/>
        <pt x="1016" y="757" on="1"/>
        <pt x="1003" y="521" on="1"/>
        <pt x="958" y="473" on="0"/>
        <pt x="835" y="414" on="0"/>
        <pt x="754" y="414" on="1"/>
        <pt x="703" y="414" on="0"/>
        <pt x="626" y="437" on="0"/>
        <pt x="563" y="471" on="0"/>
        <pt x="509" y="511" on="0"/>
        <pt x="453" y="545" on="0"/>
        <pt x="389" y="568" on="0"/>
      </contour>
    </TTGlyph>
    <TTGlyph name="asterisk" xMin="99" yMin="585" xMax="1016" yMax="1467">
      <contour>
        <pt x="506" y="1060" on="1"/>
        <pt x="483" y="1139" on="0"/>
        <pt x="466" y="1254" on="0"/>
        <pt x="466" y="1296" on="1"/>
        <pt x="466" y="1324" on="0"/>
        <pt x="473" y="1385" on="0"/>
        <pt x="496" y="1435" on="0"/>
        <pt x="540" y="1467" on="0"/>
        <pt x="577" y="1467" on="1"/>
        <pt x="607" y="1467" on="0"/>
        <pt x="644" y="1445" on="0"/>
        <pt x="665" y="1410" on="0"/>
        <pt x="672" y="1364" on="0"/>
        <pt x="672" y="1340" on="1"/>
        <pt x="672" y="1296" on="0"/>
        <pt x="645" y="1162" on="0"/>
        <pt x="605" y="1060" on="1"/>
        <pt x="666" y="1103" on="0"/>
        <pt x="761" y="1159" on="0"/>
        <pt x="836" y="1192" on="0"/>
        <pt x="895" y="1205" on="0"/>
        <pt x="920" y="1205" on="1"/>
        <pt x="936" y="1205" on="0"/>
        <pt x="971" y="1195" on="0"/>
        <pt x="998" y="1172" on="0"/>
        <pt x="1016" y="1134" on="0"/>
        <pt x="1016" y="1106" on="1"/>
        <pt x="1016" y="1083" on="0"/>
        <pt x="995" y="1047" on="0"/>
        <pt x="961" y="1021" on="0"/>
        <pt x="919" y="1002" on="0"/>
        <pt x="897" y="995" on="1"/>
        <pt x="853" y="981" on="0"/>
        <pt x="727" y="965" on="0"/>
        <pt x="630" y="965" on="1"/>
        <pt x="705" y="908" on="0"/>
        <pt x="793" y="823" on="0"/>
        <pt x="816" y="789" on="1"/>
        <pt x="833" y="765" on="0"/>
        <pt x="856" y="711" on="0"/>
        <pt x="856" y="685" on="1"/>
        <pt x="856" y="669" on="0"/>
        <pt x="839" y="634" on="0"/>
        <pt x="811" y="604" on="0"/>
        <pt x="772" y="585" on="0"/>
        <pt x="751" y="585" on="1"/>
        <pt x="717" y="585" on="0"/>
        <pt x="665" y="632" on="0"/>
        <pt x="645" y="662" on="1"/>
        <pt x="622" y="698" on="0"/>
        <pt x="571" y="816" on="0"/>
        <pt x="548" y="907" on="1"/>
        <pt x="513" y="815" on="0"/>
        <pt x="454" y="703" on="0"/>
        <pt x="427" y="668" on="1"/>
        <pt x="402" y="637" on="0"/>
        <pt x="343" y="586" on="0"/>
        <pt x="308" y="586" on="1"/>
        <pt x="288" y="586" on="0"/>
        <pt x="254" y="603" on="0"/>
        <pt x="227" y="630" on="0"/>
        <pt x="212" y="663" on="0"/>
        <pt x="212" y="678" on="1"/>
        <pt x="212" y="705" on="0"/>
        <pt x="241" y="759" on="0"/>
        <pt x="261" y="784" on="1"/>
        <pt x="289" y="819" on="0"/>
        <pt x="388" y="910" on="0"/>
        <pt x="470" y="965" on="1"/>
        <pt x="372" y="965" on="0"/>
        <pt x="248" y="982" on="0"/>
        <pt x="207" y="996" on="1"/>
        <pt x="186" y="1003" on="0"/>
        <pt x="147" y="1022" on="0"/>
        <pt x="117" y="1047" on="0"/>
        <pt x="99" y="1081" on="0"/>
        <pt x="99" y="1102" on="1"/>
        <pt x="99" y="1132" on="0"/>
        <pt x="118" y="1172" on="0"/>
        <pt x="147" y="1196" on="0"/>
        <pt x="181" y="1207" on="0"/>
        <pt x="196" y="1207" on="1"/>
        <pt x="221" y="1207" on="0"/>
        <pt x="280" y="1195" on="0"/>
        <pt x="354" y="1162" on="0"/>
        <pt x="447" y="1105" on="0"/>
      </contour>
    </TTGlyph>
    <TTGlyph name="at" xMin="59" yMin="-206" xMax="1507" yMax="1304">
      <contour>
        <pt x="673" y="297" on="1"/>
        <pt x="699" y="297" on="0"/>
        <pt x="755" y="352" on="0"/>
        <pt x="808" y="444" on="0"/>
        <pt x="858" y="563" on="0"/>
        <pt x="898" y="694" on="0"/>
        <pt x="926" y="826" on="0"/>
        <pt x="932" y="884" on="1"/>
        <pt x="919" y="889" on="0"/>
        <pt x="875" y="893" on="0"/>
        <pt x="857" y="891" on="1"/>
        <pt x="804" y="886" on="0"/>
        <pt x="716" y="800" on="0"/>
        <pt x="653" y="671" on="0"/>
        <pt x="615" y="517" on="0"/>
        <pt x="611" y="446" on="1"/>
        <pt x="607" y="374" on="0"/>
        <pt x="641" y="297" on="0"/>
      </contour>
      <contour>
        <pt x="1359" y="57" on="1"/>
        <pt x="1238" y="-71" on="0"/>
        <pt x="940" y="-199" on="0"/>
        <pt x="779" y="-203" on="1"/>
        <pt x="654" y="-206" on="0"/>
        <pt x="448" y="-154" on="0"/>
        <pt x="286" y="-58" on="0"/>
        <pt x="167" y="78" on="0"/>
        <pt x="92" y="242" on="0"/>
        <pt x="59" y="427" on="0"/>
        <pt x="64" y="525" on="1"/>
        <pt x="69" y="612" on="0"/>
        <pt x="123" y="795" on="0"/>
        <pt x="218" y="968" on="0"/>
        <pt x="355" y="1122" on="0"/>
        <pt x="530" y="1237" on="0"/>
        <pt x="742" y="1304" on="0"/>
        <pt x="865" y="1304" on="1"/>
        <pt x="977" y="1304" on="0"/>
        <pt x="1162" y="1250" on="0"/>
        <pt x="1308" y="1154" on="0"/>
        <pt x="1414" y="1024" on="0"/>
        <pt x="1480" y="872" on="0"/>
        <pt x="1507" y="705" on="0"/>
        <pt x="1500" y="621" on="1"/>
        <pt x="1493" y="537" on="0"/>
        <pt x="1447" y="400" on="0"/>
        <pt x="1378" y="293" on="0"/>
        <pt x="1291" y="215" on="0"/>
        <pt x="1198" y="165" on="0"/>
        <pt x="1103" y="143" on="0"/>
        <pt x="1061" y="146" on="1"/>
        <pt x="1024" y="148" on="0"/>
        <pt x="952" y="172" on="0"/>
        <pt x="900" y="231" on="0"/>
        <pt x="875" y="331" on="0"/>
        <pt x="886" y="410" on="1"/>
        <pt x="855" y="341" on="0"/>
        <pt x="786" y="244" on="0"/>
        <pt x="714" y="183" on="0"/>
        <pt x="643" y="156" on="0"/>
        <pt x="610" y="156" on="1"/>
        <pt x="567" y="156" on="0"/>
        <pt x="492" y="190" on="0"/>
        <pt x="437" y="262" on="0"/>
        <pt x="409" y="374" on="0"/>
        <pt x="413" y="453" on="1"/>
        <pt x="418" y="553" on="0"/>
        <pt x="488" y="746" on="0"/>
        <pt x="613" y="899" on="0"/>
        <pt x="792" y="993" on="0"/>
        <pt x="907" y="993" on="1"/>
        <pt x="952" y="993" on="0"/>
        <pt x="1076" y="972" on="0"/>
        <pt x="1144" y="950" on="1"/>
        <pt x="1135" y="904" on="0"/>
        <pt x="1115" y="796" on="0"/>
        <pt x="1094" y="684" on="0"/>
        <pt x="1075" y="572" on="0"/>
        <pt x="1059" y="473" on="0"/>
        <pt x="1048" y="391" on="0"/>
        <pt x="1047" y="365" on="1"/>
        <pt x="1046" y="342" on="0"/>
        <pt x="1050" y="299" on="0"/>
        <pt x="1066" y="265" on="0"/>
        <pt x="1097" y="244" on="0"/>
        <pt x="1122" y="244" on="1"/>
        <pt x="1162" y="244" on="0"/>
        <pt x="1228" y="283" on="0"/>
        <pt x="1279" y="347" on="0"/>
        <pt x="1316" y="430" on="0"/>
        <pt x="1342" y="517" on="0"/>
        <pt x="1355" y="603" on="0"/>
        <pt x="1357" y="639" on="1"/>
        <pt x="1364" y="779" on="0"/>
        <pt x="1293" y="994" on="0"/>
        <pt x="1155" y="1141" on="0"/>
        <pt x="962" y="1216" on="0"/>
        <pt x="849" y="1216" on="1"/>
        <pt x="761" y="1216" on="0"/>
        <pt x="603" y="1164" on="0"/>
        <pt x="466" y="1072" on="0"/>
        <pt x="355" y="944" on="0"/>
        <pt x="273" y="794" on="0"/>
        <pt x="225" y="625" on="0"/>
        <pt x="221" y="537" on="1"/>
        <pt x="213" y="382" on="0"/>
        <pt x="300" y="143" on="0"/>
        <pt x="462" y="-19" on="0"/>
        <pt x="684" y="-103" on="0"/>
        <pt x="810" y="-103" on="1"/>
        <pt x="872" y="-103" on="0"/>
        <pt x="1007" y="-76" on="0"/>
        <pt x="1139" y="-23" on="0"/>
        <pt x="1264" y="58" on="0"/>
        <pt x="1316" y="112" on="1"/>
      </contour>
    </TTGlyph>
    <TTGlyph name="atilde" xMin="52" yMin="-23" xMax="1115" yMax="1539">
      <component glyphName="a" x="0" y="0" flags="0x204"/>
      <component glyphName="tilde" x="238" y="0" flags="0x4"/>
    </TTGlyph>
    <TTGlyph name="b" xMin="30" yMin="-23" xMax="978" yMax="1546">
      <contour>
        <pt x="461" y="1546" on="1"/>
        <pt x="455" y="1502" on="0"/>
        <pt x="442" y="1383" on="0"/>
        <pt x="430" y="1264" on="0"/>
        <pt x="408" y="1037" on="0"/>
        <pt x="399" y="945" on="0"/>
        <pt x="387" y="846" on="0"/>
        <pt x="380" y="804" on="1"/>
        <pt x="382" y="804" on="1"/>
        <pt x="417" y="871" on="0"/>
        <pt x="497" y="964" on="0"/>
        <pt x="577" y="1022" on="0"/>
        <pt x="654" y="1047" on="0"/>
        <pt x="687" y="1047" on="1"/>
        <pt x="764" y="1047" on="0"/>
        <pt x="874" y="982" on="0"/>
        <pt x="945" y="874" on="0"/>
        <pt x="978" y="732" on="0"/>
        <pt x="978" y="655" on="1"/>
        <pt x="978" y="517" on="0"/>
        <pt x="918" y="271" on="0"/>
        <pt x="786" y="85" on="0"/>
        <pt x="575" y="-23" on="0"/>
        <pt x="424" y="-23" on="1"/>
        <pt x="400" y="-23" on="0"/>
        <pt x="321" y="-17" on="0"/>
        <pt x="230" y="-4" on="0"/>
        <pt x="136" y="17" on="0"/>
        <pt x="96" y="32" on="1"/>
        <pt x="127" y="676" on="0"/>
        <pt x="138" y="851" on="0"/>
        <pt x="149" y="1039" on="0"/>
        <pt x="159" y="1211" on="0"/>
        <pt x="169" y="1313" on="0"/>
        <pt x="172" y="1336" on="1"/>
        <pt x="30" y="1330" on="1"/>
        <pt x="38" y="1485" on="1"/>
        <pt x="109" y="1485" on="0"/>
        <pt x="216" y="1497" on="0"/>
        <pt x="292" y="1515" on="0"/>
        <pt x="339" y="1536" on="0"/>
        <pt x="350" y="1546" on="1"/>
      </contour>
      <contour>
        <pt x="605" y="858" on="1"/>
        <pt x="572" y="858" on="0"/>
        <pt x="510" y="804" on="0"/>
        <pt x="455" y="708" on="0"/>
        <pt x="409" y="573" on="0"/>
        <pt x="375" y="412" on="0"/>
        <pt x="354" y="228" on="0"/>
        <pt x="352" y="131" on="1"/>
        <pt x="360" y="127" on="0"/>
        <pt x="386" y="120" on="0"/>
        <pt x="415" y="116" on="0"/>
        <pt x="443" y="113" on="0"/>
        <pt x="453" y="113" on="1"/>
        <pt x="508" y="113" on="0"/>
        <pt x="588" y="168" on="0"/>
        <pt x="642" y="259" on="0"/>
        <pt x="675" y="376" on="0"/>
        <pt x="693" y="499" on="0"/>
        <pt x="698" y="618" on="0"/>
        <pt x="698" y="666" on="1"/>
        <pt x="698" y="721" on="0"/>
        <pt x="682" y="795" on="0"/>
        <pt x="656" y="840" on="0"/>
        <pt x="623" y="858" on="0"/>
      </contour>
    </TTGlyph>
    <TTGlyph name="backslash" xMin="90" yMin="-555" xMax="1516" yMax="1547">
      <contour>
        <pt x="263" y="1547" on="1"/>
        <pt x="1516" y="-451" on="1"/>
        <pt x="1370" y="-555" on="1"/>
        <pt x="90" y="1427" on="1"/>
      </contour>
    </TTGlyph>
    <TTGlyph name="bar" xMin="70" yMin="-555" xMax="403" yMax="1556">
      <contour>
        <pt x="403" y="1556" on="1"/>
        <pt x="285" y="-555" on="1"/>
        <pt x="70" y="-555" on="1"/>
        <pt x="175" y="1556" on="1"/>
      </contour>
    </TTGlyph>
    <TTGlyph name="braceleft" xMin="-6" yMin="-555" xMax="730" yMax="1556">
      <contour>
        <pt x="472" y="779" on="1"/>
        <pt x="470" y="726" on="0"/>
        <pt x="436" y="646" on="0"/>
        <pt x="379" y="585" on="0"/>
        <pt x="300" y="541" on="0"/>
        <pt x="254" y="524" on="1"/>
        <pt x="254" y="522" on="1"/>
        <pt x="299" y="502" on="0"/>
        <pt x="370" y="453" on="0"/>
        <pt x="419" y="390" on="0"/>
        <pt x="445" y="310" on="0"/>
        <pt x="445" y="258" on="1"/>
        <pt x="445" y="243" on="0"/>
        <pt x="439" y="188" on="0"/>
        <pt x="429" y="119" on="0"/>
        <pt x="419" y="41" on="0"/>
        <pt x="409" y="-34" on="0"/>
        <pt x="403" y="-102" on="0"/>
        <pt x="403" y="-126" on="1"/>
        <pt x="403" y="-183" on="0"/>
        <pt x="427" y="-289" on="0"/>
        <pt x="481" y="-371" on="0"/>
        <pt x="571" y="-420" on="0"/>
        <pt x="637" y="-420" on="1"/>
        <pt x="628" y="-555" on="1"/>
        <pt x="528" y="-555" on="1"/>
        <pt x="427" y="-555" on="0"/>
        <pt x="290" y="-487" on="0"/>
        <pt x="206" y="-368" on="0"/>
        <pt x="170" y="-205" on="0"/>
        <pt x="170" y="-110" on="1"/>
        <pt x="170" y="-95" on="0"/>
        <pt x="175" y="-29" on="0"/>
        <pt x="184" y="56" on="0"/>
        <pt x="193" y="150" on="0"/>
        <pt x="202" y="235" on="0"/>
        <pt x="207" y="303" on="0"/>
        <pt x="207" y="319" on="1"/>
        <pt x="207" y="348" on="0"/>
        <pt x="195" y="397" on="0"/>
        <pt x="167" y="433" on="0"/>
        <pt x="122" y="453" on="0"/>
        <pt x="89" y="453" on="1"/>
        <pt x="-6" y="453" on="1"/>
        <pt x="5" y="589" on="1"/>
        <pt x="94" y="589" on="1"/>
        <pt x="132" y="589" on="0"/>
        <pt x="183" y="607" on="0"/>
        <pt x="214" y="643" on="0"/>
        <pt x="229" y="696" on="0"/>
        <pt x="231" y="731" on="1"/>
        <pt x="231" y="737" on="0"/>
        <pt x="231" y="789" on="0"/>
        <pt x="230" y="862" on="0"/>
        <pt x="229" y="947" on="0"/>
        <pt x="228" y="1023" on="0"/>
        <pt x="228" y="1081" on="0"/>
        <pt x="228" y="1091" on="1"/>
        <pt x="228" y="1199" on="0"/>
        <pt x="272" y="1371" on="0"/>
        <pt x="368" y="1492" on="0"/>
        <pt x="520" y="1556" on="0"/>
        <pt x="627" y="1556" on="1"/>
        <pt x="730" y="1556" on="1"/>
        <pt x="723" y="1421" on="1"/>
        <pt x="652" y="1421" on="0"/>
        <pt x="553" y="1369" on="0"/>
        <pt x="490" y="1278" on="0"/>
        <pt x="462" y="1155" on="0"/>
        <pt x="462" y="1085" on="1"/>
        <pt x="462" y="1064" on="0"/>
        <pt x="465" y="992" on="0"/>
        <pt x="469" y="910" on="0"/>
        <pt x="472" y="829" on="0"/>
        <pt x="472" y="801" on="1"/>
      </contour>
    </TTGlyph>
    <TTGlyph name="braceright" xMin="-40" yMin="-555" xMax="696" yMax="1556">
      <contour>
        <pt x="218" y="222" on="1"/>
        <pt x="220" y="275" on="0"/>
        <pt x="254" y="355" on="0"/>
        <pt x="311" y="416" on="0"/>
        <pt x="390" y="460" on="0"/>
        <pt x="436" y="477" on="1"/>
        <pt x="436" y="479" on="1"/>
        <pt x="391" y="499" on="0"/>
        <pt x="320" y="548" on="0"/>
        <pt x="271" y="611" on="0"/>
        <pt x="245" y="691" on="0"/>
        <pt x="245" y="743" on="1"/>
        <pt x="245" y="758" on="0"/>
        <pt x="251" y="813" on="0"/>
        <pt x="261" y="882" on="0"/>
        <pt x="271" y="960" on="0"/>
        <pt x="281" y="1035" on="0"/>
        <pt x="287" y="1103" on="0"/>
        <pt x="287" y="1127" on="1"/>
        <pt x="287" y="1184" on="0"/>
        <pt x="263" y="1290" on="0"/>
        <pt x="209" y="1372" on="0"/>
        <pt x="119" y="1421" on="0"/>
        <pt x="53" y="1421" on="1"/>
        <pt x="62" y="1556" on="1"/>
        <pt x="162" y="1556" on="1"/>
        <pt x="263" y="1556" on="0"/>
        <pt x="400" y="1488" on="0"/>
        <pt x="484" y="1369" on="0"/>
        <pt x="520" y="1206" on="0"/>
        <pt x="520" y="1111" on="1"/>
        <pt x="520" y="1096" on="0"/>
        <pt x="515" y="1030" on="0"/>
        <pt x="506" y="945" on="0"/>
        <pt x="497" y="851" on="0"/>
        <pt x="488" y="766" on="0"/>
        <pt x="483" y="698" on="0"/>
        <pt x="483" y="682" on="1"/>
        <pt x="483" y="653" on="0"/>
        <pt x="495" y="604" on="0"/>
        <pt x="523" y="568" on="0"/>
        <pt x="568" y="548" on="0"/>
        <pt x="601" y="548" on="1"/>
        <pt x="696" y="548" on="1"/>
        <pt x="685" y="412" on="1"/>
        <pt x="596" y="412" on="1"/>
        <pt x="558" y="412" on="0"/>
        <pt x="507" y="394" on="0"/>
        <pt x="476" y="358" on="0"/>
        <pt x="461" y="305" on="0"/>
        <pt x="459" y="270" on="1"/>
        <pt x="459" y="264" on="0"/>
        <pt x="459" y="212" on="0"/>
        <pt x="460" y="139" on="0"/>
        <pt x="461" y="54" on="0"/>
        <pt x="462" y="-22" on="0"/>
        <pt x="462" y="-80" on="0"/>
        <pt x="462" y="-90" on="1"/>
        <pt x="462" y="-198" on="0"/>
        <pt x="418" y="-370" on="0"/>
        <pt x="322" y="-491" on="0"/>
        <pt x="170" y="-555" on="0"/>
        <pt x="63" y="-555" on="1"/>
        <pt x="-40" y="-555" on="1"/>
        <pt x="-33" y="-420" on="1"/>
        <pt x="38" y="-420" on="0"/>
        <pt x="137" y="-368" on="0"/>
        <pt x="200" y="-277" on="0"/>
        <pt x="228" y="-154" on="0"/>
        <pt x="228" y="-84" on="1"/>
        <pt x="228" y="-63" on="0"/>
        <pt x="225" y="9" on="0"/>
        <pt x="221" y="91" on="0"/>
        <pt x="218" y="172" on="0"/>
        <pt x="218" y="200" on="1"/>
      </contour>
    </TTGlyph>
    <TTGlyph name="bracketleft" xMin="66" yMin="-522" xMax="832" yMax="1546">
      <contour>
        <pt x="177" y="1546" on="1"/>
        <pt x="832" y="1546" on="1"/>
        <pt x="824" y="1401" on="1"/>
        <pt x="429" y="1395" on="1"/>
        <pt x="327" y="-371" on="1"/>
        <pt x="735" y="-377" on="1"/>
        <pt x="727" y="-522" on="1"/>
        <pt x="66" y="-522" on="1"/>
      </contour>
    </TTGlyph>
    <TTGlyph name="bracketright" xMin="-52" yMin="-522" xMax="714" yMax="1546">
      <contour>
        <pt x="603" y="-522" on="1"/>
        <pt x="-52" y="-522" on="1"/>
        <pt x="-44" y="-377" on="1"/>
        <pt x="351" y="-371" on="1"/>
        <pt x="453" y="1395" on="1"/>
        <pt x="45" y="1401" on="1"/>
        <pt x="53" y="1546" on="1"/>
        <pt x="714" y="1546" on="1"/>
      </contour>
    </TTGlyph>
    <TTGlyph name="breve" xMin="92" yMin="1231" xMax="717" yMax="1564">
      <contour>
        <pt x="402" y="1231" on="1"/>
        <pt x="359" y="1231" on="0"/>
        <pt x="269" y="1261" on="0"/>
        <pt x="186" y="1327" on="0"/>
        <pt x="116" y="1431" on="0"/>
        <pt x="92" y="1505" on="1"/>
        <pt x="211" y="1563" on="1"/>
        <pt x="227" y="1534" on="0"/>
        <pt x="266" y="1480" on="0"/>
        <pt x="315" y="1438" on="0"/>
        <pt x="374" y="1413" on="0"/>
        <pt x="410" y="1413" on="1"/>
        <pt x="446" y="1413" on="0"/>
        <pt x="504" y="1439" on="0"/>
        <pt x="552" y="1482" on="0"/>
        <pt x="590" y="1536" on="0"/>
        <pt x="605" y="1564" on="1"/>
        <pt x="717" y="1515" on="1"/>
        <pt x="664" y="1366" on="0"/>
        <pt x="505" y="1231" on="0"/>
      </contour>
    </TTGlyph>
    <TTGlyph name="brokenbar" xMin="85" yMin="-555" xMax="416" yMax="1557">
      <contour>
        <pt x="416" y="1557" on="1"/>
        <pt x="366" y="767" on="1"/>
        <pt x="154" y="767" on="1"/>
        <pt x="190" y="1557" on="1"/>
      </contour>
      <contour>
        <pt x="346" y="231" on="1"/>
        <pt x="297" y="-555" on="1"/>
        <pt x="85" y="-555" on="1"/>
        <pt x="120" y="231" on="1"/>
      </contour>
    </TTGlyph>
    <TTGlyph name="bullet" xMin="72" yMin="426" xMax="718" yMax="1061">
      <contour>
        <pt x="72" y="743" on="1"/>
        <pt x="76" y="811" on="0"/>
        <pt x="132" y="927" on="0"/>
        <pt x="223" y="1013" on="0"/>
        <pt x="343" y="1061" on="0"/>
        <pt x="411" y="1061" on="1"/>
        <pt x="475" y="1061" on="0"/>
        <pt x="588" y="1016" on="0"/>
        <pt x="670" y="936" on="0"/>
        <pt x="718" y="827" on="0"/>
        <pt x="718" y="763" on="1"/>
        <pt x="718" y="692" on="0"/>
        <pt x="665" y="569" on="0"/>
        <pt x="572" y="478" on="0"/>
        <pt x="448" y="426" on="0"/>
        <pt x="378" y="426" on="1"/>
        <pt x="312" y="426" on="0"/>
        <pt x="199" y="472" on="0"/>
        <pt x="118" y="552" on="0"/>
        <pt x="72" y="662" on="0"/>
        <pt x="72" y="727" on="1"/>
      </contour>
    </TTGlyph>
    <TTGlyph name="c" xMin="55" yMin="-23" xMax="904" yMax="1047">
      <contour>
        <pt x="890" y="800" on="1"/>
        <pt x="890" y="738" on="0"/>
        <pt x="820" y="662" on="0"/>
        <pt x="760" y="660" on="1"/>
        <pt x="725" y="659" on="0"/>
        <pt x="676" y="683" on="0"/>
        <pt x="646" y="720" on="0"/>
        <pt x="633" y="763" on="0"/>
        <pt x="633" y="781" on="1"/>
        <pt x="633" y="799" on="0"/>
        <pt x="642" y="846" on="0"/>
        <pt x="653" y="866" on="1"/>
        <pt x="645" y="885" on="0"/>
        <pt x="592" y="912" on="0"/>
        <pt x="556" y="912" on="1"/>
        <pt x="512" y="912" on="0"/>
        <pt x="446" y="870" on="0"/>
        <pt x="397" y="801" on="0"/>
        <pt x="365" y="711" on="0"/>
        <pt x="346" y="614" on="0"/>
        <pt x="336" y="518" on="0"/>
        <pt x="335" y="477" on="1"/>
        <pt x="332" y="393" on="0"/>
        <pt x="361" y="278" on="0"/>
        <pt x="410" y="204" on="0"/>
        <pt x="473" y="169" on="0"/>
        <pt x="505" y="166" on="1"/>
        <pt x="533" y="163" on="0"/>
        <pt x="605" y="175" on="0"/>
        <pt x="680" y="220" on="0"/>
        <pt x="755" y="307" on="0"/>
        <pt x="787" y="379" on="1"/>
        <pt x="904" y="322" on="1"/>
        <pt x="860" y="221" on="0"/>
        <pt x="757" y="89" on="0"/>
        <pt x="643" y="10" on="0"/>
        <pt x="521" y="-22" on="0"/>
        <pt x="457" y="-23" on="1"/>
        <pt x="367" y="-22" on="0"/>
        <pt x="219" y="32" on="0"/>
        <pt x="113" y="142" on="0"/>
        <pt x="55" y="310" on="0"/>
        <pt x="55" y="424" on="1"/>
        <pt x="55" y="490" on="0"/>
        <pt x="82" y="634" on="0"/>
        <pt x="137" y="772" on="0"/>
        <pt x="221" y="897" on="0"/>
        <pt x="333" y="991" on="0"/>
        <pt x="474" y="1047" on="0"/>
        <pt x="559" y="1047" on="1"/>
        <pt x="629" y="1047" on="0"/>
        <pt x="751" y="1012" on="0"/>
        <pt x="839" y="947" on="0"/>
        <pt x="890" y="856" on="0"/>
      </contour>
    </TTGlyph>
    <TTGlyph name="cacute" xMin="55" yMin="-23" xMax="907" yMax="1606">
      <component glyphName="c" x="0" y="0" flags="0x0"/>
      <component glyphName="acute" x="400" y="0" flags="0x0"/>
    </TTGlyph>
    <TTGlyph name="caron" xMin="92" yMin="1167" xMax="781" yMax="1614">
      <contour>
        <pt x="428" y="1167" on="1"/>
        <pt x="407" y="1167" on="1"/>
        <pt x="92" y="1514" on="1"/>
        <pt x="179" y="1609" on="1"/>
        <pt x="439" y="1395" on="1"/>
        <pt x="441" y="1395" on="1"/>
        <pt x="706" y="1614" on="1"/>
        <pt x="781" y="1521" on="1"/>
      </contour>
    </TTGlyph>
    <TTGlyph name="caroncomb.alt" xMin="252" yMin="1113" xMax="521" yMax="1608">
      <contour>
        <pt x="489" y="1574" on="1"/>
        <pt x="509" y="1533" on="0"/>
        <pt x="521" y="1475" on="0"/>
        <pt x="517" y="1437" on="1"/>
        <pt x="513" y="1393" on="0"/>
        <pt x="480" y="1306" on="0"/>
        <pt x="430" y="1223" on="0"/>
        <pt x="366" y="1146" on="0"/>
        <pt x="331" y="1113" on="1"/>
        <pt x="252" y="1171" on="1"/>
        <pt x="289" y="1240" on="0"/>
        <pt x="326" y="1357" on="0"/>
        <pt x="335" y="1462" on="0"/>
        <pt x="320" y="1559" on="0"/>
        <pt x="307" y="1608" on="1"/>
      </contour>
    </TTGlyph>
    <TTGlyph name="ccaron" xMin="56" yMin="-23" xMax="969" yMax="1614">
      <component glyphName="c" x="1" y="0" flags="0x0"/>
      <component glyphName="caron" x="188" y="0" flags="0x0"/>
    </TTGlyph>
    <TTGlyph name="ccedilla" xMin="55" yMin="-530" xMax="904" yMax="1047">
      <contour>
        <pt x="584" y="-109" on="1"/>
        <pt x="616" y="-110" on="0"/>
        <pt x="670" y="-127" on="0"/>
        <pt x="708" y="-162" on="0"/>
        <pt x="728" y="-215" on="0"/>
        <pt x="726" y="-252" on="1"/>
        <pt x="723" y="-300" on="0"/>
        <pt x="673" y="-375" on="0"/>
        <pt x="592" y="-433" on="0"/>
        <pt x="491" y="-476" on="0"/>
        <pt x="386" y="-506" on="0"/>
        <pt x="286" y="-525" on="0"/>
        <pt x="246" y="-530" on="1"/>
        <pt x="236" y="-424" on="1"/>
        <pt x="252" y="-421" on="0"/>
        <pt x="302" y="-411" on="0"/>
        <pt x="358" y="-396" on="0"/>
        <pt x="415" y="-376" on="0"/>
        <pt x="461" y="-349" on="0"/>
        <pt x="491" y="-315" on="0"/>
        <pt x="492" y="-294" on="1"/>
        <pt x="493" y="-268" on="0"/>
        <pt x="461" y="-245" on="0"/>
        <pt x="415" y="-244" on="0"/>
        <pt x="366" y="-260" on="0"/>
        <pt x="351" y="-272" on="1"/>
        <pt x="276" y="-240" on="1"/>
        <pt x="344" y="-10" on="1"/>
        <pt x="278" y="5" on="0"/>
        <pt x="171" y="74" on="0"/>
        <pt x="96" y="181" on="0"/>
        <pt x="55" y="329" on="0"/>
        <pt x="55" y="424" on="1"/>
        <pt x="55" y="490" on="0"/>
        <pt x="82" y="634" on="0"/>
        <pt x="137" y="772" on="0"/>
        <pt x="221" y="897" on="0"/>
        <pt x="333" y="991" on="0"/>
        <pt x="474" y="1047" on="0"/>
        <pt x="559" y="1047" on="1"/>
        <pt x="629" y="1047" on="0"/>
        <pt x="751" y="1012" on="0"/>
        <pt x="839" y="947" on="0"/>
        <pt x="890" y="856" on="0"/>
        <pt x="890" y="800" on="1"/>
        <pt x="890" y="738" on="0"/>
        <pt x="820" y="662" on="0"/>
        <pt x="760" y="660" on="1"/>
        <pt x="725" y="659" on="0"/>
        <pt x="676" y="683" on="0"/>
        <pt x="646" y="720" on="0"/>
        <pt x="633" y="763" on="0"/>
        <pt x="633" y="781" on="1"/>
        <pt x="633" y="799" on="0"/>
        <pt x="642" y="846" on="0"/>
        <pt x="653" y="866" on="1"/>
        <pt x="645" y="885" on="0"/>
        <pt x="592" y="912" on="0"/>
        <pt x="556" y="912" on="1"/>
        <pt x="512" y="912" on="0"/>
        <pt x="446" y="870" on="0"/>
        <pt x="397" y="801" on="0"/>
        <pt x="365" y="711" on="0"/>
        <pt x="346" y="614" on="0"/>
        <pt x="336" y="518" on="0"/>
        <pt x="335" y="477" on="1"/>
        <pt x="332" y="393" on="0"/>
        <pt x="361" y="278" on="0"/>
        <pt x="410" y="204" on="0"/>
        <pt x="473" y="169" on="0"/>
        <pt x="505" y="166" on="1"/>
        <pt x="533" y="163" on="0"/>
        <pt x="605" y="175" on="0"/>
        <pt x="680" y="220" on="0"/>
        <pt x="755" y="307" on="0"/>
        <pt x="787" y="379" on="1"/>
        <pt x="904" y="322" on="1"/>
        <pt x="863" y="228" on="0"/>
        <pt x="768" y="100" on="0"/>
        <pt x="663" y="21" on="0"/>
        <pt x="550" y="-17" on="0"/>
        <pt x="491" y="-21" on="1"/>
        <pt x="440" y="-141" on="1"/>
        <pt x="442" y="-141" on="1"/>
        <pt x="455" y="-134" on="0"/>
        <pt x="492" y="-122" on="0"/>
        <pt x="532" y="-113" on="0"/>
        <pt x="570" y="-109" on="0"/>
      </contour>
    </TTGlyph>
    <TTGlyph name="cedilla" xMin="92" yMin="-530" xMax="584" yMax="20">
      <contour>
        <pt x="440" y="-109" on="1"/>
        <pt x="472" y="-110" on="0"/>
        <pt x="526" y="-127" on="0"/>
        <pt x="564" y="-162" on="0"/>
        <pt x="584" y="-215" on="0"/>
        <pt x="582" y="-252" on="1"/>
        <pt x="579" y="-300" on="0"/>
        <pt x="529" y="-375" on="0"/>
        <pt x="448" y="-433" on="0"/>
        <pt x="347" y="-476" on="0"/>
        <pt x="242" y="-506" on="0"/>
        <pt x="142" y="-525" on="0"/>
        <pt x="102" y="-530" on="1"/>
        <pt x="92" y="-424" on="1"/>
        <pt x="108" y="-421" on="0"/>
        <pt x="158" y="-411" on="0"/>
        <pt x="214" y="-396" on="0"/>
        <pt x="271" y="-376" on="0"/>
        <pt x="317" y="-349" on="0"/>
        <pt x="347" y="-315" on="0"/>
        <pt x="348" y="-294" on="1"/>
        <pt x="349" y="-268" on="0"/>
        <pt x="317" y="-245" on="0"/>
        <pt x="271" y="-244" on="0"/>
        <pt x="222" y="-260" on="0"/>
        <pt x="207" y="-272" on="1"/>
        <pt x="132" y="-240" on="1"/>
        <pt x="209" y="20" on="1"/>
        <pt x="365" y="20" on="1"/>
        <pt x="296" y="-141" on="1"/>
        <pt x="298" y="-141" on="1"/>
        <pt x="311" y="-134" on="0"/>
        <pt x="348" y="-122" on="0"/>
        <pt x="388" y="-113" on="0"/>
        <pt x="426" y="-109" on="0"/>
      </contour>
    </TTGlyph>
    <TTGlyph name="cent" xMin="70" yMin="-274" xMax="919" yMax="1280">
      <contour>
        <pt x="905" y="800" on="1"/>
        <pt x="905" y="737" on="0"/>
        <pt x="833" y="660" on="0"/>
        <pt x="770" y="660" on="1"/>
        <pt x="736" y="660" on="0"/>
        <pt x="690" y="685" on="0"/>
        <pt x="661" y="721" on="0"/>
        <pt x="648" y="763" on="0"/>
        <pt x="648" y="781" on="1"/>
        <pt x="648" y="799" on="0"/>
        <pt x="657" y="846" on="0"/>
        <pt x="668" y="866" on="1"/>
        <pt x="660" y="885" on="0"/>
        <pt x="607" y="912" on="0"/>
        <pt x="571" y="912" on="1"/>
        <pt x="525" y="912" on="0"/>
        <pt x="456" y="866" on="0"/>
        <pt x="407" y="790" on="0"/>
        <pt x="375" y="692" on="0"/>
        <pt x="356" y="590" on="0"/>
        <pt x="349" y="491" on="0"/>
        <pt x="349" y="451" on="1"/>
        <pt x="349" y="367" on="0"/>
        <pt x="385" y="256" on="0"/>
        <pt x="442" y="191" on="0"/>
        <pt x="510" y="165" on="0"/>
        <pt x="542" y="165" on="1"/>
        <pt x="570" y="165" on="0"/>
        <pt x="637" y="183" on="0"/>
        <pt x="706" y="231" on="0"/>
        <pt x="773" y="314" on="0"/>
        <pt x="802" y="379" on="1"/>
        <pt x="919" y="322" on="1"/>
        <pt x="881" y="236" on="0"/>
        <pt x="795" y="115" on="0"/>
        <pt x="701" y="34" on="0"/>
        <pt x="599" y="-9" on="0"/>
        <pt x="546" y="-17" on="1"/>
        <pt x="518" y="-274" on="1"/>
        <pt x="321" y="-274" on="1"/>
        <pt x="348" y="-7" on="1"/>
        <pt x="284" y="9" on="0"/>
        <pt x="181" y="78" on="0"/>
        <pt x="109" y="185" on="0"/>
        <pt x="70" y="331" on="0"/>
        <pt x="70" y="424" on="1"/>
        <pt x="70" y="482" on="0"/>
        <pt x="91" y="608" on="0"/>
        <pt x="134" y="732" on="0"/>
        <pt x="199" y="847" on="0"/>
        <pt x="286" y="944" on="0"/>
        <pt x="395" y="1015" on="0"/>
        <pt x="461" y="1032" on="1"/>
        <pt x="485" y="1280" on="1"/>
        <pt x="695" y="1280" on="1"/>
        <pt x="669" y="1038" on="1"/>
        <pt x="721" y="1028" on="0"/>
        <pt x="808" y="986" on="0"/>
        <pt x="870" y="924" on="0"/>
        <pt x="905" y="846" on="0"/>
      </contour>
    </TTGlyph>
    <TTGlyph name="circumflex" xMin="90" yMin="1162" xMax="788" yMax="1603">
      <contour>
        <pt x="457" y="1603" on="1"/>
        <pt x="478" y="1603" on="1"/>
        <pt x="788" y="1256" on="1"/>
        <pt x="699" y="1162" on="1"/>
        <pt x="443" y="1374" on="1"/>
        <pt x="441" y="1374" on="1"/>
        <pt x="162" y="1169" on="1"/>
        <pt x="90" y="1266" on="1"/>
      </contour>
    </TTGlyph>
    <TTGlyph name="colon" xMin="100" yMin="-33" xMax="421" yMax="1112">
      <component glyphName="period" x="45" y="0" flags="0x4"/>
      <component glyphName="period" x="65" y="825" flags="0x4"/>
    </TTGlyph>
    <TTGlyph name="comma" xMin="54" yMin="-382" xMax="390" yMax="282">
      <contour>
        <pt x="388" y="65" on="1"/>
        <pt x="383" y="-34" on="0"/>
        <pt x="279" y="-264" on="0"/>
        <pt x="176" y="-382" on="1"/>
        <pt x="100" y="-325" on="1"/>
        <pt x="117" y="-305" on="0"/>
        <pt x="162" y="-232" on="0"/>
        <pt x="203" y="-144" on="0"/>
        <pt x="233" y="-47" on="0"/>
        <pt x="234" y="-2" on="1"/>
        <pt x="219" y="-7" on="0"/>
        <pt x="201" y="-9" on="0"/>
        <pt x="190" y="-9" on="1"/>
        <pt x="163" y="-9" on="0"/>
        <pt x="112" y="7" on="0"/>
        <pt x="75" y="40" on="0"/>
        <pt x="54" y="91" on="0"/>
        <pt x="56" y="127" on="1"/>
        <pt x="57" y="157" on="0"/>
        <pt x="81" y="213" on="0"/>
        <pt x="122" y="255" on="0"/>
        <pt x="178" y="281" on="0"/>
        <pt x="211" y="281" on="1"/>
        <pt x="258" y="282" on="0"/>
        <pt x="327" y="249" on="0"/>
        <pt x="371" y="191" on="0"/>
        <pt x="390" y="111" on="0"/>
      </contour>
    </TTGlyph>
    <TTGlyph name="commaaccentcomb" xMin="72" yMin="-602" xMax="432" yMax="-73">
      <contour>
        <pt x="397" y="-73" on="1"/>
        <pt x="416" y="-109" on="0"/>
        <pt x="432" y="-185" on="0"/>
        <pt x="429" y="-221" on="1"/>
        <pt x="426" y="-266" on="0"/>
        <pt x="383" y="-366" on="0"/>
        <pt x="314" y="-465" on="0"/>
        <pt x="226" y="-561" on="0"/>
        <pt x="178" y="-602" on="1"/>
        <pt x="72" y="-519" on="1"/>
        <pt x="117" y="-451" on="0"/>
        <pt x="165" y="-350" on="0"/>
        <pt x="185" y="-262" on="0"/>
        <pt x="182" y="-176" on="0"/>
        <pt x="176" y="-122" on="1"/>
      </contour>
    </TTGlyph>
    <TTGlyph name="copyright" xMin="68" yMin="-146" xMax="1768" yMax="1546">
      <contour>
        <pt x="967" y="1071" on="1"/>
        <pt x="913" y="1071" on="0"/>
        <pt x="812" y="1017" on="0"/>
        <pt x="734" y="922" on="0"/>
        <pt x="684" y="791" on="0"/>
        <pt x="680" y="715" on="1"/>
        <pt x="677" y="646" on="0"/>
        <pt x="714" y="519" on="0"/>
        <pt x="790" y="421" on="0"/>
        <pt x="902" y="362" on="0"/>
        <pt x="974" y="361" on="1"/>
        <pt x="1048" y="359" on="0"/>
        <pt x="1208" y="435" on="0"/>
        <pt x="1273" y="511" on="1"/>
        <pt x="1355" y="428" on="1"/>
        <pt x="1300" y="358" on="0"/>
        <pt x="1179" y="267" on="0"/>
        <pt x="1061" y="213" on="0"/>
        <pt x="951" y="192" on="0"/>
        <pt x="908" y="192" on="1"/>
        <pt x="801" y="192" on="0"/>
        <pt x="625" y="270" on="0"/>
        <pt x="501" y="405" on="0"/>
        <pt x="437" y="588" on="0"/>
        <pt x="443" y="693" on="1"/>
        <pt x="446" y="753" on="0"/>
        <pt x="480" y="878" on="0"/>
        <pt x="540" y="995" on="0"/>
        <pt x="627" y="1096" on="0"/>
        <pt x="740" y="1171" on="0"/>
        <pt x="879" y="1211" on="0"/>
        <pt x="962" y="1208" on="1"/>
        <pt x="1024" y="1206" on="0"/>
        <pt x="1142" y="1175" on="0"/>
        <pt x="1194" y="1137" on="1"/>
        <pt x="1194" y="1143" on="0"/>
        <pt x="1195" y="1198" on="0"/>
        <pt x="1195" y="1201" on="1"/>
        <pt x="1341" y="1201" on="1"/>
        <pt x="1322" y="842" on="1"/>
        <pt x="1196" y="842" on="1"/>
        <pt x="1191" y="903" on="0"/>
        <pt x="1149" y="990" on="0"/>
        <pt x="1086" y="1046" on="0"/>
        <pt x="1008" y="1071" on="0"/>
      </contour>
      <contour>
        <pt x="74" y="697" on="1"/>
        <pt x="80" y="814" on="0"/>
        <pt x="150" y="1030" on="0"/>
        <pt x="267" y="1219" on="0"/>
        <pt x="428" y="1374" on="0"/>
        <pt x="623" y="1485" on="0"/>
        <pt x="846" y="1546" on="0"/>
        <pt x="968" y="1546" on="1"/>
        <pt x="1153" y="1546" on="0"/>
        <pt x="1453" y="1411" on="0"/>
        <pt x="1662" y="1179" on="0"/>
        <pt x="1768" y="869" on="0"/>
        <pt x="1759" y="694" on="1"/>
        <pt x="1753" y="578" on="0"/>
        <pt x="1683" y="363" on="0"/>
        <pt x="1564" y="176" on="0"/>
        <pt x="1404" y="23" on="0"/>
        <pt x="1211" y="-86" on="0"/>
        <pt x="993" y="-146" on="0"/>
        <pt x="876" y="-146" on="1"/>
        <pt x="751" y="-146" on="0"/>
        <pt x="531" y="-89" on="0"/>
        <pt x="348" y="17" on="0"/>
        <pt x="207" y="168" on="0"/>
        <pt x="112" y="356" on="0"/>
        <pt x="68" y="575" on="0"/>
      </contour>
      <contour>
        <pt x="219" y="697" on="1"/>
        <pt x="211" y="549" on="0"/>
        <pt x="296" y="285" on="0"/>
        <pt x="469" y="87" on="0"/>
        <pt x="725" y="-28" on="0"/>
        <pt x="888" y="-28" on="1"/>
        <pt x="1047" y="-28" on="0"/>
        <pt x="1308" y="87" on="0"/>
        <pt x="1498" y="285" on="0"/>
        <pt x="1608" y="549" on="0"/>
        <pt x="1616" y="697" on="1"/>
        <pt x="1621" y="796" on="0"/>
        <pt x="1587" y="981" on="0"/>
        <pt x="1511" y="1143" on="0"/>
        <pt x="1396" y="1278" on="0"/>
        <pt x="1247" y="1375" on="0"/>
        <pt x="1064" y="1428" on="0"/>
        <pt x="959" y="1428" on="1"/>
        <pt x="855" y="1428" on="0"/>
        <pt x="667" y="1375" on="0"/>
        <pt x="506" y="1278" on="0"/>
        <pt x="375" y="1143" on="0"/>
        <pt x="280" y="981" on="0"/>
        <pt x="224" y="796" on="0"/>
      </contour>
    </TTGlyph>
    <TTGlyph name="currency" xMin="91" yMin="56" xMax="1026" yMax="999">
      <contour>
        <pt x="279" y="999" on="1"/>
        <pt x="375" y="871" on="1"/>
        <pt x="418" y="897" on="0"/>
        <pt x="519" y="927" on="0"/>
        <pt x="579" y="927" on="1"/>
        <pt x="639" y="927" on="0"/>
        <pt x="736" y="896" on="0"/>
        <pt x="778" y="870" on="1"/>
        <pt x="887" y="998" on="1"/>
        <pt x="1026" y="877" on="1"/>
        <pt x="894" y="736" on="1"/>
        <pt x="944" y="642" on="0"/>
        <pt x="944" y="542" on="1"/>
        <pt x="944" y="479" on="0"/>
        <pt x="910" y="358" on="0"/>
        <pt x="878" y="306" on="1"/>
        <pt x="989" y="172" on="1"/>
        <pt x="838" y="56" on="1"/>
        <pt x="746" y="179" on="1"/>
        <pt x="655" y="126" on="0"/>
        <pt x="536" y="126" on="1"/>
        <pt x="476" y="126" on="0"/>
        <pt x="376" y="153" on="0"/>
        <pt x="334" y="178" on="1"/>
        <pt x="231" y="56" on="1"/>
        <pt x="91" y="172" on="1"/>
        <pt x="216" y="306" on="1"/>
        <pt x="193" y="348" on="0"/>
        <pt x="171" y="445" on="0"/>
        <pt x="171" y="496" on="1"/>
        <pt x="171" y="559" on="0"/>
        <pt x="208" y="685" on="0"/>
        <pt x="244" y="742" on="1"/>
        <pt x="128" y="883" on="1"/>
      </contour>
      <contour>
        <pt x="572" y="783" on="1"/>
        <pt x="540" y="783" on="0"/>
        <pt x="493" y="752" on="0"/>
        <pt x="459" y="703" on="0"/>
        <pt x="437" y="643" on="0"/>
        <pt x="425" y="584" on="0"/>
        <pt x="420" y="534" on="0"/>
        <pt x="420" y="519" on="1"/>
        <pt x="420" y="481" on="0"/>
        <pt x="431" y="396" on="0"/>
        <pt x="459" y="324" on="0"/>
        <pt x="507" y="276" on="0"/>
        <pt x="545" y="276" on="1"/>
        <pt x="574" y="276" on="0"/>
        <pt x="619" y="305" on="0"/>
        <pt x="654" y="352" on="0"/>
        <pt x="678" y="413" on="0"/>
        <pt x="693" y="477" on="0"/>
        <pt x="700" y="539" on="0"/>
        <pt x="700" y="563" on="1"/>
        <pt x="700" y="594" on="0"/>
        <pt x="689" y="670" on="0"/>
        <pt x="660" y="737" on="0"/>
        <pt x="610" y="783" on="0"/>
      </contour>
    </TTGlyph>
    <TTGlyph name="d" xMin="57" yMin="-23" xMax="1142" yMax="1546">
      <contour>
        <pt x="599" y="911" on="1"/>
        <pt x="541" y="911" on="0"/>
        <pt x="456" y="854" on="0"/>
        <pt x="398" y="760" on="0"/>
        <pt x="362" y="643" on="0"/>
        <pt x="343" y="523" on="0"/>
        <pt x="336" y="411" on="0"/>
        <pt x="336" y="371" on="1"/>
        <pt x="336" y="265" on="0"/>
        <pt x="391" y="163" on="0"/>
        <pt x="436" y="163" on="1"/>
        <pt x="491" y="163" on="0"/>
        <pt x="580" y="278" on="0"/>
        <pt x="647" y="477" on="0"/>
        <pt x="694" y="744" on="0"/>
        <pt x="707" y="895" on="1"/>
        <pt x="700" y="898" on="0"/>
        <pt x="672" y="904" on="0"/>
        <pt x="640" y="909" on="0"/>
        <pt x="609" y="911" on="0"/>
      </contour>
      <contour>
        <pt x="902" y="227" on="1"/>
        <pt x="902" y="190" on="0"/>
        <pt x="921" y="167" on="0"/>
        <pt x="932" y="167" on="1"/>
        <pt x="955" y="167" on="0"/>
        <pt x="1005" y="238" on="0"/>
        <pt x="1031" y="330" on="1"/>
        <pt x="1142" y="297" on="1"/>
        <pt x="1133" y="253" on="0"/>
        <pt x="1095" y="142" on="0"/>
        <pt x="1028" y="44" on="0"/>
        <pt x="931" y="-23" on="0"/>
        <pt x="864" y="-23" on="1"/>
        <pt x="831" y="-23" on="0"/>
        <pt x="771" y="-6" on="0"/>
        <pt x="726" y="37" on="0"/>
        <pt x="700" y="109" on="0"/>
        <pt x="700" y="163" on="1"/>
        <pt x="700" y="183" on="0"/>
        <pt x="701" y="214" on="0"/>
        <pt x="703" y="241" on="0"/>
        <pt x="706" y="269" on="0"/>
        <pt x="708" y="286" on="1"/>
        <pt x="706" y="286" on="1"/>
        <pt x="669" y="196" on="0"/>
        <pt x="582" y="76" on="0"/>
        <pt x="491" y="6" on="0"/>
        <pt x="400" y="-23" on="0"/>
        <pt x="360" y="-23" on="1"/>
        <pt x="283" y="-23" on="0"/>
        <pt x="169" y="37" on="0"/>
        <pt x="94" y="142" on="0"/>
        <pt x="57" y="285" on="0"/>
        <pt x="57" y="368" on="1"/>
        <pt x="57" y="514" on="0"/>
        <pt x="124" y="763" on="0"/>
        <pt x="264" y="944" on="0"/>
        <pt x="478" y="1047" on="0"/>
        <pt x="624" y="1047" on="1"/>
        <pt x="631" y="1047" on="0"/>
        <pt x="658" y="1046" on="0"/>
        <pt x="688" y="1045" on="0"/>
        <pt x="714" y="1044" on="0"/>
        <pt x="722" y="1043" on="1"/>
        <pt x="755" y="1336" on="1"/>
        <pt x="613" y="1330" on="1"/>
        <pt x="621" y="1485" on="1"/>
        <pt x="692" y="1485" on="0"/>
        <pt x="799" y="1497" on="0"/>
        <pt x="875" y="1515" on="0"/>
        <pt x="922" y="1536" on="0"/>
        <pt x="933" y="1546" on="1"/>
        <pt x="1044" y="1546" on="1"/>
        <pt x="933" y="587" on="0"/>
        <pt x="914" y="414" on="0"/>
        <pt x="902" y="273" on="0"/>
      </contour>
    </TTGlyph>
    <TTGlyph name="dagger" xMin="63" yMin="-554" xMax="1018" yMax="1545">
      <contour>
        <pt x="400" y="-554" on="1"/>
        <pt x="399" y="-423" on="0"/>
        <pt x="398" y="-134" on="0"/>
        <pt x="392" y="159" on="0"/>
        <pt x="382" y="445" on="0"/>
        <pt x="372" y="573" on="1"/>
        <pt x="382" y="596" on="0"/>
        <pt x="403" y="664" on="0"/>
        <pt x="424" y="742" on="0"/>
        <pt x="444" y="823" on="0"/>
        <pt x="455" y="859" on="1"/>
        <pt x="343" y="828" on="0"/>
        <pt x="216" y="815" on="0"/>
        <pt x="205" y="815" on="1"/>
        <pt x="177" y="815" on="0"/>
        <pt x="125" y="824" on="0"/>
        <pt x="86" y="849" on="0"/>
        <pt x="63" y="894" on="0"/>
        <pt x="65" y="929" on="1"/>
        <pt x="67" y="964" on="0"/>
        <pt x="93" y="1008" on="0"/>
        <pt x="135" y="1032" on="0"/>
        <pt x="187" y="1041" on="0"/>
        <pt x="214" y="1041" on="1"/>
        <pt x="279" y="1041" on="0"/>
        <pt x="409" y="1009" on="0"/>
        <pt x="474" y="997" on="1"/>
        <pt x="468" y="1037" on="0"/>
        <pt x="455" y="1129" on="0"/>
        <pt x="443" y="1223" on="0"/>
        <pt x="433" y="1316" on="0"/>
        <pt x="432" y="1357" on="1"/>
        <pt x="431" y="1388" on="0"/>
        <pt x="445" y="1454" on="0"/>
        <pt x="480" y="1509" on="0"/>
        <pt x="536" y="1545" on="0"/>
        <pt x="576" y="1545" on="1"/>
        <pt x="616" y="1545" on="0"/>
        <pt x="665" y="1509" on="0"/>
        <pt x="691" y="1454" on="0"/>
        <pt x="697" y="1388" on="0"/>
        <pt x="693" y="1357" on="1"/>
        <pt x="687" y="1317" on="0"/>
        <pt x="668" y="1224" on="0"/>
        <pt x="646" y="1129" on="0"/>
        <pt x="623" y="1036" on="0"/>
        <pt x="614" y="996" on="1"/>
        <pt x="680" y="1009" on="0"/>
        <pt x="814" y="1041" on="0"/>
        <pt x="879" y="1041" on="1"/>
        <pt x="907" y="1041" on="0"/>
        <pt x="958" y="1032" on="0"/>
        <pt x="996" y="1008" on="0"/>
        <pt x="1018" y="964" on="0"/>
        <pt x="1016" y="929" on="1"/>
        <pt x="1014" y="894" on="0"/>
        <pt x="987" y="849" on="0"/>
        <pt x="945" y="824" on="0"/>
        <pt x="893" y="815" on="0"/>
        <pt x="865" y="815" on="1"/>
        <pt x="824" y="819" on="0"/>
        <pt x="756" y="830" on="0"/>
        <pt x="697" y="841" on="0"/>
        <pt x="644" y="853" on="0"/>
        <pt x="618" y="858" on="1"/>
        <pt x="624" y="822" on="0"/>
        <pt x="637" y="741" on="0"/>
        <pt x="650" y="663" on="0"/>
        <pt x="664" y="595" on="0"/>
        <pt x="672" y="573" on="1"/>
        <pt x="648" y="444" on="0"/>
        <pt x="608" y="159" on="0"/>
        <pt x="572" y="-132" on="0"/>
        <pt x="540" y="-421" on="0"/>
        <pt x="525" y="-554" on="1"/>
      </contour>
    </TTGlyph>
</ttFont>
